<?xml version="1.0" encoding="UTF-8"?>
<svg width="50px" height="50px" viewBox="0 0 50 50" version="1.1" xmlns="http://www.w3.org/2000/svg" xmlns:xlink="http://www.w3.org/1999/xlink">
    <!-- Generator: Sketch 49.3 (51167) - http://www.bohemiancoding.com/sketch -->
    <title>Group 4</title>
    <desc>Created with Sketch.</desc>
    <defs></defs>
    <g id="Page-1" stroke="none" stroke-width="1" fill="none" fill-rule="evenodd">
        <g id="download" transform="translate(-503.000000, -592.000000)">
            <g id="Group-3" transform="translate(503.000000, 592.000000)">
                <g id="Group-4">
                    <circle id="Oval" fill="#405A6C" cx="25" cy="25" r="25"></circle>
                    <g id="windows" transform="translate(9.615385, 10.897436)" fill="#FFFFFF">
                        <path d="M12.1284195,13.4582817 C10.7246905,12.736686 9.36049758,12.370129 8.07155166,12.370129 C7.89641655,12.370129 7.72043554,12.3758697 7.54327766,12.3909574 C5.89950108,12.5265257 4.39779652,12.9607932 3.43179505,13.2981684 C3.17567558,13.3923007 2.91304646,13.491217 2.64280436,13.6014675 L0,22.7696602 C1.81516038,22.096897 3.42146054,21.7700095 4.89216155,21.7700095 C7.2703508,21.7700095 8.99702417,22.6593729 10.4234449,23.5750477 C11.0993811,21.281132 12.7197304,15.7418569 13.2037609,14.0855979 C12.851615,13.8718681 12.4947615,13.6571079 12.1284195,13.4582817 Z M15.5451725,15.7888495 L12.884531,25.0371173 C13.6743675,25.4893428 16.329566,26.9230769 18.363112,26.9230769 C20.00516,26.9230769 21.8420559,26.5020203 23.9782851,25.6333749 L26.5193993,16.7432003 C24.7946016,17.2999356 23.1394607,17.5825167 21.5924829,17.5825167 C18.7679602,17.5835471 16.7917138,16.6678723 15.5451725,15.7888495 Z M8.61575039,9.24536064 C10.8847468,9.26894894 12.5625795,10.134724 13.9531053,11.0268105 L16.6816751,1.68441037 C16.1063257,1.35465262 14.5981483,0.533146996 13.507728,0.25339938 C12.790417,0.0856685676 12.0362179,0 11.2360101,0 C9.71157692,0.0282985947 8.04713131,0.410679216 6.14903736,1.17194453 L3.54661484,10.3155554 C5.45313087,9.59579955 7.09606157,9.24536064 8.61012341,9.24536064 L8.61575039,9.24536064 Z M30.1282051,4.22039133 C28.3977804,4.89297054 26.7096132,5.23494563 25.0958472,5.23494563 C22.3984281,5.23494563 20.4090152,4.29858965 19.1202164,3.3988857 L16.4151843,12.7677445 C18.2322203,13.9368187 20.1896366,14.5303532 22.2439988,14.5303532 C23.9199925,14.5303532 25.6551248,14.1279906 27.4063656,13.3320972 L27.4006283,13.2669626 L27.5108141,13.2406512 L30.1282051,4.22039133 Z" id="Fill-1"></path>
                    </g>
                </g>
            </g>
        </g>
    </g>
</svg>