<?xml version="1.0" encoding="UTF-8"?>
<svg width="50px" height="50px" viewBox="0 0 50 50" version="1.1" xmlns="http://www.w3.org/2000/svg" xmlns:xlink="http://www.w3.org/1999/xlink">
    <!-- Generator: Sketch 49.3 (51167) - http://www.bohemiancoding.com/sketch -->
    <title>Group 13</title>
    <desc>Created with Sketch.</desc>
    <defs></defs>
    <g id="Page-1" stroke="none" stroke-width="1" fill="none" fill-rule="evenodd">
        <g id="download" transform="translate(-503.000000, -2246.000000)">
            <g id="Group-3" transform="translate(503.000000, 592.000000)">
                <g id="Group-9-Copy-2" transform="translate(0.000000, 1654.000000)">
                    <g id="Group-13">
                        <circle id="Oval-Copy" fill="#405A6C" cx="25" cy="25" r="25"></circle>
                        <g id="手机" transform="translate(15.000000, 10.000000)" fill="#FFFFFF">
                            <path d="M0.000943763055,32 L0,0 L21,0 L20.9976201,32 L0.000943763055,32 Z M10.6941074,30.7141142 C11.7768499,30.7141142 12.6537699,29.7592817 12.6537699,28.5806052 C12.6537699,27.401884 11.7768499,26.4474088 10.6941074,26.4474088 C9.61136502,26.4474088 8.73460914,27.401884 8.73460914,28.5806052 C8.73460914,29.7592817 9.61136502,30.7141142 10.6941074,30.7141142 Z M2.09909317,25.1336486 L18.8920847,25.1336486 L18.8920847,2.28690763 L2.09909317,2.28690763 L2.09909317,25.1336486 Z" id="Fill-1"></path>
                            <g id="Group-6" transform="translate(6.000000, 9.000000)">
                                <path d="M4.20773807,6.04406606 L4.20773807,10.5254478 L0,9.87827253 L0,6.04406606 L4.20773807,6.04406606 Z M4.20773807,0.929145877 L4.20773807,5.46557249 L0,5.46557249 L0,1.57627292 L4.20773807,0.929145877 Z M10.2666667,6.04406606 L10.2666667,11.4545455 L4.67056809,10.5941615 L4.67056809,6.04406606 L10.2666667,6.04406606 Z M10.2666667,6.48370246e-14 L10.2666667,5.46557249 L4.67056809,5.46557249 L4.67056809,0.86038391 L10.2666667,6.48370246e-14 Z" id="windows-(1)"></path>
                            </g>
                        </g>
                    </g>
                </g>
            </g>
        </g>
    </g>
</svg>