<?xml version="1.0" encoding="UTF-8"?>
<svg width="50px" height="50px" viewBox="0 0 50 50" version="1.1" xmlns="http://www.w3.org/2000/svg" xmlns:xlink="http://www.w3.org/1999/xlink">
    <!-- Generator: Sketch 49.3 (51167) - http://www.bohemiancoding.com/sketch -->
    <title>Group 7</title>
    <desc>Created with Sketch.</desc>
    <defs></defs>
    <g id="Page-1" stroke="none" stroke-width="1" fill="none" fill-rule="evenodd">
        <g id="download" transform="translate(-503.000000, -1592.000000)">
            <g id="Group-3" transform="translate(503.000000, 592.000000)">
                <g id="Group-8" transform="translate(0.000000, 1000.000000)">
                    <g id="Group-7">
                        <circle id="Oval" fill="#405A6C" cx="25" cy="25" r="25"></circle>
                        <g id="苹果" transform="translate(13.000000, 11.000000)" fill="#FFFFFF">
                            <path d="M19.2093243,14.3475744 C19.248496,18.4305007 22.9568158,19.789169 23,19.8080875 C22.9663209,19.9015592 22.4057808,21.7446916 21.0431912,23.6488312 C19.8657051,25.2943416 18.6462189,26.9305905 16.7217736,26.9643075 C14.828442,26.9981894 14.2221523,25.8925142 12.058763,25.8925142 C9.89662349,25.8925142 9.22008125,26.9305905 7.43068132,26.9981894 C5.57523876,27.0658871 4.15992688,25.2226228 2.972837,23.5838361 C0.54475094,20.230391 -1.30809333,14.1094127 1.18212148,9.97780596 C2.41782241,7.92482362 4.6285072,6.62706351 7.02557822,6.59192923 C8.85007153,6.56078298 10.5731986,7.76790588 11.6859248,7.76790588 C12.8027621,7.76790588 14.8945833,6.31718311 17.0944803,6.52960378 C18.0142422,6.56618826 20.6003307,6.88417656 22.2599805,9.20379711 C22.1276322,9.28632641 19.174231,10.9265634 19.2093243,14.3475744 Z M11.4631296,6.22242602 C11.2497408,4.67025549 12.0492579,3.05707788 12.9621788,2.04345719 C13.9817611,0.902647776 15.7021912,0.0540856976 17.1228641,0 C17.305172,1.58061414 16.638135,3.16805079 15.6536131,4.31156284 C14.6664271,5.45111981 13.0485144,6.34022144 11.4631296,6.22242602 Z" id="Fill-1"></path>
                        </g>
                    </g>
                </g>
            </g>
        </g>
    </g>
</svg>