<?xml version="1.0" encoding="UTF-8"?>
<svg width="50px" height="50px" viewBox="0 0 50 50" version="1.1" xmlns="http://www.w3.org/2000/svg" xmlns:xlink="http://www.w3.org/1999/xlink">
    <!-- Generator: Sketch 50.2 (55047) - http://www.bohemiancoding.com/sketch -->
    <title>Group 15</title>
    <desc>Created with Sketch.</desc>
    <defs></defs>
    <g id="Page-1" stroke="none" stroke-width="1" fill="none" fill-rule="evenodd">
        <g id="download" transform="translate(-503.000000, -2773.000000)">
            <g id="Group-3" transform="translate(503.000000, 592.000000)">
                <g id="Group-9-Copy-2" transform="translate(0.000000, 1654.000000)">
                    <g id="Group-15" transform="translate(0.000000, 527.000000)">
                        <circle id="Oval-Copy-2" fill="#7A4BAA" cx="25" cy="25" r="25"></circle>
                        <g id="server" transform="translate(13.000000, 10.000000)" fill="#FFFFFF" fill-rule="nonzero">
                            <path d="M1.33333334,0 L22.6666667,0 C23.4,0 24,0.613636364 24,1.36363634 L24,6.81818181 C24,7.56818182 23.4,8.18181819 22.6666667,8.18181819 L1.33333334,8.18181819 C0.6,8.18181819 0,7.56818182 0,6.81818181 L0,1.36363634 C0,0.613636364 0.6,0 1.33333334,0 Z M1.33333334,10.9090909 L22.6666667,10.9090909 C23.4,10.9090909 24,11.5227273 24,12.2727273 L24,17.7272727 C24,18.4772727 23.4,19.0909091 22.6666667,19.0909091 L1.33333334,19.0909091 C0.6,19.0909091 0,18.4772727 0,17.7272727 L0,12.2727273 C0,11.5227273 0.6,10.9090909 1.33333334,10.9090909 Z M1.33333334,21.8181818 L22.6666667,21.8181818 C23.4,21.8181818 24,22.4318182 24,23.1818182 L24,28.6363637 C24,29.3863636 23.4,30 22.6666667,30 L1.33333334,30 C0.6,30 0,29.3863636 0,28.6363637 L0,23.1818182 C0,22.4318182 0.6,21.8181818 1.33333334,21.8181818 Z M8,5.45454544 L9.33333334,5.45454544 L9.33333334,2.72727272 L8,2.72727272 L8,5.45454544 Z M8,16.3636364 L9.33333334,16.3636364 L9.33333334,13.6363636 L8,13.6363636 L8,16.3636364 Z M8,27.2727273 L9.33333334,27.2727273 L9.33333334,24.5454546 L8,24.5454546 L8,27.2727273 Z M2.66666666,2.72727272 L2.66666666,5.45454544 L5.33333334,5.45454544 L5.33333334,2.72727272 L2.66666666,2.72727272 Z M2.66666666,13.6363636 L2.66666666,16.3636364 L5.33333334,16.3636364 L5.33333334,13.6363636 L2.66666666,13.6363636 Z M2.66666666,24.5454546 L2.66666666,27.2727273 L5.33333334,27.2727273 L5.33333334,24.5454546 L2.66666666,24.5454546 Z" id="Shape"></path>
                        </g>
                    </g>
                </g>
            </g>
        </g>
    </g>
</svg>