<?xml version="1.0" encoding="UTF-8"?>
<svg width="50px" height="50px" viewBox="0 0 50 50" version="1.1" xmlns="http://www.w3.org/2000/svg" xmlns:xlink="http://www.w3.org/1999/xlink">
    <!-- Generator: Sketch 49.3 (51167) - http://www.bohemiancoding.com/sketch -->
    <title>Group 14</title>
    <desc>Created with Sketch.</desc>
    <defs></defs>
    <g id="Page-1" stroke="none" stroke-width="1" fill="none" fill-rule="evenodd">
        <g id="download" transform="translate(-503.000000, -2579.000000)">
            <g id="Group-3" transform="translate(503.000000, 592.000000)">
                <g id="Group-9-Copy-3" transform="translate(0.000000, 1987.000000)">
                    <g id="Group-14">
                        <circle id="Oval-Copy" fill="#19A5EA" cx="25" cy="25" r="25"></circle>
                        <path d="M11,16.0000524 L11,33.9999065 C11,35.679613 11.3060975,36 12.8000555,36 L33.1999445,36 C34.681685,36 35,35.6933157 35,33.9999065 L35,16.0000524 C35,14.3598901 34.7176795,14 33.1999445,14 L12.799891,14 C11.3115686,14 11,14.2862743 11,16.0000524 Z M32,31 L14,31 C15.9672628,27.6256736 19.465772,22 20.3548059,22 C21.2153294,22 24.1363199,26.5453742 25.455555,28.145531 C25.455555,28.145531 27.1525741,25.4783749 28.0416484,25.4783749 C28.9485317,25.478546 31.9703184,30.9724163 32,31 Z M27,20.0168254 C27,18.7904427 27.8940302,18 28.9999814,18 C30.1058211,18 31,18.7905911 31,20.0168254 C31,21.2427258 30.1058211,22 28.9999814,22 C27.8940302,22 27,21.2428742 27,20.0168254 Z M22,13 L18.7630698,12.1375233 C17.6887602,11.8513259 17.2629522,11.9545258 17,13 L22,13 Z M38.4212339,16.5711271 L35.5963575,16 C35.597542,16.0730851 35.5980074,16.1458456 35.5980074,16.2173481 L35.5980074,34.0695135 C35.5980074,34.8977573 35.5464375,35.8353651 34.9318723,36.4770613 C34.3341444,37.101308 33.4680758,37.153616 32.703243,37.153616 L31,37.153616 L34.6246531,37.8865774 C36.1217014,38.1891846 36.4963548,37.9571059 36.7885134,36.3164851 L39.8948029,18.8767778 C40.1776966,17.2876534 39.9547914,16.8813635 38.4212339,16.5711271 Z" id="相册" fill="#FFFFFF"></path>
                    </g>
                </g>
            </g>
        </g>
    </g>
</svg>