<?xml version="1.0" encoding="UTF-8"?>
<svg width="50px" height="50px" viewBox="0 0 50 50" version="1.1" xmlns="http://www.w3.org/2000/svg" xmlns:xlink="http://www.w3.org/1999/xlink">
    <!-- Generator: Sketch 49.3 (51167) - http://www.bohemiancoding.com/sketch -->
    <title>Group 11</title>
    <desc>Created with Sketch.</desc>
    <defs></defs>
    <g id="Page-1" stroke="none" stroke-width="1" fill="none" fill-rule="evenodd">
        <g id="download" transform="translate(-503.000000, -1812.000000)">
            <g id="Group-3" transform="translate(503.000000, 592.000000)">
                <g id="Group-9" transform="translate(0.000000, 1220.000000)">
                    <g id="Group-11">
                        <circle id="Oval-Copy" fill="#405A6C" cx="25" cy="25" r="25"></circle>
                        <g id="安卓" transform="translate(13.000000, 11.000000)" fill="#FFFFFF">
                            <path d="M21.3571456,8.43721564 C20.4535528,8.43721564 19.7143292,9.19657971 19.7143292,10.1247912 L19.7143292,16.875328 C19.7143292,17.8035395 20.4535528,18.5629427 21.3571456,18.5629427 C22.2607383,18.5629427 23,17.8035395 23,16.875328 L23,10.1247912 C23,9.19751754 22.2597113,8.43721564 21.3571456,8.43721564 Z M1.64285443,8.43721564 C0.739261668,8.43721564 0,9.19657971 0,10.1247912 L0,16.875328 C0,17.8035395 0.739261668,18.5629427 1.64285443,18.5629427 C2.54640914,18.5629427 3.28567081,17.8035395 3.28567081,16.875328 L3.28567081,10.1247912 C3.28567081,9.19751754 2.54640914,8.43721564 1.64285443,8.43721564 Z M4.10751646,19.4062811 C4.10751646,20.8047724 5.2109693,21.9370388 6.57134162,21.9370388 L7.39231236,21.9370388 L7.39231236,25.3123853 C7.39231236,26.2405968 8.13157403,27 9.03516679,27 C9.93872151,27 10.6779832,26.2405968 10.6779832,25.3123853 L10.6779832,21.9370388 L12.3208376,21.9370388 L12.3208376,25.3123853 C12.3208376,26.2405968 13.0600612,27 13.963654,27 C14.8672467,27 15.6065084,26.2405968 15.6065084,25.3123853 L15.6065084,21.9370388 L16.427327,21.9370388 C17.7888785,21.9370388 18.8911141,20.8036782 18.8911141,19.4062811 L18.8911141,10.1247912 L4.10740234,10.1247912 L4.10740234,19.4062811 L4.10751646,19.4062811 Z M14.5446329,2.36011478 L15.5844835,0.308780631 C15.6369401,0.206206108 15.5985962,0.0778414201 15.4977151,0.0248934285 C15.3978612,-0.0289923874 15.2727489,0.0105134573 15.2213574,0.114025804 L14.1654541,2.19634723 C13.3374841,1.8680306 12.4387984,1.6877339 11.499981,1.6877339 C10.5610494,1.6877339 9.66236378,1.8680306 8.83545887,2.19740228 L7.7805826,0.112931676 C7.72812599,0.0105134573 7.6040408,-0.0299302116 7.50418684,0.0237993002 C7.40433288,0.0778414201 7.36496189,0.20530736 7.4174185,0.307725579 L8.45726912,2.36011478 C6.13061477,3.44158239 4.44648737,5.72494988 4.15495185,8.43827069 L18.8499553,8.43827069 C18.5544256,5.72385575 16.8702601,3.44158239 14.5446329,2.36011478 Z M8.21431017,7.12984962 C7.55679561,7.12984962 7.02321408,6.58169137 7.02321408,5.90626256 C7.02321408,5.23083375 7.55664345,4.68271458 8.21431017,4.68271458 C8.87186277,4.68271458 9.40529214,5.23083375 9.40529214,5.90626256 C9.40529214,6.58169137 8.87186277,7.12984962 8.21431017,7.12984962 Z M14.7856518,7.12984962 C14.1281372,7.12984962 13.5945557,6.58169137 13.5945557,5.90626256 C13.5945557,5.23083375 14.1281372,4.68271458 14.7856518,4.68271458 C15.4432044,4.68271458 15.9767859,5.23083375 15.9767859,5.90626256 C15.9767859,6.58169137 15.4432044,7.12984962 14.7856518,7.12984962 Z" id="andriod"></path>
                        </g>
                    </g>
                </g>
            </g>
        </g>
    </g>
</svg>