<?xml version="1.0" encoding="UTF-8"?>
<svg width="50px" height="50px" viewBox="0 0 50 50" version="1.1" xmlns="http://www.w3.org/2000/svg" xmlns:xlink="http://www.w3.org/1999/xlink">
    <!-- Generator: Sketch 49.3 (51167) - http://www.bohemiancoding.com/sketch -->
    <title>Group 28</title>
    <desc>Created with Sketch.</desc>
    <defs></defs>
    <g id="Page-1" stroke="none" stroke-width="1" fill="none" fill-rule="evenodd">
        <g id="enterprise" transform="translate(-392.000000, -3931.000000)">
            <g id="Group-17" transform="translate(-1.000000, 2866.000000)">
                <g id="Group-28" transform="translate(393.000000, 1065.000000)">
                    <rect id="Rectangle-9-Copy-8" fill="#5E8DD4" x="0" y="0" width="50" height="50" rx="8"></rect>
                    <g id="云账户" transform="translate(7.000000, 11.000000)" fill="#FFFFFF">
                        <path d="M29.6119978,10.1063358 C29.1581468,4.45734164 24.4378843,0 18.7033082,0 C12.9384866,0 8.19477401,4.45734164 7.73674541,10.1054957 C3.39469214,10.5541646 0,14.1674867 0,18.5445149 C0,22.9189667 3.38338485,26.6311405 7.70349196,26.9960795 C7.78988408,27.0028563 7.87321264,26.9980398 7.95370046,26.9820779 L28.457485,26.9820779 C28.5173635,26.9932232 28.5778547,27 28.639627,27 C28.6661963,27 28.6924872,26.9988799 28.7190565,26.9969196 C32.7188277,26.6595919 36.9999998,23.1830379 36.9999998,18.545411 C37.0008353,14.1016229 33.8213158,10.5570209 29.6119978,10.1063358 Z M28.7294726,25.0999199 C28.700341,25.0968396 28.6709309,25.0959995 28.639627,25.0959995 L7.78331137,25.0959995 C7.75289867,25.0959995 7.72348859,25.0968396 7.6939114,25.0999199 C4.42911379,24.735877 1.89622618,21.8891733 1.89622618,18.5445149 C1.89622618,14.9047577 4.92496332,11.9440805 8.64868075,11.9440805 C9.17193513,11.9440805 9.59687739,11.5216227 9.59687739,11.0011533 C9.59687739,5.97433653 13.6817595,1.88585439 18.7033082,1.88585439 C23.6928846,1.88585439 27.7523115,5.97433653 27.7523115,11.0011533 C27.7523115,11.5216227 28.1768081,11.9440805 28.700341,11.9440805 C32.2921587,11.9440805 35.1057232,14.8434864 35.1057232,18.5445149 C35.1050548,22.0806039 31.8411484,24.7518389 28.7294726,25.0999199 Z" id="Fill-1"></path>
                        <path d="M21.9858989,15.5429416 C23.4930148,14.4847377 24.4801867,12.7657502 24.4801867,10.8223332 C24.4801867,7.61190002 21.7968991,5 18.4988902,5 C15.2011588,5 12.5178711,7.61190002 12.5178711,10.8223332 C12.5178711,12.7657502 13.5049876,14.4847377 15.0121589,15.5429416 C12.0618521,16.8419567 10,19.7287965 10,23.0806584 C10,23.5881092 10.4231133,24 10.9444444,24 C11.4657201,24 11.8890554,23.5881092 11.8890554,23.0806584 C11.8890554,19.5319429 14.8543446,16.6453216 18.500222,16.6453216 C22.1456554,16.6453216 25.1109446,19.5328166 25.1109446,23.0806584 C25.1109446,23.5881092 25.5342799,24 26.0555556,24 C26.5768867,24 27,23.5881092 27,23.0806584 C26.9980578,19.7287965 24.9362058,16.8419567 21.9858989,15.5429416 Z M14.4049843,10.8229884 C14.4049843,8.62570951 16.2409355,6.83972076 18.49717,6.83972076 C20.7536265,6.83972076 22.5893557,8.62680163 22.5893557,10.8229884 C22.5893557,13.019339 20.7536265,14.8064199 18.49717,14.8064199 C16.2409355,14.8064199 14.4049843,13.019339 14.4049843,10.8229884 Z" id="Fill-2"></path>
                    </g>
                </g>
            </g>
        </g>
    </g>
</svg>