<?xml version="1.0" encoding="UTF-8"?>
<svg width="50px" height="50px" viewBox="0 0 50 50" version="1.1" xmlns="http://www.w3.org/2000/svg" xmlns:xlink="http://www.w3.org/1999/xlink">
    <!-- Generator: Sketch 49.3 (51167) - http://www.bohemiancoding.com/sketch -->
    <title>Group 26</title>
    <desc>Created with Sketch.</desc>
    <defs></defs>
    <g id="Page-1" stroke="none" stroke-width="1" fill="none" fill-rule="evenodd">
        <g id="enterprise" transform="translate(-1478.000000, -3501.000000)">
            <g id="Group-17" transform="translate(-1.000000, 2866.000000)">
                <g id="Group-26" transform="translate(1479.000000, 635.000000)">
                    <rect id="Rectangle-9-Copy-7" fill="#5E8DD4" x="0" y="0" width="50" height="50" rx="8"></rect>
                    <g id="远程控制" transform="translate(11.000000, 10.000000)" fill="#FFFFFF">
                        <path d="M0.755248149,4.05359213 C-0.251749383,3.12680616 -0.251749383,1.62312452 0.755248149,0.695575757 C1.76237,-0.231858586 3.39595943,-0.231858586 4.40312271,0.695575757 C5.12730233,1.36209887 5.32251921,2.32424001 5.00638472,3.15808042 L13,8.65045056 L9.36070321,12 L3.43060203,4.60825256 C2.52479737,4.89921759 1.47942777,4.71954315 0.755248149,4.05359213 Z" id="Fill-1"></path>
                        <path d="M11.1727464,24 C7.77109533,24 4.56554968,22.6800818 2.14558705,20.2835439 L1,19.1490789 L19.1316228,1 L20.2685775,2.14235823 C22.6754174,4.56199553 24,7.77061218 24,11.1793079 C24,18.248433 18.2456645,24 11.1727464,24 Z M5.64776828,19.0420554 C7.25516696,20.1765591 9.16903359,20.7880558 11.1727464,20.7880558 C16.4739027,20.7880558 20.7858607,16.4779402 20.7858607,11.1793079 C20.7858607,9.17046919 20.1714925,7.25356392 19.0319443,5.64492203 L5.64776828,19.0420554 Z" id="Fill-3"></path>
                        <path d="M27,32 L7,32 L8.05594601,29.7531775 C8.06329233,29.7394545 8.74787565,28.2794289 9.9218343,25.5857113 L10.3737709,24.5491485 L11.5289905,24.6215478 C16.8846587,24.9614113 20.6124675,21.6505418 20.6480599,21.6186235 L22.4395421,20 L27,32 Z M12.0418583,28.8268191 L22.3201545,28.8268191 L20.9852052,25.3091493 C19.1937623,26.4110013 16.2283215,27.7757688 12.4890414,27.8189255 C12.3268329,28.1848971 12.1787279,28.5208616 12.0418583,28.8268191 Z" id="Fill-4"></path>
                    </g>
                </g>
            </g>
        </g>
    </g>
</svg>