<?xml version="1.0" encoding="UTF-8"?>
<svg width="50px" height="50px" viewBox="0 0 50 50" version="1.1" xmlns="http://www.w3.org/2000/svg" xmlns:xlink="http://www.w3.org/1999/xlink">
    <!-- Generator: Sketch 49.3 (51167) - http://www.bohemiancoding.com/sketch -->
    <title>Group 20</title>
    <desc>Created with Sketch.</desc>
    <defs>
        <polygon id="path-1" points="0.00214002642 0.0109441624 26.988609 0.0109441624 26.988609 27.9999645 0.00214002642 27.9999645"></polygon>
    </defs>
    <g id="Page-1" stroke="none" stroke-width="1" fill="none" fill-rule="evenodd">
        <g id="enterprise" transform="translate(-750.000000, -3148.000000)">
            <g id="Group-17" transform="translate(-1.000000, 2866.000000)">
                <g id="Group-20" transform="translate(751.000000, 282.000000)">
                    <rect id="Rectangle-9-Copy" fill="#5E8DD4" x="0" y="0" width="50" height="50" rx="8"></rect>
                    <g id="用户" transform="translate(9.000000, 12.000000)">
                        <g id="Group-4">
                            <mask id="mask-2" fill="white">
                                <use xlink:href="#path-1"></use>
                            </mask>
                            <g id="Clip-2"></g>
                            <path d="M11.2379207,2.25005584 C14.3351096,2.25005584 16.8568811,4.77360914 16.8568811,7.8746802 C16.8568811,10.9759289 14.3351096,13.4994467 11.2379207,13.4994467 C8.14073184,13.4994467 5.61896037,10.9759289 5.61896037,7.8746802 C5.61896037,4.77360914 8.14073184,2.25005584 11.2379207,2.25005584 Z M11.2379207,0.0109441624 C6.89338177,0.0109441624 3.37136196,3.53077157 3.37136196,7.8746802 C3.37136196,12.2185888 6.89338177,15.7385939 11.2379207,15.7385939 C15.5824954,15.7385939 19.1043369,12.2185888 19.1043369,7.8746802 C19.1043369,3.53077157 15.5824954,0.0109441624 11.2379207,0.0109441624 Z" id="Fill-1" fill="#FFFFFF" mask="url(#mask-2)"></path>
                            <path d="M21.3519353,27.9999645 C20.7313633,27.9999645 20.2281361,27.4987716 20.2281361,26.8803909 L20.2281361,24.7689492 C20.2281361,19.8093249 16.1960766,15.7766142 11.2379207,15.7766142 C6.27976486,15.7766142 2.24759841,19.8093249 2.24759841,24.7689492 L2.24759841,26.8803909 C2.24759841,27.4987716 1.7444782,27.9999645 1.12379921,27.9999645 C0.503084544,27.9999645 0,27.4987716 0,26.8803909 L0,24.7689492 C0,18.5755482 5.04133157,13.537467 11.2379207,13.537467 C17.4344029,13.537467 22.4756988,18.5755482 22.4756988,24.7689492 L22.4756988,26.8803909 C22.4756988,27.1773046 22.3574267,27.4621015 22.1466341,27.6721371 C21.9358415,27.8819949 21.6500766,27.9999645 21.3519353,27.9999645 Z M22.1520555,14.9817056 C21.5667583,14.9849036 21.0770489,14.5397462 21.0264729,13.9587462 C20.976004,13.3777107 21.3816103,12.8554112 21.9588111,12.758264 C23.303033,12.5128731 24.3687305,11.4886345 24.6630911,10.159203 C24.9574875,8.82962944 24.4231942,7.45386294 23.3073487,6.66780203 C22.5765654,6.15481218 21.6705495,5.95341117 20.7900357,6.10805076 C20.198033,6.17950761 19.653004,5.77784264 19.5484993,5.19293401 C19.4439947,4.60788325 19.816288,4.04351269 20.3966988,3.90706599 C21.8657556,3.64319797 23.3795033,3.97884264 24.5974993,4.83842132 C26.4565046,6.14468528 27.3466486,8.43517766 26.8549775,10.648066 C26.3634135,12.8608122 24.5863355,14.5632335 22.3476539,14.9660355 C22.2828824,14.975736 22.2175403,14.9809949 22.1520555,14.9817056 Z" id="Fill-3" fill="#FFFFFF" mask="url(#mask-2)"></path>
                        </g>
                        <path d="M27.8602597,24 C27.5578893,24 27.2680709,23.8865645 27.0542883,23.6847722 C26.8405056,23.4828092 26.7205196,23.2089581 26.7205196,22.9234559 L26.7205196,21.392623 C26.7229432,17.9549116 23.7792177,15.1637485 20.13974,15.1530541 C19.5102207,15.1530541 19,14.6711239 19,14.0765441 C19,13.4819301 19.5102207,13 20.13974,13 C25.0376415,13.0118902 29.0012658,16.7662644 28.9999997,21.392623 L28.9999997,22.9234559 C28.9999997,23.2089581 28.8799052,23.4828092 28.6661226,23.6847722 C28.4523038,23.8865645 28.1625216,24 27.8602597,24 Z" id="Fill-5" fill="#FFFFFF"></path>
                    </g>
                </g>
            </g>
        </g>
    </g>
</svg>