<?xml version="1.0" encoding="UTF-8"?>
<svg width="50px" height="50px" viewBox="0 0 50 50" version="1.1" xmlns="http://www.w3.org/2000/svg" xmlns:xlink="http://www.w3.org/1999/xlink">
    <!-- Generator: Sketch 49.3 (51167) - http://www.bohemiancoding.com/sketch -->
    <title>Group 25</title>
    <desc>Created with Sketch.</desc>
    <defs></defs>
    <g id="Page-1" stroke="none" stroke-width="1" fill="none" fill-rule="evenodd">
        <g id="enterprise" transform="translate(-1110.000000, -3501.000000)">
            <g id="Group-17" transform="translate(-1.000000, 2866.000000)">
                <g id="Group-25" transform="translate(1111.000000, 635.000000)">
                    <rect id="Rectangle-9-Copy-6" fill="#5E8DD4" x="0" y="0" width="50" height="50" rx="8"></rect>
                    <g id="控制台" transform="translate(10.000000, 13.000000)" fill="#FFFFFF">
                        <path d="M28.1286789,20.4273891 L15.9389681,20.4273891 L15.9389681,24.1403958 L24.3763525,24.1403958 L24.3763525,26 L5.62707951,26 L5.62707951,24.1403958 L14.0644224,24.1403958 L14.0644224,20.4273891 L1.87131084,20.4273891 C0.836099078,20.4273891 0,19.5928118 0,18.5676206 L0,1.85976851 C0,0.834577333 0.842734785,0 1.87131084,0 L28.1286789,0 C29.1638907,0 29.9999897,0.834577333 29.9999897,1.85976851 L29.9999897,18.5741921 C30.0033905,19.5961797 29.1606558,20.4273891 28.1286789,20.4273891 Z M28.1286789,3.71280127 C28.1286789,2.68777437 27.28611,1.85319704 26.2508983,1.85319704 L3.74909149,1.85319704 C2.71404562,1.85319704 1.87131084,2.68777437 1.87131084,3.71280127 L1.87131084,16.7145879 C1.87131084,17.7397791 2.71404562,18.5741921 3.74909149,18.5741921 L26.2541332,18.5741921 C27.2893449,18.5741921 28.1320797,17.7397791 28.1320797,16.7145879 L28.1320797,3.71280127 L28.1286789,3.71280127 Z M20.6270536,14.8548194 L16.8779622,14.8548194 L16.8779622,13.9282825 L7.49839035,13.9282825 L7.49839035,12.0685139 L16.8745614,12.0685139 L16.8745614,11.141977 L20.6238187,11.141977 L20.6238187,12.0685139 L22.5016409,12.0685139 L22.5016409,13.9282825 L20.6238187,13.9282825 L20.6238187,14.8548194 L20.6270536,14.8548194 Z M13.1254284,8.35891628 L9.376171,8.35891628 L9.376171,7.42580789 L7.49839035,7.42580789 L7.49839035,5.56603938 L9.376171,5.56603938 L9.376171,4.63950246 L13.1254284,4.63950246 L13.1254284,5.56603938 L22.5016409,5.56603938 L22.5016409,7.42580789 L13.1254284,7.42580789 L13.1254284,8.35891628 Z" id="Fill-1"></path>
                    </g>
                </g>
            </g>
        </g>
    </g>
</svg>