<?xml version="1.0" encoding="UTF-8"?>
<svg width="50px" height="50px" viewBox="0 0 50 50" version="1.1" xmlns="http://www.w3.org/2000/svg" xmlns:xlink="http://www.w3.org/1999/xlink">
    <!-- Generator: Sketch 49.3 (51167) - http://www.bohemiancoding.com/sketch -->
    <title>Group 23</title>
    <desc>Created with Sketch.</desc>
    <defs></defs>
    <g id="Page-1" stroke="none" stroke-width="1" fill="none" fill-rule="evenodd">
        <g id="enterprise" transform="translate(-392.000000, -3501.000000)">
            <g id="Group-17" transform="translate(-1.000000, 2866.000000)">
                <g id="Group-23" transform="translate(393.000000, 635.000000)">
                    <rect id="Rectangle-9-Copy-4" fill="#5E8DD4" x="0" y="0" width="50" height="50" rx="8"></rect>
                    <g id="data-cloud" transform="translate(8.000000, 9.000000)" fill="#FFFFFF">
                        <path d="M3.14090282,21.5732568 L1.32118977,21.5732568 C1.13963284,21.5732568 0.995284402,21.6334998 0.888144455,21.7561637 C0.783012313,21.8832707 0.730638479,22.0214419 0.730638479,22.1754252 L0.730638479,22.5946866 C0.730638479,22.7463177 0.783012313,22.8824416 0.888144455,22.9916891 C0.995284402,23.1009367 1.13078995,23.1522935 1.2993175,23.1522935 C1.46553821,23.1522935 1.60988664,23.2125365 1.73236281,23.3396435 C1.8526603,23.4623074 1.91391974,23.6004786 1.91391974,23.7544619 L1.91391974,28.3978316 C1.91391974,28.5494627 1.96629357,28.6899861 2.07142572,28.8126936 C2.17638698,28.9353575 2.3053992,28.9956005 2.45624097,28.9956005 L3.13876686,28.9956005 C3.28960863,28.9956005 3.42528505,28.9353575 3.54776122,28.8082505 C3.67023739,28.6855866 3.72931815,28.5472412 3.72931815,28.3934321 L3.72931815,22.2200302 C3.72931815,22.0326802 3.67023739,21.8810927 3.54776122,21.7539857 C3.42742102,21.6334998 3.28960863,21.5732568 3.14090282,21.5732568 Z M8.64622153,21.9902967 C8.28092899,21.8340919 7.93315135,21.7561637 7.59840309,21.7561637 C7.2660044,21.7561637 6.9160908,21.8208497 6.55079826,21.9435137 C5.5206656,22.3784566 5.00222445,23.1968986 5.00222445,24.4056784 L5.00222445,26.3057931 C5.00222445,27.4812063 5.51835876,28.2885841 6.55079826,28.7189097 C6.88537564,28.870715 7.23328143,28.9509954 7.59840309,28.9509954 C7.99441079,28.9509954 8.35752465,28.872893 8.69210203,28.7189097 C9.63256692,28.2573083 10.1028207,27.4522827 10.1028207,26.3057931 L10.1028207,24.4056784 C10.100642,23.2280001 9.6172307,22.4230181 8.64622153,21.9902967 Z M7.57653082,27.4187853 C7.04506029,27.4187853 6.78041437,27.0619448 6.78041437,26.3505289 L6.78041437,24.3566738 C6.78041437,23.6719599 7.04506029,23.3330224 7.57653082,23.3330224 C8.10804407,23.3330224 8.37268999,23.6719599 8.37268999,24.3566738 L8.37268999,26.3527504 C8.37268999,27.0619448 8.10804407,27.4187853 7.57653082,27.4187853 Z M14.3351904,23.2414601 C14.0617016,23.1187961 13.7795408,23.0585532 13.4930226,23.0585532 C13.202147,23.0585532 12.9243008,23.1187961 12.6509829,23.2414601 C11.8001003,23.5850149 11.3758979,24.247252 11.3758979,25.2397582 L11.3758979,26.8165734 C11.3758979,27.8045059 11.8001003,28.471491 12.6509829,28.8126936 C12.9243008,28.9353575 13.210819,29 13.5170308,29 C13.8210639,29 14.122961,28.9353575 14.4269941,28.8126936 C15.1859021,28.4424367 15.5643949,27.7755823 15.5643949,26.8165734 L15.5643949,25.2397582 C15.5622162,24.2785714 15.1554005,23.6117169 14.3351904,23.2414601 Z M13.4689716,27.7420414 C13.0445983,27.7420414 12.8303611,27.4498869 12.8303611,26.8611785 L12.8303611,25.1929752 C12.8303611,24.6353683 13.0445983,24.3566738 13.4689716,24.3566738 C13.8933449,24.3566738 14.1075821,24.6353683 14.1075821,25.1929752 L14.1075821,26.8611785 C14.1075821,27.4498869 13.8954809,27.7420414 13.4689716,27.7420414 Z M13.7424604,20.2753104 L14.3811136,20.2753104 C14.5626706,20.2753104 14.7048403,20.2239536 14.8119803,20.114706 C14.9190775,20.0054585 14.9694862,19.8582705 14.9694862,19.6709205 L14.9694862,13.4529571 C14.9694862,13.2989738 14.9190775,13.1608026 14.8119803,13.0335214 C14.707019,12.9132532 14.5626706,12.8485672 14.3811136,12.8485672 L12.5613579,12.8485672 C12.3776222,12.8485672 12.2332738,12.9110317 12.1281417,13.0335214 C12.0231804,13.1608026 11.9708066,13.2967523 11.9708066,13.4529571 L11.9708066,13.8722186 C11.9708066,14.0238497 12.0231804,14.1599735 12.1281417,14.2669995 C12.2332738,14.3762471 12.3776222,14.4274297 12.5613579,14.4274297 C12.7100209,14.4274297 12.847876,14.4876726 12.9703522,14.6147796 C13.0928284,14.7396651 13.1519091,14.875789 13.1519091,15.0319938 L13.1519091,19.673142 C13.1519091,19.8247731 13.2043257,19.9652965 13.309287,20.0924035 C13.4165551,20.2104937 13.5609035,20.2753104 13.7424604,20.2753104 Z M3.14090282,12.8485672 L1.32118977,12.8485672 C1.13963284,12.8485672 0.995284402,12.9110317 0.888144455,13.0335214 C0.78083363,13.1608026 0.728459796,13.2967523 0.728459796,13.4529571 L0.728459796,13.8722186 C0.728459796,14.0238497 0.78083363,14.1599735 0.885794894,14.2669995 C0.993105719,14.3762471 1.12861127,14.4274297 1.29713882,14.4274297 C1.46335952,14.4274297 1.60770796,14.4876726 1.73018413,14.6147796 C1.85048161,14.7396651 1.91174106,14.8780105 1.91174106,15.0319938 L1.91174106,19.673142 C1.91174106,19.8247731 1.96415761,19.9652965 2.06911888,20.0924035 C2.17638698,20.215111 2.3053992,20.2797535 2.45624097,20.2797535 L3.13876686,20.2797535 C3.28960863,20.2797535 3.42528505,20.215111 3.54776122,20.0924035 C3.67023739,19.9652965 3.72931815,19.8269511 3.72931815,19.673142 L3.72931815,13.4507356 C3.72931815,13.2989738 3.67023739,13.1584504 3.54776122,13.0335214 C3.42528505,12.9086359 3.28960863,12.8485672 3.14090282,12.8485672 Z M8.64622153,13.2678287 C8.28310767,13.1116238 7.93315135,13.0335214 7.59840309,13.0335214 C7.2660044,13.0335214 6.9160908,13.0959859 6.55079826,13.2186498 C5.5206656,13.6557708 5.00440314,14.4743869 5.00440314,15.6809888 L5.00440314,17.5833251 C5.00440314,18.7587382 5.5206656,19.5615423 6.55297694,19.9964416 C6.88768248,20.1480292 7.23546011,20.2283531 7.60075265,20.2283531 C7.99658948,20.2283531 8.35970333,20.1504249 8.69428071,19.9964416 C9.6347456,19.5303971 10.1049994,18.7251973 10.1049994,17.5833251 L10.1049994,15.6809888 C10.100642,14.5033541 9.6172307,13.6981543 8.64622153,13.2678287 Z M7.57653082,18.6716189 C7.04506029,18.6850789 6.78041437,18.3416983 6.78041437,17.625665 L6.78041437,15.6318099 C6.78041437,14.9494919 7.04506029,14.6103801 7.57653082,14.6103801 C8.10804407,14.6103801 8.37268999,14.9494919 8.37268999,15.6318099 L8.37268999,17.625665 C8.37268999,18.3103789 8.10804407,18.6583333 7.57653082,18.6716189 Z M32.5351404,14.264778 C30.8967707,12.6098604 28.9392025,11.7824016 26.6645719,11.7824016 L24.4795236,11.7824016 C24.2060348,8.6600471 22.979009,5.98383036 20.7961821,3.75584225 C18.3399518,1.25116334 15.367459,0 11.878832,0 C9.2389515,0 6.82646575,0.758242534 4.64359612,2.27259318 C2.55035153,3.78920893 1.03467158,5.76742611 0.0919852838,8.21186204 C-0.0306617613,8.49055657 -0.0306617613,8.7694689 0.0919852838,9.04816344 C0.214504171,9.32690153 0.417719773,9.52104681 0.706587526,9.62807283 C0.995284402,9.73727683 1.27513839,9.72843423 1.5486272,9.6057703 C1.82194514,9.48088483 2.01670232,9.27789694 2.13917849,9.00138039 C2.89812917,6.98962229 4.15582741,5.36602409 5.91650243,4.12814643 C7.70571392,2.86151942 9.69600505,2.22581013 11.878832,2.22581013 C14.7593928,2.22581013 17.2244233,3.26292144 19.2717874,5.33470471 C21.3211593,7.40888376 22.3425772,9.93129144 22.3425772,12.8997933 C22.3425772,13.2098072 22.4497171,13.4730381 22.6619465,13.6893117 C22.8762264,13.9055852 23.1322003,14.015007 23.4362334,14.015007 L26.6688865,14.015007 C28.3378005,14.015007 29.7814131,14.6326391 30.9930599,15.8705167 C32.2070564,17.1104417 32.8149517,18.5824524 32.8149517,20.304234 C32.8149517,22.0214419 32.2157284,23.4934525 31.0170682,24.7335517 C29.8207575,25.9712551 28.3704808,26.589105 26.6732439,26.589105 L19.7507132,26.589105 L19.7507132,22.2244297 C19.7507132,22.0371233 19.6959898,21.8943348 19.5931645,21.7850873 C19.4860673,21.6758833 19.3417188,21.6244829 19.1601619,21.6244829 L17.3404061,21.6244829 C17.1588492,21.6244829 17.0145008,21.6758833 16.9073608,21.7850873 C16.8000927,21.8943348 16.7498548,22.0371233 16.7498548,22.2244297 L16.7498548,22.5946866 C16.7498548,22.7508915 16.8000927,22.8912842 16.9073608,23.0139481 C17.0123221,23.1366556 17.1588492,23.1968986 17.3404061,23.1968986 C17.4912479,23.1968986 17.629103,23.2480811 17.7494005,23.3575029 C17.8740553,23.4667505 17.9331361,23.6094954 17.9331361,23.7968454 L17.9331361,28.3934321 C17.9331361,28.5807385 17.983374,28.723527 18.0906848,28.832731 C18.197782,28.9419786 18.3399518,28.9956005 18.5236874,28.9956005 L19.1601619,28.9956005 C19.3417188,28.9956005 19.4947393,28.9353575 19.6150368,28.8082505 L26.6688865,28.8082505 C28.9458667,28.8082505 30.9034349,27.9763486 32.5394551,26.3035716 C34.1776539,24.6353683 34.9956426,22.6236102 35,20.2753104 C34.9978213,17.9222626 34.1776539,15.9172998 32.5351404,14.264778 Z" id="Fill-1"></path>
                    </g>
                </g>
            </g>
        </g>
    </g>
</svg>