<?xml version="1.0" encoding="UTF-8"?>
<svg width="50px" height="50px" viewBox="0 0 50 50" version="1.1" xmlns="http://www.w3.org/2000/svg" xmlns:xlink="http://www.w3.org/1999/xlink">
    <!-- Generator: Sketch 49.3 (51167) - http://www.bohemiancoding.com/sketch -->
    <title>Group 19</title>
    <desc>Created with Sketch.</desc>
    <defs>
        <polygon id="path-1" points="0 0 30 0 30 30 0 30"></polygon>
    </defs>
    <g id="Page-1" stroke="none" stroke-width="1" fill="none" fill-rule="evenodd">
        <g id="enterprise" transform="translate(-392.000000, -3148.000000)">
            <g id="Group-17" transform="translate(-1.000000, 2866.000000)">
                <g id="Group-19" transform="translate(393.000000, 282.000000)">
                    <rect id="Rectangle-9" fill="#5E8DD4" x="0" y="0" width="50" height="50" rx="8"></rect>
                    <g id="地图-(1)" transform="translate(10.000000, 9.000000)">
                        <mask id="mask-2" fill="white">
                            <use xlink:href="#path-1"></use>
                        </mask>
                        <g id="Clip-2"></g>
                        <path d="M29.9773968,9.43001322 C29.9773968,9.12204725 29.9974146,8.80984257 29.95715,8.50686887 C29.7891285,7.23949402 28.9129253,6.68332793 27.7772233,7.18114109 C27.1203456,7.46909091 26.5230634,7.89866081 25.892296,8.2518868 C25.147056,8.66930573 24.6406555,9.2302286 24.8433989,10.1741897 C25.0300182,11.0421837 25.6486008,11.3264129 26.446107,11.3550949 C26.6017605,11.3608407 26.7535203,11.4783943 26.9099066,11.5455072 L26.9099066,23.0347712 C24.4647553,24.3174054 22.0774128,25.5697093 19.7406875,26.7953093 C17.3774855,25.5220473 15.1594471,24.3032293 12.9209328,23.1256209 C9.14668077,21.1403967 10.4317606,21.159518 6.7747296,23.1154951 C5.61823105,23.7340174 4.47487922,24.3779248 2.97844422,25.2010355 C2.97844422,21.663595 3.00006529,18.5287379 2.9684124,15.3943989 C2.95462439,14.0166291 2.8663994,12.7411536 4.46842038,12.0543881 C5.27453839,11.7086976 5.38887357,10.6630074 4.95315392,9.99004125 C4.47895607,9.25763893 3.78167636,9.13787178 3.05430121,9.46076743 C2.39847717,9.75196693 1.80426403,10.1867175 1.16529709,10.5226589 C0.322120923,10.9660282 -0.00462301228,11.6481782 4.93389618e-05,12.6182781 C0.0238691688,17.4852612 -0.0103489329,22.3529508 0.0204336164,27.219934 C0.0334887155,29.2809841 0.979364997,29.8058308 2.8154158,28.8171748 C4.77849043,27.7602756 6.74463416,26.7046008 8.66016074,25.5616086 C9.48341071,25.0702006 10.1263171,25.0536697 10.9685771,25.5354699 C13.4275165,26.94211 15.9569533,28.2181506 18.4248251,29.6091546 C19.3674491,30.1406891 20.1590462,30.1244878 21.1075793,29.5946488 C23.527674,28.243159 25.9823075,26.9529893 28.4612646,25.7192887 C29.5823083,25.1612858 30.0156918,24.3900758 29.9995676,23.1072532 C29.9428581,18.5489895 29.9781297,13.9892188 29.9773968,9.43001322 Z" id="Fill-1" fill="#FFFFFF" mask="url(#mask-2)"></path>
                        <path d="M13.1939423,18.3468014 C14.1161017,19.2267527 14.7168368,19.2141827 15.6493778,18.3300263 C17.7609558,16.3275843 19.6509085,14.1268696 20.8241227,11.4334798 C21.3571516,10.2100215 21.6165117,8.86692126 22,7.57812563 C21.843102,3.74284746 19.2852495,0.708075812 15.5430339,0.0960753622 C11.977351,-0.486986758 8.49593988,1.63378584 7.37102282,5.10023597 C6.74090316,7.04186222 6.95228212,8.95559011 7.71167562,10.8137022 C8.92054845,13.7714707 10.9155813,16.1723573 13.1939423,18.3468014 Z M14.6277805,3.0353053 C17.1636059,3.14445706 19.1408095,5.39888857 18.8081009,7.95256049 C18.4692536,10.5531668 17.0775287,12.6889511 15.4684667,14.6701415 C14.9120114,15.3554373 14.0929913,15.3099046 13.4235117,14.7565043 C11.9865139,13.5690833 10.0190149,9.40494811 10.0094909,7.53078434 C9.99590452,4.91670366 12.0432969,2.92402838 14.6277805,3.0353053 Z" id="Fill-3" fill="#FFFFFF" mask="url(#mask-2)"></path>
                    </g>
                </g>
            </g>
        </g>
    </g>
</svg>