<?xml version="1.0" encoding="UTF-8"?>
<svg width="50px" height="50px" viewBox="0 0 50 50" version="1.1" xmlns="http://www.w3.org/2000/svg" xmlns:xlink="http://www.w3.org/1999/xlink">
    <!-- Generator: Sketch 49.3 (51167) - http://www.bohemiancoding.com/sketch -->
    <title>Group 24</title>
    <desc>Created with Sketch.</desc>
    <defs></defs>
    <g id="Page-1" stroke="none" stroke-width="1" fill="none" fill-rule="evenodd">
        <g id="enterprise" transform="translate(-750.000000, -3501.000000)">
            <g id="Group-17" transform="translate(-1.000000, 2866.000000)">
                <g id="Group-24" transform="translate(751.000000, 635.000000)">
                    <rect id="Rectangle-9-Copy-5" fill="#5E8DD4" x="0" y="0" width="50" height="50" rx="8"></rect>
                    <path d="M24.6537498,24.2482389 C26.5245677,24.2482389 28.0483741,22.7844014 28.0483741,20.9833289 C28.0483741,19.1823915 26.5245677,17.7184527 24.6537498,17.7184527 C22.782762,17.7184527 21.2591255,19.1823915 21.2591255,20.9833289 C21.2591255,22.7844014 22.7823883,24.2482389 24.6537498,24.2482389 Z M24.6537498,19.3218625 C25.595342,19.3218625 26.3576189,20.0742361 26.3576189,21.0023323 C26.3576189,21.9292472 25.595342,22.6829035 24.6537498,22.6829035 C23.7132108,22.6829035 22.9497108,21.9292472 22.9497108,21.0023323 C22.9497108,20.0742361 23.7132108,19.3218625 24.6537498,19.3218625 Z M21.3679446,29.1871043 C21.4169012,29.2564685 21.4650765,29.3120949 21.5044865,29.3521945 C22.6497874,30.7293521 23.8042614,31.6456008 23.8540334,31.6843502 L24.6582684,32.3194967 L25.4591738,31.6793546 C25.5089459,31.6405714 26.6596827,30.7136903 27.8028433,29.3414945 C27.8418795,29.3002473 27.8916176,29.2427307 27.9403364,29.1722189 C29.5749324,27.0583831 31.6070253,23.9948149 32.0664571,21.3428751 C32.1548577,20.7382084 32.1573718,20.3722152 32.1573718,20.3321156 C32.1727621,18.3502575 31.3768848,16.487753 29.9175952,15.0936847 C28.5043745,13.7432601 26.634338,13 24.6537498,13 C22.6806019,13 20.8154577,13.7432601 19.402203,15.0936847 C17.9350994,16.4952464 17.1341939,18.3672694 17.1495842,20.3635067 C17.1495842,20.3952691 17.1519624,20.7626124 17.2371694,21.3382846 C17.7303375,24.1761069 20.024099,27.4570838 21.3679446,29.1871043 Z M24.6537498,15.0647914 C27.7471257,15.0647914 30.2793854,17.520385 30.2569285,20.5714305 C30.2569285,20.5714305 30.2569285,20.8475371 30.1896598,21.305307 C29.8195459,23.4418254 28.0719861,26.0884659 26.6708262,27.896154 C26.6596827,27.9176553 26.6372598,27.9382114 26.6263541,27.9494176 C25.6510596,29.1289464 24.6537498,29.9266515 24.6537498,29.9266515 C24.6537498,29.9266515 23.6558965,29.1396464 22.6809756,27.9600839 C22.6701039,27.9494176 22.647681,27.9275451 22.6361298,27.9068203 C21.2349699,26.1103721 19.4874101,23.4524916 19.1177039,21.3258969 C19.0504012,20.8694096 19.0504012,20.5921216 19.0504012,20.5921216 C19.0275706,17.5413461 21.560238,15.0647914 24.6537498,15.0647914 Z M16.5604733,38.9999939 L35.0855317,38.9999939 C36.6793927,38.9999939 38,37.7977826 38,36.2774073 C38,34.756897 36.6793927,33.5551919 35.0855317,33.5551919 L13.9139587,33.5551919 C13.315403,33.5551919 12.8584853,33.1392093 12.8584853,32.6645287 C12.8584853,32.1894768 13.315403,31.7734942 13.9139587,31.7734942 L17.2221869,31.7734942 C17.4676837,31.7745405 17.7036338,31.6786796 17.877887,31.5069061 C18.0521402,31.335234 18.1506311,31.1015897 18.1514125,30.8576506 C18.1504952,30.6138802 18.0520043,30.3803709 17.8777511,30.2085638 C17.7034979,30.0368916 17.4676837,29.9408956 17.2221869,29.941942 L13.9139587,29.941942 C12.3206073,29.941942 11,31.1437821 11,32.6645287 C11,34.184904 12.3206073,35.3867441 13.9139587,35.3867441 L35.0855317,35.3867441 C35.684563,35.3867441 36.1415147,35.8023216 36.1415147,36.2774073 C36.1415147,36.7523241 35.684563,37.1679017 35.0855317,37.1679017 L16.5604733,37.1679017 C16.049265,37.166079 15.633354,37.576256 15.6312136,38.0841504 C15.6334899,38.5919097 16.0494009,39.0018167 16.5604733,38.9999939 Z" id="Fill-1" fill="#FFFFFF"></path>
                </g>
            </g>
        </g>
    </g>
</svg>