<?xml version="1.0" encoding="UTF-8"?>
<svg width="50px" height="50px" viewBox="0 0 50 50" version="1.1" xmlns="http://www.w3.org/2000/svg" xmlns:xlink="http://www.w3.org/1999/xlink">
    <!-- Generator: Sketch 49.3 (51167) - http://www.bohemiancoding.com/sketch -->
    <title>Group 29</title>
    <desc>Created with Sketch.</desc>
    <defs></defs>
    <g id="Page-1" stroke="none" stroke-width="1" fill="none" fill-rule="evenodd">
        <g id="enterprise" transform="translate(-750.000000, -3931.000000)">
            <g id="Group-17" transform="translate(-1.000000, 2866.000000)">
                <g id="Group-29" transform="translate(751.000000, 1065.000000)">
                    <rect id="Rectangle-9-Copy-9" fill="#5E8DD4" x="0" y="0" width="50" height="50" rx="8"></rect>
                    <g id="共享图标_批量解挂---" transform="translate(10.000000, 12.000000)" fill="#FFFFFF">
                        <path d="M21.5000922,11 C16.8061029,11 13,14.8061029 13,19.5000922 C13,24.1938971 16.8061029,28 21.5000922,28 C26.1938971,28 30,24.1938971 30,19.5000922 C30,14.8061029 26.1938971,11 21.5000922,11 Z M21.5000922,26.1111521 C17.8545077,26.1111521 14.8890324,23.1454923 14.8890324,19.5000922 C14.8890324,15.8545077 17.8545077,12.8888479 21.5000922,12.8888479 C25.1456399,12.8888479 28.1111521,15.8545077 28.1111521,19.5000922 C28.1111521,23.1454923 25.1456399,26.1111521 21.5000922,26.1111521 Z" id="Fill-1"></path>
                        <polygon id="Fill-3" points="20.5244047 21.2613198 18.3150797 18.9845371 17 20.3685161 20.5207145 24 26 18.3918601 24.6886471 17"></polygon>
                        <path d="M22.4130521,5.57149334 L22.3999271,5.57149334 L22.3999271,0 L0,0 L0,20.4285067 L5.60007292,20.4285067 L5.60007292,26 L13.5538229,26 C13.0815781,25.4298362 12.676526,24.8058443 12.3330156,24.142896 L7.46670313,24.142896 L7.46670313,7.42859734 L20.5332969,7.42859734 L20.5332969,5.57149334 L5.60007292,5.57149334 L5.60007292,18.5714027 L1.86663021,18.5714027 L1.86663021,1.85710399 L20.5332969,1.85710399 L20.5332969,7.42859734 L26.1333698,7.42859734 L26.1333698,10.412971 C26.7997187,10.7528784 27.4269115,11.1558633 28,11.6275117 L28,5.57149334 L22.4130521,5.57149334 Z" id="Fill-4"></path>
                    </g>
                </g>
            </g>
        </g>
    </g>
</svg>