<?xml version="1.0" encoding="UTF-8"?>
<svg width="50px" height="50px" viewBox="0 0 50 50" version="1.1" xmlns="http://www.w3.org/2000/svg" xmlns:xlink="http://www.w3.org/1999/xlink">
    <!-- Generator: Sketch 50.2 (55047) - http://www.bohemiancoding.com/sketch -->
    <title>Group 25 Copy</title>
    <desc>Created with Sketch.</desc>
    <defs></defs>
    <g id="Page-1" stroke="none" stroke-width="1" fill="none" fill-rule="evenodd">
        <g id="enterprise" transform="translate(-1106.000000, -3841.000000)">
            <g id="Group-17" transform="translate(-1.000000, 2866.000000)">
                <g id="Group-25-Copy" transform="translate(1107.000000, 975.000000)">
                    <rect id="Rectangle-9-Copy-6" fill="#5E8DD4" x="0" y="0" width="50" height="50" rx="8"></rect>
                    <g id="Group-30" transform="translate(8.000000, 13.000000)" fill="#FFFFFF">
                        <polygon id="Fill-1" points="21.1439661 8.66036735 21.1439661 18.2103284 24.5352453 19.927668 26.2519217 18.8806324 23.0698657 17.4146108 23.0698657 9.83318466 26.5868341 8.24142222 33.0348481 11.2992063 33.0348481 9.33050777 26.5868341 6.23087827"></polygon>
                        <polygon id="Fill-2" points="24.2003329 12.8489597 24.2003329 10.7127976 26.5868341 9.66559843 34.9607068 13.6029546 34.9607068 20.1371815 29.4339778 23.1110702 28.3035105 21.8545211 33.1185047 18.9224779 33.1185047 14.6500311 26.5868341 11.634256"></polygon>
                        <g id="Group-7">
                            <polygon id="Fill-3" points="19.8877687 12.3043965 18.0456075 13.393482 18.0456075 20.0952952 24.3678914 23.1110702 31.7786507 18.6292735 31.7786507 15.1108625 30.104007 14.4407221 30.104007 17.8752787 24.3678914 21.1843807 19.8877687 18.8806324"></polygon>
                            <path d="M16.5801869,23.1110702 L5.4849007,23.1110702 C2.3446729,22.4827752 0,19.7602454 0,16.4511025 C0,12.8908051 2.80527453,9.91691642 6.36411215,9.70744385 C6.44780958,4.34607512 10.8440713,0.0317419862 16.2034054,0.0317419862 C20.4739369,0.0317419862 23.4467699,1.53960905 25.3726694,5.18380177 L23.1955549,6.14714651 C21.7719626,3.25698958 19.511028,2.20974946 16.2034054,2.20974946 C11.9745386,2.20974946 8.54126752,5.64446962 8.54126752,9.87507099 C8.54126752,10.1682753 8.54126752,10.4195933 8.58325935,10.7127976 L8.75065421,12.0530785 L7.41075935,11.8856149 C7.24336449,11.8856149 7.0339778,11.8437695 6.86662383,11.8437695 C4.31256425,11.8437695 2.21910631,13.8961589 2.21910631,16.4511025 C2.21910631,18.9224779 4.18683411,20.9330627 6.65719626,21.0586399 L16.6220152,21.0586399 L16.6220152,23.1110702 L16.5801869,23.1110702 Z" id="Fill-5"></path>
                            <path d="M16.5801869,23.1110702 L5.4849007,23.1110702 C2.3446729,22.4827752 0,19.7602454 0,16.4511025 C0,12.8908051 2.80527453,9.91691642 6.36411215,9.70744385 C8.54126752,9.87507099 8.70878505,12.0530785 8.70878505,12.0530785 L7.36893107,11.8856149 C7.20153621,11.8856149 6.99214953,11.8437695 6.82459112,11.8437695 C4.27069509,11.8437695 2.17711449,13.8961589 2.17711449,16.4511025 C2.17711449,18.9224779 4.14500584,20.9330627 6.61536799,21.0586399 L16.5801869,21.0586399 L16.5801869,23.1110702 Z" id="Fill-6"></path>
                        </g>
                    </g>
                </g>
            </g>
        </g>
    </g>
</svg>