<?xml version="1.0" encoding="UTF-8"?>
<svg width="43px" height="43px" viewBox="0 0 43 43" version="1.1" xmlns="http://www.w3.org/2000/svg" xmlns:xlink="http://www.w3.org/1999/xlink">
    <!-- Generator: Sketch 49.3 (51167) - http://www.bohemiancoding.com/sketch -->
    <title>建筑</title>
    <desc>Created with Sketch.</desc>
    <defs></defs>
    <g id="Page-1" stroke="none" stroke-width="1" fill="none" fill-rule="evenodd">
        <g id="solutions" transform="translate(-1516.000000, -1509.000000)" fill="#FFFFFF">
            <g id="section-1" transform="translate(0.000000, 386.000000)">
                <g id="Group-4" transform="translate(0.000000, 860.000000)">
                    <g id="建筑" transform="translate(1516.000000, 263.000000)">
                        <path d="M40.5629945,29 C40.8026218,29 41,28.7846054 41,28.521611 L41,26.3256262 C41,26.1105305 40.8684929,25.923899 40.6850998,25.8664326 L29.5581761,22.417248 C29.5205103,22.4030159 29.4782611,22.3981124 29.4406541,22.3981124 L24.4764662,22.3981124 C24.2366038,22.3981124 24.0392256,22.6134473 24.0392256,22.8765014 L24.0392256,28.521611 C24.0392256,28.7846054 24.2366038,29 24.4764662,29 L40.5629945,29 Z M16.1606686,2.93246467 C16.4002959,2.93246467 16.5976741,2.71730923 16.5976741,2.45407569 L16.5976741,0.478388984 C16.5976741,0.21539464 16.4002959,0 16.1606686,0 L8.43700554,0 C8.19737819,0 8,0.21539464 8,0.478388984 L8,2.45407569 C8,2.71730923 8.19737819,2.93246467 8.43700554,2.93246467 L16.1606686,2.93246467 Z" id="Fill-1"></path>
                        <path d="M43,42.5171607 L43,41.2697958 C43,41.0070481 42.7984378,40.7918554 42.5535637,40.7918554 L41.5937436,40.7918554 L41.5937436,30.630961 C41.5937436,30.3679743 41.3922414,30.1530206 41.1476072,30.1530206 L23.6740225,30.1530206 C23.4291484,30.1530206 23.2275862,29.9378279 23.2275862,29.6750802 L23.2275862,10.3805647 C23.2275862,10.1175779 23.0260839,9.90262423 22.7814498,9.90262423 L20.3961769,9.90262423 C20.1515428,9.90262423 19.9498006,9.68743154 19.9498006,9.42468379 L19.9498006,4.47794044 C19.9498006,4.21519269 19.7482384,4 19.5036042,4 L5.07750826,4 C4.83263416,4 4.63107194,4.21519269 4.63107194,4.47794044 L4.63107194,9.42468379 C4.63107194,9.68743154 4.42956971,9.90262423 4.18493557,9.90262423 L1.93883658,9.90262423 C1.69396248,9.90262423 1.49246025,10.1175779 1.49246025,10.3805647 L1.49246025,40.7965153 L0.44637633,40.7965153 C0.20150223,40.7965153 0,41.011708 0,41.2744558 L0,42.5220596 C0,42.7848073 0.20150223,43 0.44637633,43 L42.5535637,43 C42.8031769,42.9904412 43,42.7801474 43,42.5171607 Z M19.5610134,32.3609262 C19.5610134,32.623913 19.3595112,32.8388667 19.1148771,32.8388667 L5.47091452,32.8388667 C5.22628038,32.8388667 5.02477815,32.623913 5.02477815,32.3609262 L5.02477815,30.8362962 C5.02477815,30.5735484 5.22628038,30.3583558 5.47091452,30.3583558 L19.1195562,30.3583558 C19.3644303,30.3583558 19.5659325,30.5735484 19.5659325,30.8362962 L19.5659325,32.3609262 L19.5610134,32.3609262 Z M19.5610134,28.5997142 C19.5610134,28.8624619 19.3595112,29.0776546 19.1148771,29.0776546 L5.47091452,29.0776546 C5.22628038,29.0776546 5.02477815,28.8624619 5.02477815,28.5997142 L5.02477815,27.0748452 C5.02477815,26.8120974 5.22628038,26.5969047 5.47091452,26.5969047 L19.1195562,26.5969047 C19.3644303,26.5969047 19.5659325,26.8120974 19.5659325,27.0748452 L19.5659325,28.5997142 L19.5610134,28.5997142 Z M19.5610134,24.8382631 C19.5610134,25.1010109 19.3595112,25.3162036 19.1148771,25.3162036 L5.47091452,25.3162036 C5.22628038,25.3162036 5.02477815,25.1010109 5.02477815,24.8382631 L5.02477815,23.3136331 C5.02477815,23.0506464 5.22628038,22.8356927 5.47091452,22.8356927 L19.1195562,22.8356927 C19.3644303,22.8356927 19.5659325,23.0506464 19.5659325,23.3136331 L19.5659325,24.8382631 L19.5610134,24.8382631 Z M19.5610134,21.0768121 C19.5610134,21.3395598 19.3595112,21.5547525 19.1148771,21.5547525 L5.47091452,21.5547525 C5.22628038,21.5547525 5.02477815,21.3395598 5.02477815,21.0768121 L5.02477815,19.5521821 C5.02477815,19.2891953 5.22628038,19.0742416 5.47091452,19.0742416 L19.1195562,19.0742416 C19.3644303,19.0742416 19.5659325,19.2891953 19.5659325,19.5521821 L19.5659325,21.0768121 L19.5610134,21.0768121 Z M19.5610134,17.315361 C19.5610134,17.5783478 19.3595112,17.7933015 19.1148771,17.7933015 L5.47091452,17.7933015 C5.22628038,17.7933015 5.02477815,17.5783478 5.02477815,17.315361 L5.02477815,15.7907908 C5.02477815,15.5279833 5.22628038,15.3128503 5.47091452,15.3128503 L19.1195562,15.3128503 C19.3644303,15.3128503 19.5659325,15.5279833 19.5659325,15.7907908 L19.5659325,17.315361 L19.5610134,17.315361 Z M36.5066971,40.7918554 L28.6026987,40.7918554 L28.6026987,36.5669216 C28.6026987,36.3039349 28.8042009,36.0889812 29.048835,36.0889812 L36.0651799,36.0889812 C36.310054,36.0889812 36.5116162,36.3039349 36.5116162,36.5669216 L36.5066971,40.7918554 Z" id="Fill-3"></path>
                    </g>
                </g>
            </g>
        </g>
    </g>
</svg>