<?xml version="1.0" encoding="UTF-8"?>
<svg width="40px" height="32px" viewBox="0 0 40 32" version="1.1" xmlns="http://www.w3.org/2000/svg" xmlns:xlink="http://www.w3.org/1999/xlink">
    <!-- Generator: Sketch 49.3 (51167) - http://www.bohemiancoding.com/sketch -->
    <title>高速</title>
    <desc>Created with Sketch.</desc>
    <defs></defs>
    <g id="Page-1" stroke="none" stroke-width="1" fill="none" fill-rule="evenodd">
        <g id="solutions" transform="translate(-940.000000, -519.000000)" fill="#384A58">
            <g id="section-1" transform="translate(0.000000, 386.000000)">
                <g id="Group-3">
                    <g id="高速" transform="translate(940.000000, 133.000000)">
                        <path d="M6.51450995,3.86840358 C6.81537947,2.98943467 7.10118562,2.2934506 7.37226946,1.78045138 C7.64318277,1.26794999 7.9371743,0.886768448 8.25333456,0.637625844 C8.56022943,0.392797876 8.9252746,0.226463104 9.31493275,0.154054652 C9.70618249,0.0810377254 10.187983,0.0293727182 10.7599932,0 L16,0 L10.7599932,32 L3.84960065,32 C1.98219738,32 0.800490126,31.3627614 0.303569408,30.0877309 C-0.19335131,28.813309 -0.0801202333,27.0038721 0.642637365,24.6594203 C0.941460542,23.703507 1.22749406,22.7436663 1.50079477,21.7806173 C1.83144998,20.6230778 2.18535394,19.3774201 2.56193822,18.0444186 C2.9496637,16.6699303 3.32602061,15.2926762 3.69129315,13.912601 C4.06742268,12.491426 4.43621948,11.1361876 4.79768355,9.84688572 C5.1243029,8.68265295 5.44808012,7.51775639 5.7689015,6.35225136 C6.05493502,5.31181547 6.30362276,4.48423498 6.51411205,3.86884611 L6.51450995,3.86840358 Z M20.9995863,5 L18,5 L18.2462764,0 L20.7119363,0 L21,5 L20.9995863,5 Z M22,19 L18,19 L18.4357003,8 L21.5642997,8 L22,19 Z M22.4843188,21 L23,32 L17,32 L17.5156812,21.0004557 L22.4843188,21.0004557 L22.4843188,21 Z M39.4270059,25.1868427 C39.6328561,25.8316265 39.7941082,26.5494852 39.9117607,27.3408058 C40.0294131,28.1318499 40.0294131,28.8723888 39.9117607,29.5608737 C39.7941082,30.2495246 39.5223593,30.8282038 39.0965694,31.2968559 C38.6703913,31.7657846 38.0309299,32 37.1789619,32 L29.1567945,32 L24,0 L28.1433525,0 C29.6124829,0 30.8471404,0.322170669 31.8459937,0.96695455 C32.8451244,1.61157248 33.609172,2.769318 34.1380811,4.43969326 C34.3144211,4.96714816 34.5348046,5.7874 34.7991759,6.90133385 L35.7690183,10.6814734 C36.1215874,12.0882042 36.4814786,13.5532952 36.8489692,15.0770784 C37.2162379,16.6006956 37.5616513,18.0363576 37.8847102,19.3845622 L38.8103428,22.9890678 C39.0747141,24.0439776 39.2805643,24.7767168 39.4274496,25.1868427 L39.4270059,25.1868427 Z" id="Fill-1"></path>
                    </g>
                </g>
            </g>
        </g>
    </g>
</svg>