<?xml version="1.0" encoding="UTF-8"?>
<svg width="53px" height="49px" viewBox="0 0 53 49" version="1.1" xmlns="http://www.w3.org/2000/svg" xmlns:xlink="http://www.w3.org/1999/xlink">
    <!-- Generator: Sketch 49.3 (51167) - http://www.bohemiancoding.com/sketch -->
    <title>基站</title>
    <desc>Created with Sketch.</desc>
    <defs></defs>
    <g id="Page-1" stroke="none" stroke-width="1" fill="none" fill-rule="evenodd">
        <g id="solutions" transform="translate(-370.000000, -2504.000000)" fill="#384A58">
            <g id="section-1" transform="translate(0.000000, 386.000000)">
                <g id="Group-3-Copy" transform="translate(0.000000, 1836.000000)">
                    <g id="基站" transform="translate(370.000000, 282.000000)">
                        <path d="M4.4416214,13.9173441 C4.43292144,10.1596803 5.87080134,6.54886854 8.44514222,3.86471065 C9.00817583,3.2873709 9.22436595,2.44550886 9.01117847,1.6601223 C8.79791399,0.874499761 8.18830096,0.266719892 7.41454357,0.0682691851 C6.64070919,-0.130260178 5.82237413,0.111294368 5.27112011,0.700589927 C-1.83459041,8.13026032 -1.74497313,20.0243244 5.47198907,27.3412011 C6.34052212,28.2233354 7.74475704,28.2190093 8.60790073,27.3316837 C9.47135239,26.4440435 9.4671179,25.0098183 8.59858485,24.1276841 C5.92854443,21.4318063 4.43053472,17.7527992 4.4416214,13.9173441 Z M37.5124742,5.33952268 C36.6298518,6.20655484 36.6021351,7.64046541 37.4508815,8.54226381 C40.3247935,11.6016139 40.2640478,16.4509531 37.3142999,19.4340849 C36.7317876,19.9991543 36.4935781,20.8415669 36.6920603,21.6367855 C36.8905426,22.4316109 37.4941503,23.0550434 38.2703714,23.2661579 C39.0462846,23.4771936 39.8736275,23.2431115 40.4327346,22.6540519 C45.1039195,17.929462 45.1998501,10.2496635 40.6480779,5.404965 C40.2408736,4.97140959 39.6817665,4.72096685 39.0935569,4.70869641 C38.5055783,4.69642598 37.9368474,4.92319307 37.5124742,5.33952268 Z" id="Fill-1"></path>
                        <path d="M47.7332338,0.684522561 C47.1821406,0.108741937 46.3634704,-0.127272785 45.5898456,0.0667034961 C44.8159127,0.260602924 44.2059141,0.854443939 43.9926994,1.62204897 C43.7794078,2.38942344 43.9957025,3.21197816 44.5590387,3.77607717 C49.9577807,9.29955945 49.8895582,18.1330886 44.4062696,23.5731089 C43.537549,24.4350122 43.5333909,25.8363448 44.3966445,26.7033972 C45.2601291,27.5706803 46.6642347,27.5749072 47.5331863,26.7130038 C54.7432901,19.5608586 54.8329187,7.94556812 47.7337728,0.683292918 L47.7332338,0.684522561 Z M15.7060727,22.1185942 C16.5675552,21.2498509 16.5603172,19.8484415 15.6898255,18.9883826 C12.7394711,16.074281 12.6781017,11.3361567 15.5520715,8.34635509 C16.4003099,7.46470062 16.3717427,6.06329115 15.488315,5.21675838 C14.6045793,4.37014875 13.2008586,4.39866111 12.3523122,5.28039243 C7.79996064,10.0140592 7.89590337,17.517652 12.5679908,22.1339647 C13.4384825,22.9937162 14.8425111,22.986492 15.7039937,22.1177488 L15.7060727,22.1185942 Z M29.312923,18.7590541 C31.4743294,17.318296 32.4395317,14.6378267 31.692087,12.1532549 C30.9443344,9.66875995 28.659342,7.96270628 26.0602643,7.94864223 C23.4611865,7.93480874 21.1574831,9.61626953 20.3832422,12.0923107 C19.6087703,14.5687361 20.5450974,17.2595037 22.6908727,18.7233176 L12.7325411,46.031243 C12.3177389,47.179807 12.9100274,48.4472622 14.0581062,48.8681846 C15.2094959,49.2818828 16.4796975,48.6895788 16.9005057,47.542475 L19.0090127,41.7632269 L32.9848499,41.7632269 L35.1408662,47.6838841 C35.5220191,48.7198588 36.6694818,49.2542158 37.7096057,48.8798662 L38.1105478,48.7339997 C39.1485157,48.353963 39.6839007,47.2083194 39.3088309,46.1701928 L29.312923,18.7590541 Z M25.9955838,22.6049951 L28.6770522,29.9588019 L23.3134994,29.9588019 L25.9955838,22.6049951 Z M20.4436876,37.8283673 L21.8784395,33.8935846 L30.111804,33.8935846 L31.5465559,37.8283673 L20.4436876,37.8283673 Z" id="Fill-3"></path>
                    </g>
                </g>
            </g>
        </g>
    </g>
</svg>