<?xml version="1.0" encoding="UTF-8"?>
<svg width="29px" height="31px" viewBox="0 0 29 31" version="1.1" xmlns="http://www.w3.org/2000/svg" xmlns:xlink="http://www.w3.org/1999/xlink">
    <!-- Generator: Sketch 49.3 (51167) - http://www.bohemiancoding.com/sketch -->
    <title>Group 60</title>
    <desc>Created with Sketch.</desc>
    <defs></defs>
    <g id="Page-1" stroke="none" stroke-width="1" fill="none" fill-rule="evenodd">
        <g id="home" transform="translate(-1574.000000, -761.000000)" fill="#384A58">
            <g id="QQ" transform="translate(1542.000000, 719.000000)">
                <g id="Group-60" transform="translate(32.000000, 42.000000)">
                    <path d="M1.87394958,24.6244219 C2.59105393,24.8578437 3.37438881,24.7159666 4.07902248,24.2200704 C4.09728883,24.247276 4.11491567,24.2740583 4.13318202,24.3006482 C2.92988084,25.0075707 2.25866222,25.9943992 2.25866222,27.0946679 C2.25866222,29.3576587 5.02363689,31 8.83375088,31 C10.8544015,31 12.7270827,30.4949454 13.9304239,29.6366412 C14.3215317,29.6578439 14.6703112,29.6578439 15.0658158,29.6372569 C16.2691169,30.4949454 18.1411586,31 20.1618492,31 C23.9713237,31 26.7375774,29.3576587 26.7375774,27.0946679 C26.7375774,25.996939 26.0688369,25.0129964 24.870532,24.3054583 C24.889238,24.2787144 24.9075044,24.2516627 24.9253311,24.2243032 C25.6280861,24.7165823 26.4063848,24.859075 27.1241287,24.6250375 C29.2720842,23.9224633 29.3891568,20.3147767 28.4094486,17.2770995 C27.8891972,15.6657349 26.9333512,14.4030792 26.1369061,13.5628223 C26.1462991,13.4464962 26.1512953,13.3305934 26.1512953,13.2136516 C26.1512953,12.3226006 25.9089563,11.4579857 25.4310333,10.637854 L25.4310333,10.6263099 C25.4310333,4.76721499 20.5301741,0 14.5065535,0 C8.48245328,0 3.58155407,4.76721499 3.58155407,10.6263099 L3.58155407,10.6638667 C3.11378347,11.4761869 2.87632085,12.3327979 2.87632085,13.2130359 C2.87632085,13.3191647 2.88007804,13.4263325 2.88895142,13.5356167 C2.082234,14.3805297 1.1151164,15.6530748 0.591147789,17.2770995 C-0.389199929,20.3159696 -0.272127377,23.9224633 1.87394958,24.6244219 Z M2.12827961,17.737209 C2.61571551,16.2247389 3.58155407,15.0602466 4.30573313,14.3503226 C4.48419983,14.1750446 4.56581886,13.9288474 4.52616848,13.6865366 C4.4996283,13.5228412 4.48575866,13.3663801 4.48575866,13.2142673 C4.48575866,12.5468641 4.6873281,11.889081 5.08343222,11.2616589 C5.16960785,11.124438 5.20989776,10.9650909 5.1992657,10.8051665 C5.19442931,10.7457914 5.19195116,10.6864162 5.1916314,10.6268871 C5.1916314,5.62263315 9.37023015,1.55125831 14.505914,1.55125831 C19.6415978,1.55125831 23.8201966,5.62263315 23.8201966,10.6268871 C23.8201966,10.680875 23.8177184,10.7330159 23.8139612,10.7857724 C23.8033292,10.9460046 23.8444185,11.1055057 23.9316733,11.2422648 C24.3359313,11.8751126 24.5406184,12.538283 24.5406184,13.2136516 C24.5406184,13.3725369 24.5260693,13.533077 24.4972109,13.7041221 C24.454243,13.9477797 24.5362217,14.1950544 24.7156477,14.3727182 C25.4308735,15.0776782 26.3868794,16.234359 26.8710377,17.737209 C27.7330738,20.4087072 27.4307796,22.8869571 26.6084339,23.1561657 C26.1821922,23.2950412 25.6772494,22.8573273 25.3629642,22.4959968 C25.1922917,22.2983232 24.9342044,22.1941569 24.6614482,22.2225554 C24.395247,22.2494532 24.1602625,22.4021817 24.0348762,22.6299084 C23.7476108,23.149547 23.4133405,23.6437887 23.0356226,24.1067457 C22.8805784,24.2974928 22.8267386,24.5469994 22.8901313,24.7813447 C22.9539636,25.0156901 23.1277538,25.207784 23.3599404,25.3009834 C24.4839408,25.7519346 25.1275001,26.4054848 25.1275001,27.0940907 C25.1275001,28.3926485 22.9002837,29.4485878 20.1624887,29.4485878 C18.3873747,29.4485878 16.7350489,28.9922493 15.8516288,28.2569283 C15.7053381,28.135138 15.5184377,28.0682592 15.3251421,28.0682592 C15.3056366,28.0682592 15.2848521,28.0688749 15.2653467,28.0706834 C14.709362,28.1108184 14.2754461,28.1100488 13.7352496,28.0700678 C13.5135353,28.0512893 13.3083685,28.1216314 13.147089,28.2561587 C12.2624298,28.9922493 10.610064,29.4485878 8.83435043,29.4485878 C6.09719498,29.4485878 3.86993866,28.3926485 3.86993866,27.0940907 C3.86993866,26.4029451 4.5172951,25.7477017 5.64501274,25.2972123 C5.87799871,25.2038974 6.05174893,25.0129964 6.11546133,24.7777276 C6.1797733,24.5435747 6.12637318,24.2937217 5.97120909,24.1029747 C5.59149272,23.6356693 5.25594336,23.1379645 4.97255504,22.6239055 C4.84704879,22.395717 4.61158467,22.2427191 4.34474399,22.2159368 C4.07402621,22.1885773 3.81454004,22.2917046 3.64262845,22.4893782 C3.32662449,22.8535947 2.82651805,23.300467 2.3921625,23.1549728 C1.56793816,22.8869571 1.26688304,20.4094768 2.12827961,17.737209 Z" id="Fill-1"></path>
                </g>
            </g>
        </g>
    </g>
</svg>