<?xml version="1.0" encoding="UTF-8"?>
<svg width="16px" height="16px" viewBox="0 0 16 16" version="1.1" xmlns="http://www.w3.org/2000/svg" xmlns:xlink="http://www.w3.org/1999/xlink">
    <!-- Generator: Sketch 49.3 (51167) - http://www.bohemiancoding.com/sketch -->
    <title>搜索</title>
    <desc>Created with Sketch.</desc>
    <defs></defs>
    <g id="Symbols" stroke="none" stroke-width="1" fill="none" fill-rule="evenodd">
        <g id="top" transform="translate(-1411.000000, -32.000000)" fill="#405A6C">
            <g id="nav">
                <g transform="translate(833.000000, 24.000000)">
                    <g id="搜索" transform="translate(578.000000, 8.000000)">
                        <path d="M12.5723298,11.571203 C13.5729382,10.3464054 14.1985333,8.80436972 14.1985333,7.10027579 C14.1985333,3.17961999 11.0193653,0 7.09926667,0 C3.17916809,0 0,3.17961999 0,7.10027579 C0,11.0209316 3.17916809,14.2005516 7.09926667,14.2005516 C8.80311841,14.2005516 10.3449349,13.5748675 11.5695584,12.5741169 L14.9949546,16 L16,14.9949227 L12.5723298,11.571203 Z M7.09926667,12.7805242 C3.96225048,12.7805242 1.4198256,10.2377379 1.4198256,7.10027579 C1.4198256,3.96281369 3.96225048,1.42002742 7.09926667,1.42002742 C10.2362829,1.42002742 12.7787077,3.96281369 12.7787077,7.10027579 C12.7787077,10.2377379 10.2362829,12.7805242 7.09926667,12.7805242 Z" id="Fill-1"></path>
                    </g>
                </g>
            </g>
        </g>
    </g>
</svg>