<?xml version="1.0" encoding="UTF-8"?>
<svg width="134px" height="95px" viewBox="0 0 134 95" version="1.1" xmlns="http://www.w3.org/2000/svg" xmlns:xlink="http://www.w3.org/1999/xlink">
    <!-- Generator: Sketch 49.3 (51167) - http://www.bohemiancoding.com/sketch -->
    <title>Group 9</title>
    <desc>Created with Sketch.</desc>
    <defs></defs>
    <g id="Page-1" stroke="none" stroke-width="1" fill="none" fill-rule="evenodd">
        <g id="support" transform="translate(-1323.000000, -977.000000)">
            <g id="section-2" transform="translate(424.000000, 866.000000)">
                <g id="Group-6" transform="translate(1.000000, 90.000000)">
                    <g id="Group-10" transform="translate(870.000000, 0.000000)">
                        <rect id="Rectangle-3-Copy-2" stroke="#CCCCCC" x="0.5" y="0.5" width="190" height="164" rx="5"></rect>
                        <g id="视频" transform="translate(71.000000, 42.000000)" fill="#000000">
                            <path d="M45.8044075,0 L3.19559247,0 C1.384867,0 0,1.38865784 0,3.20448429 L0,43.7955157 C0,45.6113422 1.384867,47 3.19559247,47 L45.8044075,47 C47.6151954,47 49,45.6113422 49,43.7955157 L49,3.20448429 C49,1.38865784 47.6151954,0 45.8044075,0 Z M36.5370084,2.13628113 L42.7153577,8.54556265 L34.5131352,8.54556265 L28.3347859,2.13628113 L36.5370084,2.13628113 Z M25.8847422,2.13628113 L32.0630915,8.54556265 L23.860869,8.54556265 L17.6827693,2.13628113 L25.8847422,2.13628113 Z M15.2327257,2.13628113 L21.4108253,8.54556265 L13.2086028,8.54556265 L7.03050317,2.13628113 L15.2327257,2.13628113 Z M2.13041579,3.20448429 C2.13041579,2.56370009 2.55658633,2.13628113 3.19559247,2.13628113 L4.58045948,2.13628113 L10.7588088,8.54556265 L2.13041579,8.54556265 L2.13041579,3.20448429 Z M46.8696466,43.7955157 C46.8696466,44.4362999 46.4434137,44.8636563 45.8044075,44.8636563 L3.19559247,44.8636563 C2.55658633,44.8636563 2.13041579,44.4362999 2.13041579,43.7955157 L2.13041579,10.6819064 L46.8696466,10.6819064 L46.8696466,43.7955157 Z M46.8696466,8.54556265 L45.1651517,8.54556265 L38.987052,2.13628113 L45.8044075,2.13628113 C46.4434137,2.13628113 46.8696466,2.56370009 46.8696466,3.20448429 L46.8696466,8.54556265 Z" id="Fill-1"></path>
                            <path d="M20.0857134,38 C20.6000994,38 21.2171216,37.8894519 21.7315076,37.5578075 L33.4571584,30.2629909 C35.5142805,29.0472205 35.5142805,25.9525205 33.4571584,24.7367501 L21.7315076,17.4419335 C21.2171216,17.1105481 20.7029766,17 20.0857134,17 C18.4401,17 17,17.8841908 17,19.7629909 L17,35.2367501 C17,37.1158092 18.4401,38 20.0857134,38 Z M19.0571222,20.2051834 C19.0571222,19.5418946 19.5715082,19.0999611 20.0857134,19.0999611 C20.2914678,19.0999611 20.4972222,19.0999611 20.6000994,19.2105093 L32.3256899,26.5053259 C32.737259,26.8367112 32.8401362,27.2789037 32.8401362,27.3894519 C32.8401362,27.6105481 32.8401362,28.0524816 32.3256899,28.2735779 L20.6000994,35.5683945 C20.394345,35.6789426 20.2914678,35.6789426 20.0857134,35.6789426 C19.5715082,35.6789426 19.0571222,35.2367501 19.0571222,34.5737203 L19.0571222,20.2051834 Z" id="Fill-2"></path>
                        </g>
                    </g>
                </g>
            </g>
            <g id="section-3" transform="translate(424.000000, 977.000000)"></g>
        </g>
    </g>
</svg>