<?xml version="1.0" encoding="UTF-8"?>
<svg width="54px" height="53px" viewBox="0 0 54 53" version="1.1" xmlns="http://www.w3.org/2000/svg" xmlns:xlink="http://www.w3.org/1999/xlink">
    <!-- Generator: Sketch 49.3 (51167) - http://www.bohemiancoding.com/sketch -->
    <title>Group 12</title>
    <desc>Created with Sketch.</desc>
    <defs></defs>
    <g id="Page-1" stroke="none" stroke-width="1" fill="none" fill-rule="evenodd">
        <g id="support" transform="translate(-581.000000, -540.000000)" fill="#39A306">
            <g id="section-1" transform="translate(425.000000, 490.000000)">
                <g id="Group-4" transform="translate(156.000000, 50.000000)">
                    <g id="新手上路">
                        <g id="Group-12">
                            <path d="M10.9032339,50 L4.09676607,50 C1.83848079,50 0,48.272056 0,46.1495479 L0,31.8507751 C0,29.7280247 1.83848079,28 4.09676607,28 L10.9032339,28 C13.1615192,28 15,29.7280247 15,31.8507751 L15,46.1495479 C15,48.272056 13.1615192,50 10.9032339,50 Z M4.09676607,31.0983016 C3.66356082,31.0983016 3.29847609,31.441436 3.29847609,31.8485952 L3.29847609,46.147368 C3.29847609,46.5545272 3.66596609,46.8976615 4.09676607,46.8976615 L10.9032339,46.8976615 C11.3364392,46.8976615 11.7015239,46.5545272 11.7015239,46.147368 L11.7015239,31.8485952 C11.7015239,31.441436 11.3364392,31.0983016 10.9032339,31.0983016 L4.09676607,31.0983016 Z" id="Fill-1"></path>
                            <g id="Group-7" transform="translate(9.000000, 0.000000)">
                                <path d="M28.8680769,42.0001134 C28.1339835,42.0001134 27.4778571,41.4880543 27.3217582,40.7421863 C26.984011,39.124205 25.283489,38.5661413 24.8234341,38.4435994 L17.4303297,38.4963525 L17.4200275,38.4963525 C16.8733516,38.4963525 16.365,38.2140699 16.0759615,37.7505668 C13.0966484,32.9576056 4.65914835,33.5601102 4.58126374,33.5684224 C3.72263736,33.6002717 2.94807692,32.9872329 2.87851648,32.1192345 C2.80895604,31.2509068 3.45667582,30.4906366 4.32593407,30.418955 C4.73934066,30.3829084 13.9659066,29.7068292 18.2470879,35.3320714 L24.986044,35.2835155 C25.0704396,35.2710062 25.188544,35.2899348 25.2876923,35.3108385 C25.4628297,35.3445807 29.595989,36.151514 30.4230495,40.0976273 C30.6023901,40.9508121 30.0518407,41.7895947 29.1974176,41.9685932 C29.0834341,41.9894969 28.9758791,42.0001134 28.8680769,42.0001134 Z" id="Fill-2"></path>
                                <path d="M21.1968132,52.9177842 C16.3289835,52.9177842 10.5501099,51.6261149 4.29436813,47.6378649 C3.5578022,47.1681894 3.34046703,46.1905699 3.81115385,45.4572935 C4.28151099,44.717927 5.26054945,44.505104 5.99686813,44.9751087 C21.8126374,55.0456848 33.6659341,46.3529441 34.1617582,45.9800512 C34.2632143,45.9041724 34.3771154,45.8366056 34.4930769,45.7861568 C40.9682967,43.0008587 41.9348077,40.702354 41.7637912,40.1188602 C41.250989,38.7304084 40.6646703,37.9466009 40.0674725,37.7968183 C39.4641758,37.6453898 38.6770055,38.1025559 38.2804121,38.3995699 C37.8077473,39.1936646 36.3709615,40.8582267 30.7797527,43.5043587 C29.929533,43.9045745 29.0138736,44.1113075 28.0557692,44.1132003 L12.5017582,44.1636491 L12.4975549,44.1636491 C11.625989,44.1636491 10.9171154,43.4602469 10.9152198,42.5900264 C10.9129121,41.7156087 11.6176648,41.0057873 12.4933516,41.0035652 L28.0474451,40.9531165 C28.5367582,40.9508121 29.0010165,40.8476102 29.4272802,40.6473789 C33.499533,38.7197919 35.3497253,37.2364503 35.5986264,36.7076848 C35.6832692,36.528604 35.8033516,36.366559 35.9469231,36.2296149 C36.1790934,36.0103727 38.2993681,34.1268152 40.7973626,34.7190326 C42.4982143,35.1253385 43.7978571,36.5179876 44.6648901,38.856736 C44.8483516,39.2653463 45.1564286,40.2558043 44.7070055,41.6059876 C43.8738462,44.0836553 40.9113462,46.4413323 35.8982967,48.6196817 C34.8433516,49.3551801 29.2753022,52.9177842 21.1968132,52.9177842 Z" id="Fill-4"></path>
                                <path d="M24.196978,32.2770823 C23.3676099,32.2770823 22.6712637,31.6302189 22.6187637,30.7937407 C22.4687637,28.3480047 21.6587637,24.1340109 20.1037912,22.1620652 C19.9962363,22.1852733 19.8967582,22.2000047 19.7702473,22.1935854 C13.6600549,22.0991071 8.82412088,20.2027112 5.3957967,16.5558339 C-0.27782967,10.5220637 0.0640384615,1.93861491 0.0807692308,1.57633851 C0.102032967,1.14427329 0.298104396,0.742082298 0.62521978,0.45757764 C0.952335165,0.175295031 1.39112637,0.031931677 1.81318681,0.0804875776 C9.29678571,0.803147516 14.8647527,3.38813199 18.3588462,7.76186646 C22.0933516,12.4390342 22.2853022,17.7398571 22.2009066,19.7539394 C25.2307418,23.0342609 25.7287912,29.7952174 25.7770879,30.5979534 C25.8279396,31.4701491 25.1653846,32.2182391 24.2939011,32.270663 C24.2623352,32.274778 24.228544,32.2770823 24.196978,32.2770823 Z M3.30057692,3.44277795 C3.50307692,5.98603727 4.34497253,10.8357842 7.71857143,14.4132019 C10.3962363,17.2512531 14.2045055,18.7955776 19.0445604,19.0125978 C19.0275,17.0911009 18.6160714,13.1343711 15.8564011,9.70039907 C13.1896978,6.37983385 8.96967033,4.27925621 3.30057692,3.44277795 Z" id="Fill-5"></path>
                                <path d="M24.2665385,28.6890481 C24.0154121,28.6890481 23.7581868,28.630205 23.5195879,28.5016553 C22.749478,28.0885186 22.4604396,27.1302391 22.8718681,26.3612453 C22.9542857,26.2094876 24.7178571,22.9880093 28.1339835,21.4078851 C28.095989,19.8214239 28.376456,17.0911009 30.2881319,14.5206009 C32.7336264,11.2360823 37.0019505,9.28726242 42.9665934,8.72467236 C43.4012637,8.69545652 43.8252198,8.82178416 44.1523352,9.10398447 C44.4771429,9.38857143 44.6754396,9.79068012 44.6967033,10.2205233 C44.7028846,10.3449581 45.1439011,22.5562733 30.8052198,23.9678509 C30.6468132,23.9867795 30.4864286,23.976163 30.3367582,23.9447252 C30.3154945,23.9508152 30.2945604,23.9591273 30.2732967,23.9656289 C27.3407143,24.854778 25.6759615,27.823354 25.6611264,27.8525699 C25.3762088,28.387837 24.8318407,28.6890481 24.2665385,28.6890481 Z M41.4028846,12.1081957 C37.3564286,12.7572811 34.4782418,14.2003789 32.8327747,16.4105776 C31.6846978,17.9507873 31.370522,19.6002888 31.3093681,20.731559 C39.0610714,19.661354 40.9515659,14.7735854 41.4028846,12.1081957 Z" id="Fill-6"></path>
                            </g>
                        </g>
                    </g>
                </g>
            </g>
        </g>
    </g>
</svg>