<?xml version="1.0" encoding="UTF-8"?>
<svg width="134px" height="95px" viewBox="0 0 134 95" version="1.1" xmlns="http://www.w3.org/2000/svg" xmlns:xlink="http://www.w3.org/1999/xlink">
    <!-- Generator: Sketch 49.3 (51167) - http://www.bohemiancoding.com/sketch -->
    <title>Group 9</title>
    <desc>Created with Sketch.</desc>
    <defs></defs>
    <g id="Page-1" stroke="none" stroke-width="1" fill="none" fill-rule="evenodd">
        <g id="support" transform="translate(-893.000000, -977.000000)">
            <g id="section-2" transform="translate(424.000000, 866.000000)">
                <g id="Group-6" transform="translate(1.000000, 90.000000)">
                    <g id="Group-8" transform="translate(440.000000, 0.000000)">
                        <rect id="Rectangle-3-Copy" stroke="#CCCCCC" x="0.5" y="0.5" width="190" height="164" rx="5"></rect>
                        <g id="贷后监控企业版" transform="translate(70.000000, 40.000000)" fill="#000000">
                            <path d="M25.0001526,50 C11.1928237,50 0,38.8071763 0,25.0001526 C0,11.1928237 11.1928237,0 25.0001526,0 C38.8071763,0 50,11.1928237 50,25.0001526 C50,38.8071763 38.8071763,50 25.0001526,50 Z M25.0001526,2.48053281 C16.9541833,2.48096006 9.51960391,6.77393405 5.49695495,13.7422043 C1.47461118,20.7104745 1.47509946,29.2952628 5.4984198,36.2630448 C9.52198428,43.2308267 16.9568078,47.5228241 25.0027771,47.5223358 C37.4408416,47.5214203 47.5230683,37.4379729 47.5223358,25.0001526 C47.5214203,12.5620271 37.4379729,2.47980039 25.0001526,2.48053281 Z M25.4082952,12.6500399 C22.3999297,16.5388996 18.0638038,20.0610596 12.397293,23.2193887 C11.8973534,22.4917267 11.3415666,21.7082785 10.7305429,20.863795 C16.5694172,18.202781 21.116786,14.6139094 24.3723442,10.0944337 L27.4751312,10.0944337 L26.9000573,10.8695201 C29.8888915,14.8139219 34.1305959,17.8778294 39.6249873,20.0610596 C39.2027456,20.674952 38.6777206,21.4972797 38.04448,22.5306061 C32.8166905,19.9084716 28.6055037,16.6139729 25.4082952,12.6500399 Z M16.1583449,23.5943892 L18.5415876,23.5943892 L18.5415876,34.7388119 L24.4889825,34.7388119 L24.4889825,18.6834335 L26.8721642,18.6834335 L26.8721642,25.0306702 L35.6333443,25.0306702 L35.6333443,27.1277797 L26.8721642,27.1277797 L26.8721642,34.7388119 L38.3611308,34.7388119 L38.3611308,36.8638756 L12.2804715,36.8638756 L12.2804715,34.7388119 L16.1583449,34.7388119 L16.1583449,23.5943892 Z" id="Fill-1"></path>
                        </g>
                    </g>
                </g>
            </g>
            <g id="section-3" transform="translate(424.000000, 977.000000)"></g>
        </g>
    </g>
</svg>