<?xml version="1.0" encoding="UTF-8"?>
<svg width="134px" height="95px" viewBox="0 0 134 95" version="1.1" xmlns="http://www.w3.org/2000/svg" xmlns:xlink="http://www.w3.org/1999/xlink">
    <!-- Generator: Sketch 49.3 (51167) - http://www.bohemiancoding.com/sketch -->
    <title>Group 9</title>
    <desc>Created with Sketch.</desc>
    <defs></defs>
    <g id="Page-1" stroke="none" stroke-width="1" fill="none" fill-rule="evenodd">
        <g id="support" transform="translate(-455.000000, -977.000000)">
            <g id="section-2" transform="translate(424.000000, 866.000000)">
                <g id="Group-6" transform="translate(1.000000, 90.000000)">
                    <g id="Group-9">
                        <rect id="Rectangle-3" stroke="#CCCCCC" x="0.5" y="0.5" width="190" height="164" rx="5"></rect>
                        <g id="vip-(1)" transform="translate(69.000000, 35.000000)" fill="#000000">
                            <path d="M32.3477846,16.1881696 C31.4757456,16.1881696 30.7972945,16.0940848 30.3126545,16.0940848 L29.3433747,16 L28.9559757,16 C28.8590328,16 28.7620899,16.0940848 28.7620899,16.1881696 C28.7620899,16.2822545 28.7620899,16.376267 28.8590328,16.4703518 L29.149787,16.5644366 C29.2467298,16.6585215 29.4403176,16.6585215 29.5371859,16.6585215 C29.7310717,16.6585215 29.924883,16.7526063 30.2157116,16.7526063 L31.3788028,16.7526063 C31.4757456,16.7526063 31.5726885,16.9407036 31.6696314,17.1288733 L31.6696314,17.6930206 C31.6696314,18.3514698 31.5726885,19.0099189 31.3788028,19.6684403 C31.1849915,20.420685 30.8941628,21.2673038 30.6034087,22.2080074 C30.3126545,23.0543369 29.924883,23.9950406 29.5371859,24.9357442 C29.149787,25.8761585 28.7620899,26.7227773 28.3743929,27.4753112 C27.9866958,28.2278452 27.6958672,28.8860774 27.3081701,29.450514 C27.1143589,29.826781 26.9204731,30.203048 26.6297189,30.579315 C26.24232,30.0148783 25.9514913,29.3564292 25.6607371,28.6979077 C25.4668514,27.9456631 25.0791543,27.0049594 24.6914573,26.0642558 C24.3037603,25.1238415 23.9160632,24.0891254 23.5286642,23.0543369 C23.1409672,22.0199101 22.7531956,21.0792065 22.4624415,20.1387921 C22.1716873,19.2921734 21.8808587,18.5396394 21.6870474,17.8811179 L21.3962187,16.7526063 L23.3347785,16.7526063 C23.4317213,16.7526063 23.6255326,16.6585215 23.7224755,16.5644366 C23.8191203,16.4703518 23.8191203,16.4703518 23.8191203,16.376267 L23.8191203,16.2822545 C23.8191203,16.0940848 23.6255326,16 23.3347785,16 C23.2378356,16 22.7531956,16 22.0747445,16.0940848 C21.3962187,16.1881696 20.3303686,16.1881696 18.7795059,16.1881696 L15.2907542,16.1881696 C15.1938113,16.1881696 15.0968684,16.2822545 15.0968684,16.2822545 C15,16.376267 15,16.4703518 15,16.5644366 C15,16.6585215 15,16.6585215 15.0968684,16.6585215 C15.1938113,16.7526063 15.2907542,16.7526063 15.2907542,16.7526063 C15.4843419,16.7526063 15.6781531,16.8466188 15.8720389,16.8466188 L16.9381871,16.8466188 C17.1320729,17.1288733 17.3258842,17.4110554 17.4228271,17.6930206 C17.6167128,18.0692876 17.8105241,18.6336519 18.1013528,19.1980885 L18.8764488,21.0792065 C19.1672029,21.7376556 19.4580316,22.4901896 19.7487858,23.1484218 L20.3303686,24.4653924 L21.5901045,27.1931291 C21.9778016,28.1338327 22.3654986,28.9801622 22.7531956,29.9207935 C23.1409672,30.7674123 23.4317213,31.6138141 23.8191203,32.3663481 C24.2068174,33.1188821 24.497646,33.7771142 24.6914573,34.247466 C24.7884002,34.4355634 24.8853431,34.5296482 24.9822114,34.7177455 L25.2730401,35 C25.4668514,35 25.75768,34.7177455 26.1453771,34.247466 C26.6297189,33.5892339 27.017416,32.9307847 27.405113,32.2722633 C27.889753,31.4256445 28.4713358,30.4852301 29.0528441,29.3564292 C29.6341288,28.2278452 30.3126545,27.0049594 30.9911057,25.6879889 C31.6696314,24.3713075 32.4447274,22.9602521 33.2201215,21.4554735 C33.9955156,19.9506225 34.7709842,18.5396394 35.5460802,17.0347884 C35.6430231,16.9407036 35.8368344,16.9407036 35.9337773,16.9407036 C36.127663,16.9407036 36.3214743,16.9407036 36.4184172,16.8466188 C36.612303,16.8466188 36.7091713,16.7526063 36.8061142,16.6585215 C36.9030571,16.5644366 37,16.4703518 37,16.2822545 C37,16.0940848 36.8061142,16 36.5153601,16 L34.1894014,16 L32.3477846,16.1881696 Z" id="Fill-1"></path>
                            <path d="M39.8660921,57.7300467 C39.7717473,57.7300467 39.677475,57.7300467 39.677475,57.6324216 L32.0376479,45.3254172 L31,46.0091689 L38.7341719,58.4138735 C39.1114786,58.8045995 39.4887854,59 39.9604369,59 C40.4320885,59 40.8091052,58.8045995 41.0920671,58.5115738 L41.1864119,58.4138735 L44.8649895,51.3812567 C44.8649895,51.3812567 47.1286125,51.2835564 51.5617311,50.9904556 C52.0330925,50.9904556 52.5047441,50.6977303 52.7877786,50.2093041 C53.0707405,49.7208778 53.0707405,49.1347513 52.7877786,48.6464002 L45.5252582,38 L44.393338,38.7814519 L51.6557858,49.5255524 L51.6557858,49.6231776 C51.6557858,49.7208778 51.5617311,49.7208778 51.5617311,49.7208778 L44.8649895,50.1116038 C44.4876828,50.1116038 44.1103035,50.3070043 43.8273416,50.60003 L40.0547818,57.6324216 C40.0547818,57.7300467 39.9604369,57.7300467 39.8660921,57.7300467 Z" id="Fill-3"></path>
                            <path d="M45.424571,11.3151116 L27.932824,1.72587403 C26.7730627,1.15081615 25.3236026,1.15081615 24.1638414,1.72587403 L6.6723916,11.2191949 C5.41596498,11.8904644 4.35279476,13.1369392 4.35279476,14.0959588 L4.35279476,34.9040596 C4.35279476,35.8630792 5.31929963,37.1097752 6.6723916,37.7807498 L24.1638414,47.2740707 C25.3236026,47.8494972 26.7730627,47.8494972 27.932824,47.2740707 L45.424571,37.7807498 C46.6807747,37.1097752 47.7438706,35.8630792 47.7438706,34.9040596 L47.7438706,14.1918018 C47.6472052,13.1369392 46.6807747,11.9863811 45.424571,11.3151116 Z M49,14.1918018 L49,34.9040596 C49,36.438432 47.6472052,38.0684999 46.0041915,38.9316028 L28.5127418,48.4245551 C26.9663934,49.191815 25.1303462,49.191815 23.4875554,48.4245551 L5.99580847,38.9316028 C4.35279476,38.0684999 3,36.438432 3,34.9040596 L3,14.1918018 C3,12.6574294 4.35279476,11.0273615 5.99580847,10.1642586 L23.4875554,0.575389644 C25.0336809,-0.191796548 26.8697281,-0.191796548 28.5127418,0.575389644 L46.0041915,10.1642586 C47.6472052,11.0273615 48.903409,12.465596 49,14.1918018 Z" id="Fill-4"></path>
                            <path d="M9.22008336,50.7954306 C8.93600596,50.4047046 8.55730888,50.2093041 8.08391933,50.2093041 L1.4574118,49.8185781 C1.36279212,49.8185781 1.26809965,49.8185781 1.26809965,49.7208778 L1.26809965,49.5255524 L8.55730888,38.7814519 L7.51591009,38 L0.22662808,48.7440254 C-0.0573765371,49.2324516 -0.0573765371,49.8185781 0.131935613,50.3070043 C0.416013014,50.7954306 0.889402566,51.0881559 1.4574118,51.0881559 L8.08391933,51.4788819 L8.17861179,51.4788819 L11.8707446,58.4138735 L11.9654371,58.5115738 C12.2494417,58.8045995 12.7225401,59 13.1012372,59 C13.4799343,59 13.9533238,58.8045995 14.2373284,58.5115738 L22,46.1068692 L20.9585284,45.4231175 L13.1959297,57.827747 L13.0065447,57.827747 C12.9118522,57.827747 12.9118522,57.827747 12.8172326,57.7300467 L9.22008336,50.7954306 Z" id="Fill-5"></path>
                        </g>
                    </g>
                </g>
            </g>
        </g>
    </g>
</svg>