<?xml version="1.0" encoding="UTF-8"?>
<svg width="23px" height="23px" viewBox="0 0 23 23" version="1.1" xmlns="http://www.w3.org/2000/svg" xmlns:xlink="http://www.w3.org/1999/xlink">
    <!-- Generator: Sketch 49.3 (51167) - http://www.bohemiancoding.com/sketch -->
    <title>帮助 (1)</title>
    <desc>Created with Sketch.</desc>
    <defs></defs>
    <g id="Page-1" stroke="none" stroke-width="1" fill="none" fill-rule="evenodd">
        <g id="price" transform="translate(-1015.000000, -666.000000)" fill="#FFFFFF" fill-rule="nonzero">
            <g id="section-2" transform="translate(237.000000, 661.000000)">
                <g id="Group-7" transform="translate(637.000000, 0.000000)">
                    <g id="帮助-(1)" transform="translate(141.000000, 5.000000)">
                        <path d="M11.5,0 C5.14893334,0 0,5.14816666 0,11.5 C0,17.8510667 5.14893334,23 11.5,23 C17.8510667,23 23,17.8510667 23,11.5 C23,5.14816666 17.8510667,0 11.5,0 Z M12,19 C11.4476744,19 11,18.5515075 11,18 C11,17.4472362 11.4476744,17 12,17 C12.5523256,17 13,17.4478643 13,18 C13,18.5515076 12.5523256,18.9993719 12,18.9993719 L12,19 Z M15.7233985,9.38813419 C15.5523752,9.71291961 15.331624,10.0109711 15.0685811,10.2722484 C14.8144086,10.5209315 14.3594829,10.9376213 13.7038039,11.5256446 C13.5228675,11.6919878 13.3763952,11.8367064 13.2678334,11.9622955 C13.15841,12.0870529 13.0774194,12.2018298 13.0240001,12.306626 C12.9697192,12.4105905 12.9292239,12.514555 12.8999294,12.6185195 C12.870635,12.7233158 12.8266933,12.9054616 12.7681043,13.1674522 C12.6664353,13.7230385 12.3485043,14 11.8151727,14 C11.5385986,14 11.3051045,13.909343 11.1155521,13.7280288 C10.9259997,13.5467147 10.8312235,13.2772387 10.8312235,12.9187691 C10.8312235,12.4713058 10.9010133,12.0820627 11.0397311,11.7543665 C11.1775874,11.4250069 11.3619702,11.1372332 11.5911563,10.8893817 C11.821204,10.6415304 12.130519,10.3462711 12.519963,10.0044358 C12.8611573,9.70501803 13.1075754,9.48045468 13.2592174,9.32825063 C13.4117209,9.17521488 13.5400996,9.0063765 13.6434918,8.81924037 C13.7477456,8.63210425 13.7994417,8.42916553 13.7994417,8.21125589 C13.7994417,7.78375382 13.640907,7.42362073 13.3238375,7.13002496 C13.0059064,6.83642917 12.5975072,6.68921541 12.0960549,6.68921541 C11.5084425,6.68921541 11.07678,6.83726087 10.8002059,7.13418352 C10.5219085,7.43027447 10.2875528,7.86609369 10.0954156,8.44330469 C9.9144792,9.04629887 9.56983849,9.34821182 9.06321663,9.34821182 C8.76510242,9.34821182 8.51265308,9.24258388 8.30759184,9.03132798 C8.1025306,8.82007208 8,8.59218188 8,8.34682561 C8,7.83947879 8.16198115,7.32547824 8.48766662,6.80482395 C8.81249051,6.28500139 9.2880947,5.85334073 9.91189439,5.51233711 C10.5356941,5.17050179 11.2646092,5 12.0960549,5 C12.8689118,5 13.552162,5.14305516 14.1440824,5.4283338 C14.7360028,5.71361242 15.1935134,6.10202385 15.5157525,6.59273634 C15.834265,7.07024917 16.0024665,7.62668924 15.9999727,8.19462156 C15.9999727,8.64873856 15.9077813,9.04629885 15.7242601,9.38813419 L15.7233985,9.38813419 Z" id="Shape"></path>
                    </g>
                </g>
            </g>
        </g>
    </g>
</svg>