<?xml version="1.0" encoding="UTF-8"?>
<svg width="46px" height="46px" viewBox="0 0 46 46" version="1.1" xmlns="http://www.w3.org/2000/svg" xmlns:xlink="http://www.w3.org/1999/xlink">
    <!-- Generator: Sketch 49.3 (51167) - http://www.bohemiancoding.com/sketch -->
    <title>Group 13</title>
    <desc>Created with Sketch.</desc>
    <defs></defs>
    <g id="Page-1" stroke="none" stroke-width="1" fill="none" fill-rule="evenodd">
        <g id="support" transform="translate(-1144.000000, -546.000000)" fill="#19A5EA">
            <g id="section-1" transform="translate(425.000000, 490.000000)">
                <g id="Group-4" transform="translate(156.000000, 50.000000)">
                    <g id="291资料／手册" transform="translate(563.000000, 6.000000)">
                        <g id="Group-13">
                            <g id="Group-3">
                                <path d="M34.4747814,3.85198725 L34.4747814,26.7619643 L7.75681319,26.7619643 C6.32042247,26.7619643 4.97968254,27.1438542 3.83046886,27.8121755 L3.83046886,7.71797135 C3.83046886,5.57012776 5.5540928,3.85198725 7.70879121,3.85198725 L34.4747814,3.85198725 Z M38.3052503,0.0337043986 L7.70879121,0.0337043986 C3.44741636,0.0337043986 0,3.47015337 0,7.71797135 L0,38.1693916 C0,42.4172096 3.44741636,45.8536585 7.70879121,45.8536585 L45.966188,45.8536585 L45.966188,3.85198725 L42.1357192,3.85198725 L42.1357192,42.0353757 L7.75681319,42.0353757 C5.60211477,42.0353757 3.83046886,40.269366 3.83046886,38.1215224 L3.83046886,34.4941565 C3.83046886,32.3464808 5.60211477,30.5804711 7.75681319,30.5804711 L38.3052503,30.5804711 L38.3052503,0.0337043986 Z" id="Fill-1"></path>
                            </g>
                            <path d="M43,3.50002208 C43,4.03587908 43.285811,4.53106993 43.7500331,4.79908674 C44.2140785,5.06697109 44.7859214,5.06697109 45.2501435,4.79908674 C45.7141889,4.53106993 46.0001766,4.03587908 45.9999999,3.50002208 C46.0001766,2.96412092 45.7141889,2.46893007 45.2501435,2.20091326 C44.7859214,1.93302891 44.2140785,1.93302891 43.7500331,2.20091326 C43.285811,2.46893007 43,2.96412092 43,3.50002208 Z" id="Fill-4"></path>
                            <polygon id="Fill-5" points="7 37 38 37 38 34 7 34"></polygon>
                        </g>
                    </g>
                </g>
            </g>
        </g>
    </g>
</svg>