<?xml version="1.0" encoding="UTF-8"?>
<svg width="34px" height="30px" viewBox="0 0 34 30" version="1.1" xmlns="http://www.w3.org/2000/svg" xmlns:xlink="http://www.w3.org/1999/xlink">
    <!-- Generator: Sketch 49.3 (51167) - http://www.bohemiancoding.com/sketch -->
    <title>VIP</title>
    <desc>Created with Sketch.</desc>
    <defs></defs>
    <g id="Page-1" stroke="none" stroke-width="1" fill="none" fill-rule="evenodd">
        <g id="home" transform="translate(-1574.000000, -841.000000)">
            <g id="QQ" transform="translate(1542.000000, 719.000000)">
                <g id="VIP" transform="translate(32.000000, 122.000000)">
                    <path d="M33.583706,7.63207708 L26.1937759,0.408827705 C25.9163328,0.136309772 25.5693608,0 25.1876243,0 L8.81216878,0 C8.43063922,0 8.08366719,0.136309772 7.80622407,0.408827705 L0.416294013,7.63207708 C0.138850892,7.90454421 0,8.24529324 0,8.62018321 L0,11.4821296 C0,11.8228786 0.138850892,12.1634244 0.346972032,12.4019538 L15.9591615,29.5398974 C16.5143064,30.1533675 17.4856936,30.1533675 18.0407868,29.5398974 L33.653028,12.4019538 C33.8959136,12.1634244 34,11.8228786 34,11.4821296 L34,8.62018321 C34,8.24529324 33.8611491,7.90454421 33.583706,7.63207708 Z" id="Fill-1" fill="#F5A623"></path>
                    <polygon id="Path" fill="#FFFFFF" points="16.499897 22 6 8 12.2171425 8 11.7334811 9.31038865 16.499897 15.7930718 21.2665189 9.34494157 20.782909 8.03455292 27 8.03455292"></polygon>
                </g>
            </g>
        </g>
    </g>
</svg>