<?xml version="1.0" encoding="UTF-8"?>
<svg width="43px" height="53px" viewBox="0 0 43 53" version="1.1" xmlns="http://www.w3.org/2000/svg" xmlns:xlink="http://www.w3.org/1999/xlink">
    <!-- Generator: Sketch 51 (57462) - http://www.bohemiancoding.com/sketch -->
    <title>Group 61</title>
    <desc>Created with Sketch.</desc>
    <defs></defs>
    <g id="Page-1" stroke="none" stroke-width="1" fill="none" fill-rule="evenodd">
        <g id="price" transform="translate(-1004.000000, -659.000000)">
            <g id="Group-15-Copy" transform="translate(970.000000, 637.000000)">
                <g id="Group-61" transform="translate(34.000000, 22.000000)">
                    <path d="M22.310905,0.666985148 C27.5927543,5.27157948 34.0382459,7.57125802 41.6991207,7.57125802 C42.3198697,7.57125802 42.8230862,8.07447452 42.8230862,8.69522354 L42.8230862,28.0927038 C42.8230862,40.9166182 33.8041042,52.1940459 21.5723163,52.1940459 C9.43569014,52.1940459 0.112396552,40.5484378 0.112396552,28.0927038 L0.112396552,8.69522354 C0.112396552,8.07447452 0.615613054,7.57125802 1.23636207,7.57125802 C9.30165365,7.57125802 15.8078042,5.27381123 20.8128068,0.685688216 C21.2346084,0.299019605 21.8795817,0.29096741 22.310905,0.666985148 Z" id="Path" fill="#4B6475" fill-rule="nonzero"></path>
                    <path d="M2.36032759,9.8048001 L2.36032759,28.0927038 C2.36032759,39.4031407 10.8008695,49.9461149 21.5723163,49.9461149 C32.4382896,49.9461149 40.5751552,39.7716946 40.5751552,28.0927038 L40.5751552,9.80336304 C33.2211868,9.59482961 26.8795365,7.3255387 21.5892208,2.99943959 C16.5008184,7.33889181 10.0765622,9.60563786 2.36032759,9.8048001 Z" id="Path-43" stroke="#FFFFFF" stroke-width="0.5" opacity="0.5" fill-rule="nonzero"></path>
                    <polygon id="Page-1" fill="#FFFFFF" points="17.8273981 15.7355172 8.9955655 26.4157113 8.99172414 29.151435 14.9382318 29.1665231 14.9382318 32.789846 10.8493307 32.789846 10.8355786 35.9668966 30.5078161 35.9260749 30.5078161 32.8049341 24.174099 32.8049341 24.1592713 29.1621643 29.008455 29.1408733 29.008455 26.4111011 24.1505899 26.4111011 24.1505899 21.4328669 21.0598287 21.4328669 21.0598287 32.789846 17.6749728 32.789846 17.6749728 26.4209083 13.0520454 26.4209083 19.4035096 18.7429105 24.7259493 18.7580824 31.7312904 26.2706141 33.7189655 24.1623039 26.0425382 15.7355172"></polygon>
                </g>
            </g>
        </g>
    </g>
</svg>