<?xml version="1.0" encoding="UTF-8"?>
<svg width="83px" height="68px" viewBox="0 0 83 68" version="1.1" xmlns="http://www.w3.org/2000/svg" xmlns:xlink="http://www.w3.org/1999/xlink">
    <!-- Generator: Sketch 49.3 (51167) - http://www.bohemiancoding.com/sketch -->
    <title>Group 2</title>
    <desc>Created with Sketch.</desc>
    <defs></defs>
    <g id="Page-1" stroke="none" stroke-width="1" fill="none" fill-rule="evenodd">
        <g id="price" transform="translate(-1504.000000, -492.000000)" fill="#4B6475">
            <g id="section-1" transform="translate(328.000000, 492.000000)">
                <g id="Group-6" transform="translate(1188.000000, 12.000000)">
                    <g id="发票" transform="translate(4.000000, 0.000000)">
                        <path d="M38.994595,25.9874305 L34.9962611,25.9874305 C34.4525588,25.9874305 33.986975,26.4339211 33.986975,26.9966897 C33.986975,27.5399839 34.4334379,28.0058779 34.9962611,28.0058779 L38.994595,28.0058779 L38.994595,31.014039 C38.994595,31.5576175 39.4410578,32.0038238 40.003881,32.0038238 C40.5475834,32.0038238 40.9940462,31.5576175 40.9940462,31.014039 L40.9940462,28.0058779 L44.9923801,28.0058779 C45.535727,28.0058779 46.0016662,27.5594583 46.0016662,26.9966897 C46.0016662,26.4533244 45.5552033,25.9874305 44.9923801,25.9874305 L40.9940462,25.9874305 L40.9940462,23.9884575 L44.0024992,23.9884575 C44.5459172,23.9884575 45.0117853,23.542038 45.0117853,22.9792693 C45.0117853,22.4162164 44.5653225,21.9700811 44.0024992,21.9700811 L42.0033323,21.9700811 L43.2261472,19.8350714 C43.4976785,19.3497741 43.3230313,18.7481276 42.8571632,18.4766227 C42.372032,18.2047624 41.7703983,18.3599893 41.4985116,18.8452866 L39.8681154,21.6788175 L38.2376482,18.8452866 C37.9658325,18.3599893 37.3447225,18.2047624 36.8596624,18.496026 C36.3937232,18.767531 36.219076,19.3691774 36.4908916,19.8544748 L37.7137065,21.9892002 L35.986142,21.9892002 C35.442724,21.9892002 34.9767848,22.4356908 34.9767848,22.9987438 C34.9767848,23.5615124 35.4233187,24.0079319 35.986142,24.0079319 L38.994595,24.0079319 L38.994595,25.9874305 Z M11.9952859,3.99794594 L48.0008331,3.99794594 C49.1072876,3.99794594 50,4.890785 50,5.99720321 L50,38.001027 C50,39.1073742 49.1072876,40 48.0008331,40 L5.9977851,40 C3.78480505,40 1.99916692,38.2145351 1.99916692,36.0020541 C1.99916692,33.789573 3.78480505,32.0038238 5.9977851,32.0038238 L7.99695203,32.0038238 C10.2096477,32.0038238 11.9952859,30.2183589 11.9952859,28.0058779 L11.9952859,3.99794594 Z M5.00790426,0 L8.01635727,0 C9.12259851,0 10.0155242,0.892839057 10.0155242,1.99897297 L10.0155242,28.0058779 C10.0155242,29.112225 9.12259851,30.0048508 8.01635727,30.0048508 L5.00790426,30.0048508 C2.2515773,30.0048508 0,32.2367353 0,35.0122693 L0,36.0214574 L0,4.98794397 C0,2.23188442 2.23210097,0 5.00790426,0 Z M17.0031901,11.9941221 C16.4595589,11.9941221 15.9939041,12.4405417 15.9939041,13.0033103 C15.9939041,13.5468888 16.4403669,14.0124985 17.0031901,14.0124985 L44.9923801,14.0124985 C45.535727,14.0124985 46.0016662,13.5663632 46.0016662,13.0033103 C46.0016662,12.459945 45.5552033,11.9941221 44.9923801,11.9941221 L17.0031901,11.9941221 Z M17.0031901,17.9912543 C16.4595589,17.9912543 15.9939041,18.4377449 16.0133093,19.0005135 C16.0133093,19.5438077 16.4595589,19.9902272 17.0031901,19.9902272 L30.9976429,19.9902272 C31.5412742,19.9902272 32.006929,19.5438077 32.006929,18.9810391 C32.006929,18.4182704 31.5607505,17.9718509 30.9976429,17.9718509 C30.9976429,17.9912543 17.0031901,17.9912543 17.0031901,17.9912543 Z M17.0031901,23.9884575 C16.4595589,23.9884575 15.9939041,24.4346638 15.9939041,24.9977167 C15.9939041,25.5410109 16.4403669,26.0069049 17.0031901,26.0069049 L30.9976429,26.0069049 C31.5412742,26.0069049 32.006929,25.5604854 32.006929,24.9977167 C32.006929,24.4540672 31.5607505,23.9884575 30.9976429,23.9884575 L17.0031901,23.9884575 Z M17.0031901,29.9853764 C16.4595589,29.9853764 15.9939041,30.431867 15.9939041,30.9946356 C15.9939041,31.5382141 16.4403669,32.0038238 17.0031901,32.0038238 L30.9976429,32.0038238 C31.5412742,32.0038238 32.006929,31.5576175 32.006929,30.9946356 C32.006929,30.4512704 31.5607505,29.9853764 30.9976429,29.9853764 L17.0031901,29.9853764 Z" id="Fill-1"></path>
                    </g>
                </g>
            </g>
        </g>
    </g>
</svg>