<?xml version="1.0" encoding="UTF-8"?>
<svg width="83px" height="68px" viewBox="0 0 83 68" version="1.1" xmlns="http://www.w3.org/2000/svg" xmlns:xlink="http://www.w3.org/1999/xlink">
    <!-- Generator: Sketch 50 (54983) - http://www.bohemiancoding.com/sketch -->
    <title>Group 2</title>
    <desc>Created with Sketch.</desc>
    <defs>
        <linearGradient x1="0%" y1="0%" x2="168.712023%" y2="177.811316%" id="linearGradient-1">
            <stop stop-color="#9702D0" offset="0%"></stop>
            <stop stop-color="#025BD0" offset="100%"></stop>
        </linearGradient>
    </defs>
    <g id="Page-1" stroke="none" stroke-width="1" fill="none" fill-rule="evenodd">
        <g id="price" transform="translate(-1503.000000, -492.000000)">
            <g id="section-1" transform="translate(328.000000, 492.000000)">
                <g id="Group-6" transform="translate(1192.000000, 12.000000)"></g>
                <g id="VIP" transform="translate(1190.000000, 11.000000)">
                    <g>
                        <path d="M51.3040483,11.8923022 L40.0148437,0.637035313 C39.5910085,0.21239788 39.0609578,0 38.4777992,0 L13.4618834,0 C12.8790409,0 12.3489901,0.21239788 11.9251549,0.637035313 L0.635950308,11.8923022 C0.212115152,12.3168605 0,12.8478156 0,13.4319691 L0,17.8914538 C0,18.4224089 0.212115152,18.9530474 0.530050791,19.3247239 L24.3799655,46.0290669 C25.2280309,46.9849761 26.7119677,46.9849761 27.5599541,46.0290669 L51.4099478,19.3247239 C51.7809913,18.9530474 51.9399986,18.4224089 51.9399986,17.8914538 L51.9399986,13.4319691 C51.9399986,12.8478156 51.7278835,12.3168605 51.3040483,11.8923022 Z" id="Fill-1" fill="url(#linearGradient-1)"></path>
                        <polygon id="Path" fill="#FFFFFF" points="25.4504414 33.2415991 9.34919975 12.4655997 18.8829803 12.4655997 18.1413017 14.4102164 25.4504414 24.0305179 32.7598969 14.4614929 32.0182973 12.5168762 41.5519989 12.5168762"></polygon>
                    </g>
                    <g id="Group-14" transform="translate(20.000000, 17.000000)">
                        <path d="M33.583706,7.88647965 L26.1937759,0.422455295 C25.9163328,0.140853431 25.5693608,0 25.1876243,0 L8.81216878,0 C8.43063922,0 8.08366719,0.140853431 7.80622407,0.422455295 L0.416294013,7.88647965 C0.138850892,8.16802902 0,8.52013634 0,8.90752265 L0,11.8648672 C0,12.2169745 0.138850892,12.5688719 0.346972032,12.8153523 L15.9591615,30.5245606 C16.5143064,31.1584798 17.4856936,31.1584798 18.0407868,30.5245606 L33.653028,12.8153523 C33.8959136,12.5688719 34,12.2169745 34,11.8648672 L34,8.90752265 C34,8.52013634 33.8611491,8.16802902 33.583706,7.88647965 Z" id="Fill-1" fill="#F5A623"></path>
                        <g id="Group-13" transform="translate(10.000000, 5.000000)" fill="#FFFFFF">
                            <path d="M8.97607101,7.49925059 C8.97607101,7.49925059 9.13167756,13.3033724 8.97607101,13.3033724 L4.8992251,13.3033724 C4.74380215,13.3033724 4.8992251,7.49925059 4.8992251,7.49925059 L0.190038219,7.49925059 L0.108241498,7.41583138 C0.0435201866,7.34978923 0.00712018663,7.26028103 0.00712018663,7.16679157 C0.00712018663,7.07348946 0.0435201866,6.9840281 0.108241498,6.91798595 L6.74694969,0.143793911 C6.8816251,0.00637002342 7.1000251,0.00637002342 7.23465461,0.143793911 L13.8735464,6.91798595 C13.9382677,6.9840281 13.9744841,7.07348946 13.9744841,7.16697892 C13.9744841,7.26028103 13.9382677,7.34978923 13.8735464,7.41583138 L13.791612,7.49925059 L8.97607101,7.49925059 Z" id="Path"></path>
                            <polygon id="Path" points="5.71471363 19.9592037 8.16076609 19.9592037 8.16076609 18.2953162 5.71471363 18.2953162"></polygon>
                            <polygon id="Path" points="4.8992251 16.6312881 8.97607101 16.6312881 8.97607101 14.9857143 4.8992251 14.9857143"></polygon>
                        </g>
                    </g>
                </g>
            </g>
        </g>
    </g>
</svg>