<?xml version="1.0" encoding="UTF-8"?>
<svg width="41px" height="53px" viewBox="0 0 41 53" version="1.1" xmlns="http://www.w3.org/2000/svg" xmlns:xlink="http://www.w3.org/1999/xlink">
    <!-- Generator: Sketch 51 (57462) - http://www.bohemiancoding.com/sketch -->
    <title>设备</title>
    <desc>Created with Sketch.</desc>
    <defs></defs>
    <g id="Page-1" stroke="none" stroke-width="1" fill="none" fill-rule="evenodd">
        <g id="price" transform="translate(-361.000000, -661.000000)" fill-rule="nonzero">
            <g id="Group-15" transform="translate(326.000000, 637.000000)">
                <g id="设备" transform="translate(35.000000, 24.000000)">
                    <rect id="Rectangle-22" fill="#4B6475" x="0" y="0" width="41" height="53" rx="14.3"></rect>
                    <rect id="Rectangle-22" stroke="#FFFFFF" stroke-width="0.55" opacity="0.5" x="2.49121622" y="2.48333333" width="36.0175676" height="48.8169355" rx="12.584"></rect>
                    <ellipse id="Oval-3" fill="#FFFFFF" cx="21.0540541" cy="30.9166667" rx="8.86486486" ry="8.83333333"></ellipse>
                    <g id="WiFi" transform="translate(16.621622, 8.833333)" fill="#FFFFFF">
                        <path d="M7.48950641,3.33451166 C7.43805415,3.26638042 7.3894013,3.19629656 7.33422834,3.13077293 C5.70949004,1.20118695 3.0938589,1.17917684 1.49203554,3.08156222 C1.44667818,3.13538256 1.40736847,3.19345415 1.36463333,3.24916532 L0.656420746,2.40809733 C0.699663788,2.3527322 0.73846559,2.2942775 0.78379932,2.2404448 C2.78609035,-0.137524567 6.05564698,-0.10997795 8.08656984,2.30196435 C8.13254141,2.35656327 8.17206373,2.41567295 8.21596823,2.47175487 L7.48950641,3.33451166 Z M6.86651603,4.03087645 L6.26864938,4.7408848 C5.26216493,3.57631392 3.6634717,3.57085155 2.68087073,4.73781995 L2.00538866,3.93563113 C3.36300284,2.41504269 5.50965782,2.44975712 6.86651603,4.03087645 Z M4.43618858,5.30013439 C4.95806985,5.30013439 5.3811335,5.74277118 5.3811335,6.28879741 C5.3811335,6.83482364 4.95806985,7.27746044 4.43618858,7.27746044 C3.91430732,7.27746044 3.49124367,6.83481129 3.49124367,6.28879741 C3.49124367,5.74275883 3.91431914,5.30013439 4.43618858,5.30013439 Z" id="Shape"></path>
                    </g>
                </g>
            </g>
        </g>
    </g>
</svg>