<?xml version="1.0" encoding="UTF-8"?>
<svg width="83px" height="68px" viewBox="0 0 83 68" version="1.1" xmlns="http://www.w3.org/2000/svg" xmlns:xlink="http://www.w3.org/1999/xlink">
    <!-- Generator: Sketch 49.3 (51167) - http://www.bohemiancoding.com/sketch -->
    <title>Group 2</title>
    <desc>Created with Sketch.</desc>
    <defs></defs>
    <g id="Page-1" stroke="none" stroke-width="1" fill="none" fill-rule="evenodd">
        <g id="price" transform="translate(-328.000000, -485.000000)">
            <g id="section-1" transform="translate(328.000000, 492.000000)">
                <g id="Group-2" transform="translate(0.000000, 3.000000)">
                    <g id="VIP" transform="translate(16.000000, 0.000000)">
                        <path d="M51.3026626,11.8870966 L40.0137629,0.674598449 C39.5899392,0.251574591 39.0599027,0.0399837986 38.4767599,0.0399837986 L13.4615198,0.0399837986 C12.878693,0.0399837986 12.3486565,0.251574591 11.9248328,0.674598449 L0.635933131,11.8870966 C0.212109422,12.3100416 0,12.8389791 0,13.420913 L0,17.8634521 C0,18.3923897 0.212109422,18.9210117 0.530036474,19.2912759 L24.379307,45.8941454 C25.2273495,46.8464223 26.7112462,46.8464223 27.5592097,45.8941454 L51.4085593,19.2912759 C51.7795927,18.9210117 51.9385957,18.3923897 51.9385957,17.8634521 L51.9385957,13.420913 C51.9385957,12.8389791 51.7264863,12.3100416 51.3026626,11.8870966 Z" id="Fill-1" fill="#F5A623"></path>
                        <polygon id="Path" fill="#FFFFFF" points="26 34.4181458 9.72628179 12.9836067 19.3621883 12.9836067 18.6125648 14.9898622 26 24.9150997 33.3877545 15.0427641 32.6382108 13.0365086 42.2740375 13.0365086"></polygon>
                    </g>
                </g>
            </g>
        </g>
    </g>
</svg>