<?xml version="1.0" encoding="UTF-8"?>
<svg width="83px" height="68px" viewBox="0 0 83 68" version="1.1" xmlns="http://www.w3.org/2000/svg" xmlns:xlink="http://www.w3.org/1999/xlink">
    <!-- Generator: Sketch 51 (57462) - http://www.bohemiancoding.com/sketch -->
    <title>Group 2</title>
    <desc>Created with Sketch.</desc>
    <defs></defs>
    <g id="Page-1" stroke="none" stroke-width="1" fill="none" fill-rule="evenodd">
        <g id="price" transform="translate(-1207.000000, -469.000000)">
            <g id="section-1" transform="translate(328.000000, 470.000000)"></g>
            <g id="Group-15" transform="translate(326.000000, 476.000000)">
                <g id="设备-copy" transform="translate(901.000000, 0.000000)">
                    <rect id="Rectangle-22" fill="#4B6475" fill-rule="nonzero" x="0" y="0" width="41" height="53" rx="14.157"></rect>
                    <rect id="Rectangle-22" stroke="#FFFFFF" stroke-width="0.55" opacity="0.5" fill-rule="nonzero" x="2.49121622" y="2.48333333" width="36.0175676" height="48.8169355" rx="12.45816"></rect>
                    <ellipse id="Oval-3" fill="#FFFFFF" fill-rule="nonzero" cx="21.0540541" cy="30.9166667" rx="8.86486486" ry="8.83333333"></ellipse>
                    <g id="WiFi" transform="translate(16.621622, 8.833333)" fill="#FFFFFF" fill-rule="nonzero">
                        <path d="M7.48950641,3.33451166 C7.43805415,3.26638042 7.3894013,3.19629656 7.33422834,3.13077293 C5.70949004,1.20118695 3.0938589,1.17917684 1.49203554,3.08156222 C1.44667818,3.13538256 1.40736847,3.19345415 1.36463333,3.24916532 L0.656420746,2.40809733 C0.699663788,2.3527322 0.73846559,2.2942775 0.78379932,2.2404448 C2.78609035,-0.137524567 6.05564698,-0.10997795 8.08656984,2.30196435 C8.13254141,2.35656327 8.17206373,2.41567295 8.21596823,2.47175487 L7.48950641,3.33451166 Z M6.86651603,4.03087645 L6.26864938,4.7408848 C5.26216493,3.57631392 3.6634717,3.57085155 2.68087073,4.73781995 L2.00538866,3.93563113 C3.36300284,2.41504269 5.50965782,2.44975712 6.86651603,4.03087645 Z M4.43618858,5.30013439 C4.95806985,5.30013439 5.3811335,5.74277118 5.3811335,6.28879741 C5.3811335,6.83482364 4.95806985,7.27746044 4.43618858,7.27746044 C3.91430732,7.27746044 3.49124367,6.83481129 3.49124367,6.28879741 C3.49124367,5.74275883 3.91431914,5.30013439 4.43618858,5.30013439 Z" id="Shape"></path>
                    </g>
                    <g id="高级设置-时间段" transform="translate(23.000000, 28.000000)">
                        <path d="M13.4900231,0.0542494226 C11.1914065,0.0542494226 9.04593533,0.641764434 7.15581062,1.63802079 C5.18917552,2.68515935 3.52895612,4.19192148 2.30304388,6.05648037 C1.33260277,7.51236028 0.617445727,9.19789607 0.285214781,10.9857575 C0.132006928,11.8031778 0.0555588915,12.6715427 0.0555588915,13.5399076 C0.0555588915,14.0253464 0.0811247113,14.5105358 0.132006928,14.9957252 C0.872729792,21.738679 6.56829561,26.9999376 13.5155889,26.9999376 C20.9478222,26.9999376 26.9756189,20.9723903 26.9756189,13.5399076 C26.9500531,6.08204619 20.9222564,0.0542494226 13.4900231,0.0542494226 Z" id="Fill-3" fill="#F5A623"></path>
                        <path d="M16.602997,18.6915596 L12.2511658,15.5289214 C12.092265,15.4110272 12,15.2264973 12,15.0317157 L12,6.61509982 C12,6.27679492 12.2767949,6 12.6150998,6 L14.255366,6 C14.5936709,6 14.8704658,6.27679492 14.8704658,6.61509982 L14.8704658,13.8784035 L18.2945215,16.3695578 C18.5713164,16.5694652 18.6277006,16.9539026 18.4277931,17.2306976 L17.4641367,18.558288 C17.2642293,18.8299571 16.8797919,18.8914671 16.602997,18.6915596 Z" id="Path" fill="#FFFFFF" fill-rule="nonzero"></path>
                    </g>
                </g>
            </g>
        </g>
    </g>
</svg>