<?xml version="1.0" encoding="UTF-8"?>
<svg width="83px" height="68px" viewBox="0 0 83 68" version="1.1" xmlns="http://www.w3.org/2000/svg" xmlns:xlink="http://www.w3.org/1999/xlink">
    <!-- Generator: Sketch 49.3 (51167) - http://www.bohemiancoding.com/sketch -->
    <title>Group 2</title>
    <desc>Created with Sketch.</desc>
    <defs></defs>
    <g id="Page-1" stroke="none" stroke-width="1" fill="none" fill-rule="evenodd">
        <g id="price" transform="translate(-632.000000, -488.000000)" fill="#4B6475">
            <g id="section-1" transform="translate(328.000000, 492.000000)">
                <g id="Group-3" transform="translate(319.000000, 5.000000)">
                    <g id="金币-(1)" transform="translate(4.000000, 0.000000)">
                        <path d="M23.9992698,0 C10.7457746,0 0,10.7449086 0,24.0005355 C0,37.2554808 10.7457746,48 23.9992698,48 C37.2553937,48 48,37.2554808 48,24.0005355 C48,10.7449086 37.2553937,0 23.9992698,0 Z M36.8866337,21.7657051 L30.9917917,27.4170913 L32.3225404,35.203633 C32.3704803,35.3257775 32.3960678,35.7215605 32.3960678,35.8612372 C32.3960678,36.4707973 31.8974537,37.2244898 31.2805095,37.2244898 L31.2583532,37.2244898 C31.0799266,37.2244898 30.901402,36.9217923 30.7364064,36.8344217 L23.4805225,32.9075878 L16.2009137,36.5986567 C15.8252375,36.7927705 15.3687791,36.7231259 15.0264353,36.4787401 C14.6833073,36.2240867 14.5124295,35.8010852 14.5848785,35.3829267 L15.9933702,27.3853202 L10.1295078,21.7029378 C9.82696686,21.4085705 9.71942072,20.969974 9.85147601,20.5711882 C9.98362933,20.1727899 10.3329337,19.8822003 10.7530205,19.8216608 L18.8792733,18.676641 L22.5311362,11.3983405 C22.7207389,11.0237706 23.106709,10.7755102 23.5307172,10.7755102 L23.5325799,10.7755102 C23.9576665,10.7755102 24.3459895,11.0279357 24.532161,11.4039586 L28.144123,18.6940764 L36.2689052,19.8822003 C36.6893841,19.9431273 37.0386885,20.2347823 37.1700575,20.634343 C37.3010344,21.0339037 37.1914295,21.4725002 36.8866337,21.7657051 Z" id="Fill-1"></path>
                    </g>
                </g>
            </g>
        </g>
    </g>
</svg>