<?xml version="1.0" encoding="UTF-8"?>
<svg width="83px" height="68px" viewBox="0 0 83 68" version="1.1" xmlns="http://www.w3.org/2000/svg" xmlns:xlink="http://www.w3.org/1999/xlink">
    <!-- Generator: Sketch 49.3 (51167) - http://www.bohemiancoding.com/sketch -->
    <title>Group 2</title>
    <desc>Created with Sketch.</desc>
    <defs></defs>
    <g id="Page-1" stroke="none" stroke-width="1" fill="none" fill-rule="evenodd">
        <g id="price" transform="translate(-921.000000, -490.000000)">
            <g id="section-1" transform="translate(328.000000, 492.000000)">
                <g id="Group-4" transform="translate(575.000000, 6.000000)">
                    <g id="离线" transform="translate(29.000000, 1.000000)">
                        <g id="Group-3" fill="#4B6475">
                            <path d="M51.0501463,0.00542185339 L5.24494634,0.00542185339 C2.44760976,0.00542185339 0,2.43441217 0,5.21046888 L0,36.4404122 C0,39.2161978 2.44760976,41.6451203 5.24494634,41.6451203 L20.9794439,41.6451203 L20.9794439,45.1153776 L13.9864098,45.1153776 L13.9864098,48.9323624 L41.9588878,48.9323624 L41.9588878,45.1153776 L34.9658537,45.1153776 L34.9658537,41.6451203 L50.7003512,41.6451203 C53.4976878,41.6451203 55.9452976,39.2161978 55.9452976,36.4404122 L55.9452976,5.21046888 C56.2950244,2.43441217 53.8474146,0.00542185339 51.0501463,0.00542185339 Z" id="Fill-1"></path>
                        </g>
                        <ellipse id="Oval" fill="#FFFFFF" cx="28.4745763" cy="20.7307692" rx="11.3898305" ry="11.3076923"></ellipse>
                        <path d="M33.0321995,16.151376 C32.6333393,15.7555887 32.0352633,15.7555887 31.6365978,16.151376 L28.0479079,19.5148724 L24.6584728,16.151376 C24.2597684,15.7555887 23.6616924,15.7555887 23.2628712,16.151376 C22.8641668,16.3492697 22.8641668,17.1407283 23.2628712,17.536361 L26.8515611,21.0977511 L23.2628712,24.4612475 C22.8641668,24.8570735 22.8641668,25.4505998 23.2628712,25.8462326 C23.6616924,26.2420199 24.2597684,26.2420199 24.6584728,25.8462326 L28.0479079,22.2848425 L31.6365978,25.8462326 C32.0352633,26.2420199 32.6333393,26.2420199 33.0321995,25.8462326 C33.4308649,25.4505998 33.4308649,24.8570735 33.0321995,24.4612475 L29.4434706,20.8998575 L33.0321995,17.3384674 C33.4308649,17.1407283 33.4308649,16.3492697 33.0321995,16.151376 Z" id="Fill-4" fill="#4B6475"></path>
                    </g>
                    <g id="VIP" transform="translate(66.000000, 24.000000)">
                        <path d="M31.6081939,7.37767451 L24.6529656,0.395200114 C24.3918426,0.131766112 24.0652807,0 23.7059993,0 L8.29380591,0 C7.93471927,0 7.60815735,0.131766112 7.34703442,0.395200114 L0.39180613,7.37767451 C0.130683193,7.6410594 0,7.97045013 0,8.33284377 L0,11.0993919 C0,11.4287826 0.130683193,11.7579769 0.326561913,11.9885553 L15.0203873,28.5552341 C15.5428766,29.1482553 16.4571234,29.1482553 16.979564,28.5552341 L31.6734381,11.9885553 C31.9020363,11.7579769 32,11.4287826 32,11.0993919 L32,8.33284377 C32,7.97045013 31.8693168,7.6410594 31.6081939,7.37767451 Z" id="Fill-1" fill="#F5A623"></path>
                        <polygon id="Path" fill="#FFFFFF" points="15.9999019 21 6 8 11.9210881 8 11.4604582 9.21678946 15.9999019 15.2364238 20.5395418 9.24887431 20.0789609 8.03208485 26 8.03208485"></polygon>
                    </g>
                </g>
            </g>
        </g>
    </g>
</svg>