<?xml version="1.0" encoding="UTF-8"?>
<svg width="50px" height="50px" viewBox="0 0 50 50" version="1.1" xmlns="http://www.w3.org/2000/svg" xmlns:xlink="http://www.w3.org/1999/xlink">
    <!-- Generator: Sketch 49.3 (51167) - http://www.bohemiancoding.com/sketch -->
    <title>Group 47</title>
    <desc>Created with Sketch.</desc>
    <defs></defs>
    <g id="Page-1" stroke="none" stroke-width="1" fill="none" fill-rule="evenodd">
        <g id="product" transform="translate(-935.000000, -2965.000000)">
            <g id="section-3" transform="translate(0.000000, 2774.000000)">
                <g id="Group-10" transform="translate(459.000000, 191.000000)">
                    <g id="Group-47" transform="translate(476.000000, 0.000000)">
                        <rect id="Rectangle-9-Copy-4" fill="#5E8DD4" x="0" y="0" width="50" height="50" rx="8"></rect>
                        <g id="Group-27" transform="translate(12.000000, 14.000000)" fill="#FFFFFF">
                            <path d="M1.1494774,8.83684211 L25.8504474,8.83684211 C26.4852453,8.83684211 26.9999248,8.31938828 26.9999248,7.68116857 L26.9997923,7.6787026 C27.0070511,7.29441116 26.8236915,6.93164697 26.5106346,6.71100929 L17.2838246,0.20048177 C16.7642396,-0.155151102 16.0569199,-0.0252544624 15.6959681,0.491932772 C15.3348505,1.00921998 15.4541071,1.72218524 15.9634503,2.09238067 L22.2460337,6.52549503 L1.1494774,6.52549503 C0.514646355,6.52549503 0,7.04294886 0,7.68116857 C0,8.31938828 0.514646355,8.83684211 1.1494774,8.83684211 Z M25.8505194,14.1631579 L1.1494806,14.1631579 C0.514647788,14.1631579 0,14.6798987 0,15.3175775 L0.000265162768,15.3194084 C-0.00725883078,15.703527 0.176068078,16.0660745 0.489291598,16.2864791 L9.71662448,22.7901302 C9.96601006,22.9663274 10.2750573,23.0355013 10.5754204,22.9827054 C10.8758167,22.9297764 11.142935,22.7590385 11.317843,22.508208 C11.4930162,22.2576438 11.5617596,21.947526 11.5091911,21.6459635 C11.4566226,21.3444009 11.2868852,21.0761604 11.0374002,20.9003627 L4.75430214,16.4720304 L25.8505194,16.4720304 C26.4853191,16.4720304 27,15.9551564 27,15.3175775 C27,14.6798987 26.4853191,14.1631579 25.8505194,14.1631579 Z" id="转换"></path>
                        </g>
                    </g>
                </g>
            </g>
        </g>
    </g>
</svg>