<?xml version="1.0" encoding="UTF-8"?>
<svg width="50px" height="50px" viewBox="0 0 50 50" version="1.1" xmlns="http://www.w3.org/2000/svg" xmlns:xlink="http://www.w3.org/1999/xlink">
    <!-- Generator: Sketch 49.3 (51167) - http://www.bohemiancoding.com/sketch -->
    <title>Group 60</title>
    <desc>Created with Sketch.</desc>
    <defs></defs>
    <g id="Page-1" stroke="none" stroke-width="1" fill="none" fill-rule="evenodd">
        <g id="product" transform="translate(-1279.000000, -4946.000000)">
            <g id="section-5" transform="translate(545.000000, 4655.000000)">
                <g id="Group-10-Copy" transform="translate(56.000000, 291.000000)">
                    <g id="Group-60" transform="translate(678.000000, 0.000000)">
                        <rect id="Rectangle-9-Copy-5" fill="#5E8DD4" x="0" y="0" width="50" height="50" rx="8"></rect>
                        <g id="论坛" transform="translate(9.000000, 12.000000)" fill="#FFFFFF">
                            <path d="M25.8177179,17.879545 L25.8177179,3.03625022 C25.8177179,1.34955052 24.4587818,0 22.7603056,0 L3.05744932,0 C1.358382,0 0,1.34955052 0,3.03625022 L0,23.2770501 C0,23.6817392 0.20348023,24.019512 0.543168088,24.1540782 C0.679264887,24.2215814 0.883299258,24.2892313 1.01880497,24.2892313 C1.22287629,24.2892313 1.42631957,24.2217281 1.63053866,24.0871619 L6.18228206,20.9157586 L22.827689,20.9157586 C24.4587818,20.9834085 25.8177179,19.5662447 25.8177179,17.879545 Z M5.77473052,18.891873 L5.77473052,18.9593395 C5.57113946,18.9593395 5.36706815,19.0268427 5.16347709,19.1614089 L1.97007875,21.3880976 L1.97007875,3.03625022 C1.97007875,2.49626125 2.44571563,2.02392224 2.98932703,2.02392224 L22.692331,2.02392224 C23.2360902,2.02392224 23.7109883,2.496408 23.7109883,3.03625022 L23.7109883,17.879545 C23.7109883,18.419534 23.2360902,18.891873 22.692331,18.891873 L5.77473052,18.891873 Z M13.9956569,11.6724784 L6.52182215,11.6724784 C5.97880183,11.6724784 5.50301718,12.1444139 5.50301718,12.6842194 C5.50301718,13.2240616 5.97880183,13.6965474 6.52182215,13.6965474 L13.9956569,13.6965474 C14.5393792,13.6965474 15.015016,13.2240616 15.015016,12.6842194 C15.015016,12.1444139 14.5392314,11.6724784 13.9956569,11.6724784 Z M19.4306996,6.94952851 L6.52182215,6.94952851 C5.97880183,6.94952851 5.50301718,7.42201427 5.50301718,7.96126951 C5.50301718,8.50125848 5.97880183,8.97359749 6.52182215,8.97359749 L19.4306996,8.97359749 C19.9744588,8.97359749 20.4500587,8.50111173 20.4500587,7.96126951 C20.4500587,7.42201427 19.9744588,6.94952851 19.4306996,6.94952851 Z M28.9425507,7.75920013 L28.807045,7.75920013 C28.2634336,7.75920013 27.7878336,8.23153914 27.7878336,8.77138137 C27.7878336,9.31078335 28.2634336,9.78312236 28.807045,9.78312236 L28.9425507,9.78312236 C29.4863099,9.78312236 29.9619467,10.2554614 29.9619467,10.7954503 L29.9619467,24.8966868 L27.2442222,22.8051146 C27.0405942,22.6701449 26.8364121,22.6024949 26.6329319,22.6024949 L10.5986675,22.6024949 C10.0549084,22.6024949 9.57927147,23.074834 9.57927147,23.6142359 C9.57927147,24.1542249 10.0550561,24.6265639 10.5986675,24.6265639 L26.2928007,24.6265639 L30.3694613,27.7977839 C30.5730893,27.93235 30.7771237,28 30.981195,28 C31.1167007,28 31.2527606,28 31.4563886,27.8654338 C31.796372,27.6628141 32,27.3254449 32,26.988259 L32,10.7954503 C32,9.10860391 30.6410639,7.75920013 28.9425507,7.75920013 Z" id="Fill-1"></path>
                        </g>
                    </g>
                </g>
            </g>
        </g>
    </g>
</svg>