<?xml version="1.0" encoding="UTF-8"?>
<svg width="40px" height="40px" viewBox="0 0 40 40" version="1.1" xmlns="http://www.w3.org/2000/svg" xmlns:xlink="http://www.w3.org/1999/xlink">
    <!-- Generator: Sketch 49.3 (51167) - http://www.bohemiancoding.com/sketch -->
    <title>Group 41</title>
    <desc>Created with Sketch.</desc>
    <defs></defs>
    <g id="Page-1" stroke="none" stroke-width="1" fill="none" fill-rule="evenodd">
        <g id="product" transform="translate(-300.000000, -2368.000000)">
            <g id="section-2" transform="translate(298.000000, 2130.000000)">
                <g id="Group-2" transform="translate(2.000000, 238.000000)">
                    <g id="Group-41">
                        <circle id="Oval" fill="#5E8DD4" cx="20" cy="20" r="20"></circle>
                        <g id="巡检_轨迹" transform="translate(6.000000, 6.000000)" fill="#FFFFFF">
                            <path d="M13.6537498,11.2482389 C15.5245677,11.2482389 17.0483741,9.78440136 17.0483741,7.98332892 C17.0483741,6.1823915 15.5245677,4.71845266 13.6537498,4.71845266 C11.782762,4.71845266 10.2591255,6.1823915 10.2591255,7.98332892 C10.2591255,9.78440136 11.7823883,11.2482389 13.6537498,11.2482389 Z M13.6537498,6.32186247 C14.595342,6.32186247 15.3576189,7.0742361 15.3576189,8.00233235 C15.3576189,8.92924721 14.595342,9.68290349 13.6537498,9.68290349 C12.7132108,9.68290349 11.9497108,8.92924721 11.9497108,8.00233235 C11.9497108,7.0742361 12.7132108,6.32186247 13.6537498,6.32186247 Z M10.3679446,16.1871043 C10.4169012,16.2564685 10.4650765,16.3120949 10.5044865,16.3521945 C11.6497874,17.7293521 12.8042614,18.6456008 12.8540334,18.6843502 L13.6582684,19.3194967 L14.4591738,18.6793546 C14.5089459,18.6405714 15.6596827,17.7136903 16.8028433,16.3414945 C16.8418795,16.3002473 16.8916176,16.2427307 16.9403364,16.1722189 C18.5749324,14.0583831 20.6070253,10.9948149 21.0664571,8.34287508 C21.1548577,7.73820836 21.1573718,7.37221521 21.1573718,7.33211562 C21.1727621,5.35025749 20.3768848,3.48775302 18.9175952,2.09368468 C17.5043745,0.743260087 15.634338,0 13.6537498,0 C11.6806019,0 9.81545771,0.743260087 8.40220303,2.09368468 C6.9350994,3.49524638 6.13419393,5.36726944 6.14958419,7.36350671 C6.14958419,7.3952691 6.15196238,7.7626124 6.23716943,8.33828456 C6.73033749,11.1761069 9.02409896,14.4570838 10.3679446,16.1871043 Z M13.6537498,2.06479137 C16.7471257,2.06479137 19.2793854,4.52038499 19.2569285,7.57143052 C19.2569285,7.57143052 19.2569285,7.84753713 19.1896598,8.30530703 C18.8195459,10.4418254 17.0719861,13.0884659 15.6708262,14.896154 C15.6596827,14.9176553 15.6372598,14.9382114 15.6263541,14.9494176 C14.6510596,16.1289464 13.6537498,16.9266515 13.6537498,16.9266515 C13.6537498,16.9266515 12.6558965,16.1396464 11.6809756,14.9600839 C11.6701039,14.9494176 11.647681,14.9275451 11.6361298,14.9068203 C10.2349699,13.1103721 8.48741008,10.4524916 8.1177039,8.32589689 C8.05040121,7.86940963 8.05040121,7.59212164 8.05040121,7.59212164 C8.02757061,4.54134614 10.560238,2.06479137 13.6537498,2.06479137 Z M5.56047327,25.9999939 L24.0855317,25.9999939 C25.6793927,25.9999939 27,24.7977826 27,23.2774073 C27,21.756897 25.6793927,20.5551919 24.0855317,20.5551919 L2.9139587,20.5551919 C2.31540298,20.5551919 1.85848528,20.1392093 1.85848528,19.6645287 C1.85848528,19.1894768 2.31540298,18.7734942 2.9139587,18.7734942 L6.22218685,18.7734942 C6.46768371,18.7745405 6.70363384,18.6786796 6.87788701,18.5069061 C7.05214018,18.335234 7.1506311,18.1015897 7.1514125,17.8576506 C7.1504952,17.6138802 7.05200428,17.3803709 6.87775112,17.2085638 C6.70349795,17.0368916 6.46768371,16.9408956 6.22218685,16.941942 L2.9139587,16.941942 C1.32060731,16.941942 0,18.1437821 0,19.6645287 C0,21.184904 1.32060731,22.3867441 2.9139587,22.3867441 L24.0855317,22.3867441 C24.684563,22.3867441 25.1415147,22.8023216 25.1415147,23.2774073 C25.1415147,23.7523241 24.684563,24.1679017 24.0855317,24.1679017 L5.56047327,24.1679017 C5.04926496,24.166079 4.63335401,24.576256 4.63121364,25.0841504 C4.63348991,25.5919097 5.04940086,26.0018167 5.56047327,25.9999939 Z" id="Fill-1"></path>
                        </g>
                    </g>
                </g>
            </g>
        </g>
    </g>
</svg>