<?xml version="1.0" encoding="UTF-8"?>
<svg width="50px" height="50px" viewBox="0 0 50 50" version="1.1" xmlns="http://www.w3.org/2000/svg" xmlns:xlink="http://www.w3.org/1999/xlink">
    <!-- Generator: Sketch 49.3 (51167) - http://www.bohemiancoding.com/sketch -->
    <title>Group 58</title>
    <desc>Created with Sketch.</desc>
    <defs></defs>
    <g id="Page-1" stroke="none" stroke-width="1" fill="none" fill-rule="evenodd">
        <g id="product" transform="translate(-953.000000, -4946.000000)">
            <g id="section-5" transform="translate(545.000000, 4655.000000)">
                <g id="Group-10-Copy" transform="translate(56.000000, 291.000000)">
                    <g id="Group-58" transform="translate(352.000000, 0.000000)">
                        <rect id="Rectangle-9-Copy-4" fill="#5E8DD4" x="0" y="0" width="50" height="50" rx="8"></rect>
                        <g id="语音" transform="translate(7.000000, 7.000000)" fill="#FFFFFF">
                            <path d="M12,13.5 C12,14.3285625 12.671625,15 13.5,15 C14.3285625,15 15,14.3285625 15,13.5 C15,12.671625 14.3285625,12 13.5,12 C12.671625,12 12,12.671625 12,13.5 Z" id="Fill-1"></path>
                            <path d="M23.8467849,25.7058655 L28.7874799,26.9215068 L28.2665663,29 L23.3256783,27.7844065 L23.8467849,25.7058655 Z M23.5893435,24.1415938 L31,24.1415938 L31,22 L23.5893435,22 L23.5893435,24.1415938 Z M16.1786387,26.6006979 C10.8485973,26.6006979 8.11588725,23.9427315 8,23.8280989 L9.5323459,22.3174148 L9.52838971,22.3136861 C9.5323459,22.3174148 10.0996241,22.8604618 11.1959213,23.3920838 C12.6625077,24.103351 14.3415219,24.462785 16.1786387,24.462785 L16.1786387,26.6006979 Z" id="Fill-2"></path>
                            <polygon id="Fill-3" points="19.0225814 32 17 32 17 16.6443996 21.204226 16.6294083 17.0504325 3.65765483 18.9684015 3 24 18.7142236 19.0225814 18.7291682"></polygon>
                            <path d="M18,36 C15.5722753,36 13.2125703,35.5234361 10.992781,34.5856235 C8.84866899,33.6780628 6.9239314,32.3809601 5.27141473,30.7283962 C3.61885079,29.0760213 2.32188991,27.1510947 1.41437654,25.0070299 C0.476374799,22.7872406 0,20.4276774 0,18 C0,15.5722753 0.476374799,13.2125703 1.41437654,10.992781 C2.32188991,8.84866899 3.61885079,6.9239314 5.27141473,5.27141473 C6.9239314,3.61885079 8.84866899,2.32188991 10.992781,1.41437654 C13.2125703,0.476374799 15.5722753,0 18,0 C20.4276774,0 22.7872406,0.476374799 25.0070299,1.41437654 C27.1510947,2.32188991 29.0760213,3.61885079 30.7283962,5.27141473 C32.3809601,6.9239314 33.6780628,8.84866899 34.5856235,10.992781 C35.5234361,13.2125703 36,15.5683992 36,18 C36,20.4313644 35.5234361,22.7872406 34.5856235,25.0070299 C33.6780628,27.1510947 32.3809601,29.0760213 30.7283962,30.7283962 C29.0760213,32.3809601 27.1510947,33.6780628 25.0070299,34.5856235 C22.7872406,35.5234361 20.4276774,36 18,36 Z M18,2.11768877 C15.855888,2.11768877 13.7760615,2.53738829 11.8171959,3.36549011 C9.92644452,4.16721595 8.22845528,5.30922976 6.76884252,6.76884252 C5.30922976,8.22845528 4.16333991,9.92644452 3.36549011,11.8171959 C2.53738829,13.7760615 2.11768877,15.855888 2.11768877,18 C2.11768877,20.1440647 2.53738829,22.2238912 3.36549011,24.1828041 C4.16721595,26.0735555 5.30922976,27.7713556 6.76884252,29.2309211 C8.22845528,30.690723 9.92644452,31.836471 11.8171959,32.6342735 C13.7760615,33.4626117 15.855888,33.8823112 18,33.8823112 C20.1440647,33.8823112 22.2238912,33.4626117 24.1828041,32.6342735 C26.0735555,31.8327368 27.7713556,30.690723 29.2309211,29.2309211 C30.690723,27.7713556 31.836471,26.0735555 32.6342735,24.1828041 C33.4626117,22.2238912 33.8823112,20.1440647 33.8823112,18 C33.8823112,15.855888 33.4626117,13.7760615 32.6342735,11.8171959 C31.8327368,9.92644452 30.690723,8.22845528 29.2309211,6.76884252 C27.7713556,5.30922976 26.0735555,4.16333991 24.1828041,3.36549011 C22.2238912,2.53738829 20.1440647,2.11768877 18,2.11768877 Z" id="Fill-4"></path>
                        </g>
                    </g>
                </g>
            </g>
        </g>
    </g>
</svg>