<?xml version="1.0" encoding="UTF-8"?>
<svg width="40px" height="40px" viewBox="0 0 40 40" version="1.1" xmlns="http://www.w3.org/2000/svg" xmlns:xlink="http://www.w3.org/1999/xlink">
    <!-- Generator: Sketch 49.3 (51167) - http://www.bohemiancoding.com/sketch -->
    <title>Group 51</title>
    <desc>Created with Sketch.</desc>
    <defs></defs>
    <g id="Page-1" stroke="none" stroke-width="1" fill="none" fill-rule="evenodd">
        <g id="product" transform="translate(-1050.000000, -4197.000000)">
            <g id="section-4" transform="translate(-3.000000, 219.000000)">
                <g id="Group-51" transform="translate(1053.000000, 3978.000000)">
                    <circle id="Oval-Copy-9" fill="#5E8DD4" cx="20" cy="20" r="20"></circle>
                    <g id="角度" transform="translate(6.000000, 8.000000)" fill="#FFFFFF">
                        <path d="M2.02551664,20 C3.14413657,20 4.05103328,19.100121 4.05103328,17.989939 C4.05103328,16.8798546 3.14413657,15.9798779 2.02551664,15.9798779 C0.906896709,15.9798779 0,16.8798546 0,17.989939 C0,19.100121 0.906896709,20 2.02551664,20 Z M2.02551664,19.1959707 C2.69667875,19.1959707 3.2407971,18.6560775 3.2407971,17.989939 C3.2407971,17.3238981 2.69667875,16.7839316 2.02551664,16.7839316 C1.35435452,16.7839316 0.810236177,17.3238981 0.810236177,17.989939 C0.810236177,18.6560775 1.35435452,19.1959707 2.02551664,19.1959707 Z M18.2902932,4.02012209 C19.4090116,4.02012209 20.3158099,3.12014541 20.3158099,2.01006105 C20.3158099,0.899976685 19.4090116,0 18.2902932,0 C17.1716733,0 16.264875,0.899976685 16.264875,2.01006105 C16.264875,3.12014541 17.1716733,4.02012209 18.2902932,4.02012209 Z M18.2902932,3.21606838 C18.9615537,3.21606838 19.5056721,2.6761019 19.5056721,2.01006105 C19.5056721,1.3440202 18.9615537,0.804053716 18.2902932,0.804053716 C17.6191311,0.804053716 17.0750128,1.3440202 17.0750128,2.01006105 C17.0750128,2.6761019 17.6191311,3.21606838 18.2902932,3.21606838 Z M24.9744834,20 C26.0932017,20 27,19.100121 27,17.989939 C27,16.8798546 26.0932017,15.9798779 24.9744834,15.9798779 C23.855888,15.9798779 22.9489667,16.8798546 22.9489667,17.989939 C22.9489667,19.100121 23.855888,20 24.9744834,20 Z M24.9744834,19.1959707 C25.6456701,19.1959707 26.1897884,18.6560775 26.1897884,17.989939 C26.1897884,17.3238981 25.6456701,16.7839316 24.9744834,16.7839316 C24.3033212,16.7839316 23.7592029,17.3238981 23.7592029,17.989939 C23.7592029,18.6560775 24.3033212,19.1959707 24.9744834,19.1959707 Z" id="Fill-1"></path>
                        <polygon id="Fill-2" points="3 18 23 18 23 17 3 17"></polygon>
                        <polygon id="Fill-3" points="3 16.1508819 17.1509792 2 18 2.84902083 3.84914237 17"></polygon>
                        <path d="M11.8698879,8 C14.4238668,10.5720628 16,14.1033314 16,18 L14.7698047,18 C14.7698047,14.4405267 13.3313145,11.2145656 11,8.86354232 L11.8698879,8 Z" id="Fill-4"></path>
                    </g>
                </g>
            </g>
        </g>
    </g>
</svg>