<?xml version="1.0" encoding="UTF-8"?>
<svg width="50px" height="50px" viewBox="0 0 50 50" version="1.1" xmlns="http://www.w3.org/2000/svg" xmlns:xlink="http://www.w3.org/1999/xlink">
    <!-- Generator: Sketch 49.3 (51167) - http://www.bohemiancoding.com/sketch -->
    <title>Group 56</title>
    <desc>Created with Sketch.</desc>
    <defs></defs>
    <g id="Page-1" stroke="none" stroke-width="1" fill="none" fill-rule="evenodd">
        <g id="product" transform="translate(-1279.000000, -4799.000000)">
            <g id="section-5" transform="translate(545.000000, 4655.000000)">
                <g id="Group-10" transform="translate(0.000000, 144.000000)">
                    <g id="Group-56" transform="translate(734.000000, 0.000000)">
                        <rect id="Rectangle-9-Copy-5" fill="#5E8DD4" x="0" y="0" width="50" height="50" rx="8"></rect>
                        <g id="显示器" transform="translate(10.000000, 12.000000)" fill="#FFFFFF">
                            <path d="M29,22.1691378 L29,0 L0,0 L0,22.1691378 L9.98143127,22.1691378 L9.98143127,25.6714242 L4.08505314,25.6714242 L4.08505314,27 L24.9147851,27 L24.9147851,25.6714242 L19.018407,25.6714242 L19.018407,22.1691378 L29,22.1691378 Z M27.3827816,1.63200667 L27.3827816,16.2026031 L1.61721836,16.2091311 L1.61721836,1.63200667 L27.3827816,1.63200667 Z M1.61721836,17.5375437 L27.3794663,17.5310157 L27.3794663,20.5404768 L1.61721836,20.5404768 L1.61721836,17.5375437 Z M11.2979279,25.6714242 L17.7020721,25.6714242 L17.7020721,22.1691378 L11.2979279,22.1691378 L11.2979279,25.6714242 Z" id="Fill-1"></path>
                        </g>
                    </g>
                </g>
            </g>
        </g>
    </g>
</svg>