<?xml version="1.0" encoding="UTF-8"?>
<svg width="50px" height="50px" viewBox="0 0 50 50" version="1.1" xmlns="http://www.w3.org/2000/svg" xmlns:xlink="http://www.w3.org/1999/xlink">
    <!-- Generator: Sketch 49.3 (51167) - http://www.bohemiancoding.com/sketch -->
    <title>Group 39</title>
    <desc>Created with Sketch.</desc>
    <defs></defs>
    <g id="Page-1" stroke="none" stroke-width="1" fill="none" fill-rule="evenodd">
        <g id="product" transform="translate(-1231.000000, -1941.000000)">
            <g id="section-1" transform="translate(-267.000000, 1573.000000)">
                <g id="Group-9" transform="translate(850.000000, 368.000000)">
                    <g id="Group-8" transform="translate(590.000000, 0.000000)">
                        <g id="Group-39" transform="translate(58.000000, 0.000000)">
                            <rect id="Rectangle-9-Copy-3" fill="#5E8DD4" x="0" y="0" width="50" height="50" rx="8"></rect>
                            <g id="导入导出" transform="translate(12.000000, 12.000000)" fill="#FFFFFF">
                                <g id="Group-3">
                                    <path d="M12.9873805,25.9999683 L23.3753634,25.9999683 C24.8039049,25.9999683 25.9746024,24.8311415 25.9746024,23.4007293 L25.9746024,2.62289268 C25.9665488,1.1895 24.8049195,0.0304390244 23.371622,0.0253658537 L20.6071561,0.0253658537 C20.2565049,0.0253658537 19.8575634,0.448341463 19.8631439,0.813831707 C19.7666585,1.5318439 20.2602463,1.92333415 20.6275756,1.92333415 L22.8501951,1.86217073 C23.1946317,1.86217073 23.5250854,1.99901951 23.7685976,2.24253171 C24.0121098,2.48613902 24.1489585,2.81646585 24.1489585,3.16093415 L24.2231537,17.5582756 L24.1156341,22.9350122 C24.1155073,23.3395341 23.9268805,23.720878 23.6053683,23.9664829 C23.4071976,24.0821829 23.1817585,24.1429976 22.952261,24.1428707 L12.9873805,24.1891951 L3.0242122,24.1428707 C2.79408049,24.143378 2.56803902,24.0825634 2.36926585,23.9664829 C2.04784878,23.720878 1.85922195,23.3395341 1.85909512,22.9350122 L1.74960976,17.5582756 L1.82380488,3.16093415 C1.82380488,2.81611707 1.96090732,2.48553659 2.20489512,2.24189756 C2.4487561,1.99829024 2.77959024,1.86166341 3.12440732,1.86217073 L5.34702683,1.92333415 C5.7143878,1.92333415 6.2079439,1.5318439 6.11145854,0.813831707 C6.11703902,0.448341463 5.71809756,0.0253658537 5.36560732,0.0253658537 L2.60110976,0.0253658537 C1.17440732,0.0253658537 0.0055804878,1.19419268 0,2.62463659 L0,23.4025683 C0,24.8292707 1.16882683,25.9999683 2.59927073,25.9999683 L12.9873805,25.9999683 Z" id="Fill-1"></path>
                                </g>
                                <path d="M11.5988842,19.9244637 L11.5988842,20.0497682 C11.5986312,20.3459663 11.4639792,20.6251172 11.2347103,20.8047129 C11.0053149,20.984341 10.7076131,21.0438274 10.429328,20.9656703 C10.214258,20.9444994 10.0189524,20.8279294 9.89454637,20.646418 L6.13459899,15.1288281 C5.97562865,14.8965649 5.95599058,14.5926713 6.0835906,14.3408932 C6.21131712,14.0889852 6.46503087,13.9313398 6.74148178,13.9318268 L9.74658093,13.9318268 L9.74658093,2.94976905 C9.74670743,2.42513936 10.1608778,2 10.6718155,2 C11.1827216,2 11.596892,2.42513936 11.5970185,2.94976905 L11.5970185,19.9244637 L11.5988842,19.9244637 Z M13.4030252,3.07328773 L13.4030252,2.94976905 C13.4031517,2.65370087 13.5377721,2.37454995 13.7671676,2.19492183 C13.9964365,2.01532619 14.2942648,1.9558398 14.572455,2.03396439 C14.7868926,2.05565484 14.9814707,2.17222479 15.1053708,2.35321668 L18.8654447,7.8689558 C19.0241937,8.10092674 19.0439583,8.40433331 18.9168326,8.6561114 C18.789612,8.90775961 18.5364991,9.06579468 18.2602696,9.06592457 L15.2533363,9.06592457 L15.2533363,20.0497682 C15.2534628,20.3893147 15.077068,20.7030145 14.7908455,20.8727066 C14.5045281,21.0424311 14.1518334,21.0424311 13.865516,20.8727066 C13.5792935,20.7030145 13.4028988,20.3893147 13.4030252,20.0497682 L13.4030252,3.07328773 Z" id="Fill-4"></path>
                            </g>
                        </g>
                    </g>
                </g>
            </g>
        </g>
    </g>
</svg>