<?xml version="1.0" encoding="UTF-8"?>
<svg width="50px" height="50px" viewBox="0 0 50 50" version="1.1" xmlns="http://www.w3.org/2000/svg" xmlns:xlink="http://www.w3.org/1999/xlink">
    <!-- Generator: Sketch 49.3 (51167) - http://www.bohemiancoding.com/sketch -->
    <title>Group 54</title>
    <desc>Created with Sketch.</desc>
    <defs></defs>
    <g id="Page-1" stroke="none" stroke-width="1" fill="none" fill-rule="evenodd">
        <g id="product" transform="translate(-627.000000, -4799.000000)">
            <g id="section-5" transform="translate(545.000000, 4655.000000)">
                <g id="Group-10" transform="translate(0.000000, 144.000000)">
                    <g id="Group-54" transform="translate(82.000000, 0.000000)">
                        <rect id="Rectangle-9" fill="#5E8DD4" x="0" y="0" width="50" height="50" rx="8"></rect>
                        <g id="Group-28" transform="translate(9.000000, 9.000000)" fill="#FFFFFF">
                            <path d="M32,16.0000228 C32,7.16080669 24.8390567,0 16.0000228,0 C7.16076116,0 0,7.16080669 0,16.0000228 C0,24.8390567 7.16076116,32 16.0000228,32 C20.2329689,32 24.0745168,30.358923 26.9276216,27.6736774 C27.1141924,27.6176788 27.2820516,27.5244844 27.4125783,27.3565798 C27.5244389,27.2447192 27.5989671,27.1141924 27.6550112,26.9649995 C30.3402113,24.0932285 32,20.2516806 32,16.0000228 Z M14.7504805,29.8181042 C14.7319964,29.7809084 14.6946641,29.7622422 14.6572861,29.7249098 C12.941681,28.2329803 11.5431279,26.4615131 10.4988227,24.503475 C11.8973758,23.9253238 13.3893054,23.5710759 14.9370514,23.4592154 L14.9370514,29.8181042 L14.7504805,29.8181042 Z M2.16309301,17.0256162 L6.28436066,17.0256162 C6.39622123,19.2634195 6.88104144,21.4451332 7.70157994,23.4965478 C6.91837382,23.94399 6.19116628,24.4474764 5.48248835,25.0256276 C3.59916059,22.8438684 2.38699627,20.0652918 2.16309301,17.0256162 Z M5.59434892,6.82517944 C6.28436066,7.38470994 7.0115682,7.86948462 7.75762404,8.31692691 C6.89970763,10.3870076 6.39622123,12.6247654 6.28436066,14.899719 L2.1817592,14.899719 C2.42414654,11.8228931 3.67364325,9.02560484 5.59434892,6.82517944 Z M17.2121416,2.1817592 C17.2493374,2.21913712 17.2680036,2.2564695 17.3240477,2.29361978 C18.9836543,3.72968736 20.3634956,5.44515597 21.3892712,7.32866584 C20.0092477,7.88815081 18.5546961,8.22373253 17.0629486,8.3355931 L17.0629486,2.1817592 L17.2121416,2.1817592 Z M29.8180587,14.899719 L25.6969731,14.899719 C25.5664009,12.6247654 25.06296,10.4056738 24.2050436,8.31692691 C24.9695835,7.88815081 25.6969731,7.38470994 26.3869849,6.82517944 C28.3263567,9.02560484 29.5756713,11.8228931 29.8180587,14.899719 Z M14.9370514,14.899719 L8.42896959,14.899719 C8.54083016,12.941681 8.98827245,11.039687 9.69695038,9.24937151 C11.356557,9.93938325 13.1282063,10.3496753 14.9370514,10.4615358 L14.9370514,14.899719 Z M14.9370514,17.0256162 L14.9370514,21.3146064 C13.0908739,21.426467 11.3007405,21.8554252 9.62242219,22.545437 C8.95107665,20.7924994 8.54083016,18.9276557 8.42896959,17.0256162 L14.9370514,17.0256162 Z M17.0629486,17.0256162 L23.5523642,17.0256162 C23.4405036,18.9463219 23.0302116,20.8111656 22.3588661,22.5641487 C20.6805933,21.8554252 18.8904599,21.4451332 17.0629486,21.3146064 L17.0629486,17.0256162 Z M17.0629486,14.899719 L17.0629486,10.4615358 C18.8717937,10.3496753 20.6432609,9.93938325 22.2843834,9.2680377 C22.9928792,11.0583532 23.4218375,12.9603471 23.5523642,14.899719 L17.0629486,14.899719 Z M23.3099769,6.37755504 C22.6759637,5.22143482 21.9486196,4.12131318 21.0908853,3.09553761 C22.4707267,3.63631087 23.7389351,4.40085079 24.8577229,5.33329539 C24.3542821,5.72487569 23.8321295,6.07935124 23.3099769,6.37755504 Z M14.9370514,2.16309301 L14.9370514,8.31692691 C13.4451218,8.20506633 11.9720861,7.86948462 10.6106833,7.30999964 C11.6363222,5.42667188 12.9976795,3.72968736 14.6572861,2.29361978 L14.7878129,2.16309301 C14.8251908,2.1817592 14.8810073,2.1817592 14.9370514,2.16309301 Z M8.69002312,6.37755504 C8.14920434,6.06063952 7.64576347,5.7062095 7.14209497,5.33329539 C8.26106491,4.40085079 9.52909123,3.65502259 10.8904485,3.11420381 C10.0511983,4.12131318 9.30537009,5.22143482 8.69002312,6.37755504 Z M8.59664663,25.4545858 C9.2308419,26.666568 9.99538182,27.8228704 10.8717823,28.8856596 C9.45456304,28.3263567 8.14920434,27.5244844 6.99308412,26.5547075 C7.51519118,26.1444154 8.05582785,25.7901675 8.59664663,25.4545858 Z M17.0629486,29.8367704 L17.0629486,23.4778816 C18.5920285,23.5897421 20.083958,23.94399 21.4824656,24.5221412 C20.4382059,26.4801793 19.0396529,28.2516465 17.3240477,29.743576 L17.2306712,29.8367704 C17.1748092,29.8181042 17.1188106,29.8181042 17.0629486,29.8367704 Z M23.3845051,25.4730699 C23.9253238,25.8088337 24.4661426,26.1630816 24.9695835,26.5733736 C23.8321295,27.5431506 22.5267708,28.3263567 21.1095515,28.8856596 C21.985952,27.8414 22.7504919,26.6852342 23.3845051,25.4730699 Z M24.298238,23.5150318 C25.1187765,21.4638449 25.6035967,19.2634195 25.7156393,17.0256162 L29.8367249,17.0256162 C29.6130037,20.083958 28.3821732,22.8623525 26.4988455,25.06296 C25.7901675,24.4848088 25.06296,23.9626562 24.298238,23.5150318 Z" id="网络"></path>
                        </g>
                    </g>
                </g>
            </g>
        </g>
    </g>
</svg>