<?xml version="1.0" encoding="UTF-8"?>
<svg width="40px" height="40px" viewBox="0 0 40 40" version="1.1" xmlns="http://www.w3.org/2000/svg" xmlns:xlink="http://www.w3.org/1999/xlink">
    <!-- Generator: Sketch 49.3 (51167) - http://www.bohemiancoding.com/sketch -->
    <title>Group 42</title>
    <desc>Created with Sketch.</desc>
    <defs></defs>
    <g id="Page-1" stroke="none" stroke-width="1" fill="none" fill-rule="evenodd">
        <g id="product" transform="translate(-300.000000, -2430.000000)">
            <g id="section-2" transform="translate(298.000000, 2130.000000)">
                <g id="Group-2" transform="translate(2.000000, 238.000000)">
                    <g id="Group-42" transform="translate(0.000000, 62.000000)">
                        <circle id="Oval-Copy-4" fill="#5E8DD4" cx="20" cy="20" r="20"></circle>
                        <g id="位置" transform="translate(8.000000, 7.000000)" fill="#FFFFFF">
                            <path d="M11.5,20.9999978 C11.2851486,21.0002359 11.0778779,20.924225 10.9184941,20.7867863 C10.5950471,20.5094089 3,13.9033926 3,8.10897311 C3,3.63730442 6.81491568,0 11.5,0 C16.1851155,0 20,3.63730442 20,8.10897311 C20,13.7771443 12.4114106,20.4990519 12.0881196,20.7826197 C11.9276127,20.9229452 11.7176591,21.000474 11.5,20.9999978 Z M11.5,1.65616918 C7.7667572,1.66072269 4.74177234,4.54735224 4.73824711,8.10897311 C4.73824711,12.3113893 9.75529518,17.387574 11.4956325,19.0229697 C13.2338484,17.3648065 18.2617529,12.2161822 18.2617529,8.10897311 C18.2582277,4.54735224 15.2332428,1.66072269 11.5,1.65616918 Z" id="Fill-1"></path>
                            <path d="M10.997874,12.1157845 C9.07011962,12.1157845 7.50107122,10.5188427 7.50107122,8.55681802 C7.50107122,6.59479339 9.07011962,5 10.997874,5 C12.9256284,5 14.4946768,6.59697253 14.4946768,8.55896647 C14.4946768,10.5209911 12.9256284,12.1157845 10.997874,12.1157845 Z M10.997874,6.70798594 C9.99343695,6.70918293 9.18015898,7.5388217 9.18133506,8.56114561 C9.18251115,9.58331607 9.9976588,10.4110519 11.002126,10.4099777 C12.0064726,10.4087807 12.819841,9.57914194 12.8186649,8.55681802 C12.8174889,7.5345248 12.0023412,6.70678894 10.997874,6.70798594 Z M10.997874,25 C5.70135935,25 0,23.7766427 0,21.0931076 C0,19.131083 2.91147423,18.1575902 5.35528875,17.6836425 C5.80998137,17.5968452 6.24796755,17.9012496 6.33418364,18.3639027 C6.42027911,18.8265864 6.12227722,19.272942 5.66779569,19.3616422 C2.62628866,19.9487518 1.68225414,20.8347413 1.68225414,21.0931076 C1.68225414,21.7314117 4.94830297,23.2941932 11.0000151,23.2941932 C17.051697,23.2941932 20.3176252,21.7335601 20.3176252,21.0931076 C20.3176252,20.8325929 19.3548638,19.9337741 16.2524416,19.3467872 C15.9501877,19.2988154 15.6975103,19.0873467 15.5930197,18.7947894 C15.4884084,18.5022628 15.5485999,18.174962 15.7499215,17.940689 C15.9513638,17.706324 16.2620011,17.6021242 16.5608473,17.6686647 C19.0423569,18.1384077 22,19.1119004 22,21.0931076 C21.995748,23.7766427 16.2964996,25 10.997874,25 Z" id="Fill-3"></path>
                        </g>
                    </g>
                </g>
            </g>
        </g>
    </g>
</svg>