<?xml version="1.0" encoding="UTF-8"?>
<svg width="40px" height="40px" viewBox="0 0 40 40" version="1.1" xmlns="http://www.w3.org/2000/svg" xmlns:xlink="http://www.w3.org/1999/xlink">
    <!-- Generator: Sketch 49.3 (51167) - http://www.bohemiancoding.com/sketch -->
    <title>Group 52</title>
    <desc>Created with Sketch.</desc>
    <defs></defs>
    <g id="Page-1" stroke="none" stroke-width="1" fill="none" fill-rule="evenodd">
        <g id="product" transform="translate(-1050.000000, -4263.000000)">
            <g id="section-4" transform="translate(-3.000000, 219.000000)">
                <g id="Group-52" transform="translate(1053.000000, 4044.000000)">
                    <circle id="Oval-Copy-10" fill="#5E8DD4" cx="20" cy="20" r="20"></circle>
                    <g id="绘制" transform="translate(10.000000, 10.000000)" fill="#FFFFFF">
                        <path d="M4.45111979,0.419196217 L0.418232841,4.45221829 C-0.138782289,5.0083982 -0.139474392,5.91083188 0.416541032,6.46788337 L0.418232841,6.46960093 L4.45111979,10.5004184 L7.4749455,7.47636961 L6.46824254,6.46960093 L4.45111979,8.48616324 L3.4443912,7.47936892 L5.46082185,5.46211446 L4.4541189,4.45534578 L2.43697051,6.47190809 L1.43026755,5.46511377 L5.46312887,1.43047668 L9.49147869,5.4598073 L10.4988994,4.45232083 L6.46603807,0.41770938 C5.91130432,-0.138367982 5.01082643,-0.139367753 4.454811,0.415504758 L4.45111979,0.419196217 Z M19.5727348,15.5410295 L15.5391814,19.5749488 L14.5324784,18.5673854 L16.5489091,16.5508231 L15.5421805,15.5440288 L13.5250577,17.5598989 L12.5183291,16.5531046 L14.5347598,14.5365423 L13.5273647,13.5289789 L10.4988994,16.5486185 L14.5317607,20.5817431 C15.0879043,21.1387946 15.990279,21.1395124 16.5472942,20.5833325 L20.5817704,16.5486185 C21.1387855,15.9924386 21.1395033,15.0900049 20.5833597,14.5329534 L20.5817704,14.5312358 L16.5466021,10.5004184 L15.5391814,11.5071871 L19.5727348,15.5410295 Z M14.4618839,3.44093783 L17.5601235,6.53717514 L16.527864,7.5701942 L13.4288297,4.47106012 L14.4618839,3.44093783 Z M4.1355975,13.7633866 L7.23383715,16.8596239 L6.200783,17.892643 L3.10254335,14.7965082 L4.1355975,13.7633866 Z M14.4595769,1.37710433 C15.6010606,0.234751417 17.4524886,0.234136173 18.5946644,1.37572003 L18.5983813,1.37930895 L19.6216178,2.40112546 C20.7625119,3.54347837 20.7635116,5.39371992 19.6239248,6.53717514 L6.81908774,19.3382339 L0.518972346,20.4742806 L1.65486795,14.1751638 L14.4595769,1.37710433 Z M6.32925791,17.7634675 L18.6096856,5.49136415 C19.1693154,4.93087755 19.1625994,4.00601312 18.5908707,3.43642605 L17.5684288,2.41463517 C16.9921885,1.83835733 16.0763818,1.83164092 15.5121381,2.39592153 L3.23112079,14.6702295 L2.58497812,18.4133695 L6.33005255,17.76498 L6.32925791,17.7634675 Z" id="Fill-1"></path>
                    </g>
                </g>
            </g>
        </g>
    </g>
</svg>