<?xml version="1.0" encoding="UTF-8"?>
<svg width="40px" height="40px" viewBox="0 0 40 40" version="1.1" xmlns="http://www.w3.org/2000/svg" xmlns:xlink="http://www.w3.org/1999/xlink">
    <!-- Generator: Sketch 49.3 (51167) - http://www.bohemiancoding.com/sketch -->
    <title>Group 44</title>
    <desc>Created with Sketch.</desc>
    <defs></defs>
    <g id="Page-1" stroke="none" stroke-width="1" fill="none" fill-rule="evenodd">
        <g id="product" transform="translate(-300.000000, -2553.000000)">
            <g id="section-2" transform="translate(298.000000, 2130.000000)">
                <g id="Group-2" transform="translate(2.000000, 238.000000)">
                    <g id="Group-44" transform="translate(0.000000, 185.000000)">
                        <circle id="Oval-Copy-6" fill="#5E8DD4" cx="20" cy="20" r="20"></circle>
                        <g id="Group-20" transform="translate(10.000000, 10.000000)" fill="#FFFFFF">
                            <path d="M19.0043366,7.24361153 L8.92351493,17.2781177 C7.30555277,18.908668 4.56752092,18.908668 2.82517679,17.2781177 C1.20728754,15.6474449 1.20728754,12.8879692 2.82517679,11.2573944 L11.9104079,2.22635844 C13.0304533,1.097531 14.897301,1.097531 16.0174436,2.22635844 C17.137489,3.35528387 17.137489,5.11131388 16.0174436,6.24014131 L6.93221241,15.2711773 C6.43436855,15.7729001 5.43870513,15.7729001 4.94088558,15.2711773 C4.44313895,14.7694299 4.44313895,13.7660577 4.94088558,13.2643348 L13.0304533,5.23676909 L11.9104079,4.23329887 L3.8208402,12.2608646 C2.70077051,13.3896921 2.70077051,15.1457221 3.8208402,16.2746475 C4.94088558,17.4034749 6.80770891,17.4034749 7.92785152,16.2746475 L17.0130098,7.24361153 C18.6309962,5.61306123 18.6309962,2.85356101 17.0130098,1.22298622 C15.2706656,-0.407662072 12.5326338,-0.407662072 10.9147445,1.22298622 L1.20728754,10.7556715 C-0.535080894,13.0134244 -0.410601698,16.2746475 1.7051071,18.2814899 C3.8208402,20.4138856 7.05669161,20.5392428 9.2968796,18.7832128 L20,8.24708175 L19.0043366,7.24361153 Z" id="关联-(1)"></path>
                        </g>
                    </g>
                </g>
            </g>
        </g>
    </g>
</svg>