<?xml version="1.0" encoding="UTF-8"?>
<svg width="40px" height="40px" viewBox="0 0 40 40" version="1.1" xmlns="http://www.w3.org/2000/svg" xmlns:xlink="http://www.w3.org/1999/xlink">
    <!-- Generator: Sketch 49.3 (51167) - http://www.bohemiancoding.com/sketch -->
    <title>Group 45</title>
    <desc>Created with Sketch.</desc>
    <defs></defs>
    <g id="Page-1" stroke="none" stroke-width="1" fill="none" fill-rule="evenodd">
        <g id="product" transform="translate(-300.000000, -2617.000000)">
            <g id="section-2" transform="translate(298.000000, 2130.000000)">
                <g id="Group-2" transform="translate(2.000000, 238.000000)">
                    <g id="Group-45" transform="translate(0.000000, 249.000000)">
                        <circle id="Oval-Copy-7" fill="#5E8DD4" cx="20" cy="20" r="20"></circle>
                        <g id="功能" transform="translate(10.000000, 9.000000)" fill="#FFFFFF">
                            <path d="M10.5018498,1.77813656 C10.842558,1.77813656 11.0756922,1.85816061 11.1581656,1.90610167 L18.5521202,6.13989854 C18.8533561,6.31227756 19.208436,6.92224928 19.208436,7.2671484 L19.208436,15.7327669 C19.208436,16.0777507 18.8533561,16.6876096 18.5521202,16.8601297 L11.1581656,21.0938137 C11.0756922,21.1418676 10.842558,21.2236411 10.5018498,21.2236411 C10.1611131,21.2236411 9.92789365,21.1436171 9.84539171,21.0955631 L2.44967272,16.8618791 C2.14840834,16.6893873 1.79335691,16.0795284 1.79335691,15.7346293 L1.79335691,7.2671484 C1.79335691,6.92224928 2.14840834,6.31227756 2.44967272,6.13989854 L9.84362727,1.90610167 C10.0502663,1.81416995 10.275375,1.77029217 10.5018498,1.77813656 Z M10.5018498,0 C9.93865106,0 9.37559458,0.122688488 8.94871326,0.366259562 L1.55299427,4.59997178 C0.699345449,5.0890327 0,6.2892523 0,7.2671484 L0,15.7327669 C0,16.7107759 0.699345449,17.9109955 1.55299427,18.3999436 L8.94694881,22.6336276 C9.37383014,22.8773397 9.93688661,23 10.4999431,23 C11.0631134,23 11.6261699,22.8773397 12.0530512,22.6336276 L19.4470057,18.3999436 C20.3006546,17.9109955 21,16.7107759 21,15.7327669 L21,7.2671484 C21,6.2892523 20.3006546,5.0890327 19.4470057,4.59997178 L12.0548441,0.368037247 C11.6279628,0.122688488 11.0649063,0 10.5018498,0 Z" id="Fill-1"></path>
                            <path d="M17.1235913,7.00000469 C16.9702771,7.00044126 16.8197626,7.04008683 16.6869051,7.11523061 L10.4021612,11.4137329 C10.0093266,11.6622749 9.8838147,12.1705732 10.1171538,12.5687751 C10.3504929,12.9669771 10.8602742,13.1146999 11.2755336,12.9044937 L17.5602774,8.60599144 C17.9043819,8.41212923 18.0727475,8.01447295 17.9702147,7.63747166 C17.8676819,7.26038852 17.5201125,6.99872228 17.1235913,7.00000469 Z" id="Fill-2"></path>
                            <path d="M3.87439405,7.00002369 C3.47930543,6.99713991 3.13196083,7.25784918 3.02965617,7.63415416 C2.92735152,8.01045913 3.09594584,8.40735859 3.43961995,8.59961909 L9.69687312,12.8854204 C10.1127704,13.1216721 10.6441364,12.980857 10.8837672,12.5708445 C11.1234256,12.1608593 10.9805799,11.6370466 10.5646827,11.4008222 L4.30742949,7.11491205 C4.17581608,7.03987958 4.02651255,7.00024133 3.87439405,7.00002369 Z" id="Fill-3"></path>
                            <path d="M11.0000159,12 C10.7348092,12 10.4804253,12.0959888 10.2929461,12.2667447 C10.1053717,12.4376452 10,12.6693772 10,12.9109682 L10,19.0890318 C10,19.5921922 10.4476712,20 11.0000159,20 C11.5523288,20 12,19.5921922 12,19.0890318 L12,12.9109682 C12,12.4078078 11.5523288,12 11.0000159,12 Z" id="Fill-4"></path>
                        </g>
                    </g>
                </g>
            </g>
        </g>
    </g>
</svg>