<?xml version="1.0" encoding="UTF-8"?>
<svg width="40px" height="40px" viewBox="0 0 40 40" version="1.1" xmlns="http://www.w3.org/2000/svg" xmlns:xlink="http://www.w3.org/1999/xlink">
    <!-- Generator: Sketch 49.3 (51167) - http://www.bohemiancoding.com/sketch -->
    <title>Group 43</title>
    <desc>Created with Sketch.</desc>
    <defs></defs>
    <g id="Page-1" stroke="none" stroke-width="1" fill="none" fill-rule="evenodd">
        <g id="product" transform="translate(-300.000000, -2494.000000)">
            <g id="section-2" transform="translate(298.000000, 2130.000000)">
                <g id="Group-2" transform="translate(2.000000, 238.000000)">
                    <g id="Group-43" transform="translate(0.000000, 126.000000)">
                        <circle id="Oval-Copy-5" fill="#5E8DD4" cx="20" cy="20" r="20"></circle>
                        <g id="云端下载" transform="translate(6.000000, 10.000000)" fill="#FFFFFF">
                            <path d="M17.7202413,18.2390982 L15.4570231,19.8541336 C15.184868,20.0479214 14.7987178,20.048746 14.5256378,19.8558516 L12.2604927,18.2390982 C11.955195,18.0058313 11.9123023,17.5987396 12.1633771,17.3187437 C12.4146445,17.0387823 12.869585,16.9868307 13.1918779,17.2011998 L14.2455055,17.9541546 L14.2455055,11.6650202 C14.2455055,11.4274584 14.3875949,11.2078666 14.6183602,11.0890857 C14.8491639,10.9703048 15.1335355,10.9703048 15.3643007,11.0890857 C15.595066,11.2078666 15.737194,11.4274584 15.737194,11.6650202 L15.737194,17.9524022 L16.7888561,17.2011998 C16.996884,17.0528697 17.2777871,17.014765 17.5258944,17.1010761 C17.7738091,17.1874903 17.951469,17.3853325 17.9915099,17.6200768 C18.0315509,17.8548212 17.928115,18.0907681 17.7202413,18.2390982 Z" id="Fill-1"></path>
                            <path d="M23.0095105,16.9996947 L18.8735396,16.9996947 C18.4974975,16.9996947 18.1926669,16.6807737 18.1926669,16.2872391 C18.1926669,15.8938149 18.4974975,15.5748939 18.8735396,15.5748939 L23.0095105,15.5748939 C24.4831044,15.5748939 25.6378648,14.3667931 25.6378648,12.8250841 C25.6378648,11.2835223 24.4831044,10.0754214 23.0095105,10.0754214 C22.8289483,10.0754214 22.6557747,10.0003661 22.5280935,9.86678293 C22.4004123,9.73319981 22.3286729,9.55202149 22.3286729,9.36307628 C22.3286729,4.98501735 18.7528599,1.42292345 14.352027,1.42292345 C10.437572,1.42292345 6.98078499,4.15189891 6.31064329,7.7686187 C6.24921276,8.10421455 5.96883479,8.34693902 5.64229596,8.3472335 L4.95238108,8.3472335 C2.97084171,8.3472335 1.3603484,9.96801015 1.3603484,11.9600514 C1.3603484,13.988056 2.87887183,15.5748939 4.81548176,15.5748939 L9.77830201,15.5748939 C10.154309,15.5748939 10.4592803,15.8938149 10.4592803,16.2872391 C10.4592803,16.6807737 10.154309,16.9996947 9.77830201,16.9996947 L4.81727613,16.9996947 C3.53539748,17.0145291 2.30207217,16.4882579 1.39553198,15.5399613 C0.489132528,14.5916647 -0.0138871527,13.3011833 0.000291831082,11.9600514 C0.000291831082,9.18204519 2.22139622,6.92243275 4.95417545,6.92243275 L5.10370567,6.92243275 C6.13585125,2.93816612 10.007136,0 14.3538214,0 C19.2806136,0 23.3301736,3.84851172 23.6689563,8.70712388 C25.6039127,9.02287919 27.0230776,10.7782696 26.9997157,12.8271086 C27.0113967,13.9377369 26.5946823,15.0065123 25.8438647,15.791741 C25.0929063,16.5769698 24.0712102,17.0125045 23.0095105,16.9996947 Z" id="Fill-3"></path>
                        </g>
                    </g>
                </g>
            </g>
        </g>
    </g>
</svg>