<?xml version="1.0" encoding="UTF-8"?>
<svg width="50px" height="50px" viewBox="0 0 50 50" version="1.1" xmlns="http://www.w3.org/2000/svg" xmlns:xlink="http://www.w3.org/1999/xlink">
    <!-- Generator: Sketch 49.3 (51167) - http://www.bohemiancoding.com/sketch -->
    <title>Group 48</title>
    <desc>Created with Sketch.</desc>
    <defs></defs>
    <g id="Page-1" stroke="none" stroke-width="1" fill="none" fill-rule="evenodd">
        <g id="product" transform="translate(-1311.000000, -2965.000000)">
            <g id="section-3" transform="translate(0.000000, 2774.000000)">
                <g id="Group-10" transform="translate(459.000000, 191.000000)">
                    <g id="Group-48" transform="translate(852.000000, 0.000000)">
                        <rect id="Rectangle-9-Copy-5" fill="#5E8DD4" x="0" y="0" width="50" height="50" rx="8"></rect>
                        <g id="导入导出-(1)" transform="translate(12.000000, 11.000000)" fill="#FFFFFF">
                            <path d="M27.9642541,22.7857016 L15.5356574,22.7857016 C15.1213661,22.7857016 14.7072164,22.992865 14.5000885,23.4071563 L14.5000885,23.8214475 C14.5000885,24.0286109 14.5000885,24.4429022 14.7072164,24.6500301 L17.6071492,27.5499628 C18.0214405,27.9642541 18.6428951,27.9642541 19.0571863,27.5499628 C19.4714776,27.1358132 19.4714776,26.5143585 19.0571863,26.1000673 L18.0214405,24.8571934 L27.9642541,24.8571934 C28.5857087,24.8571934 29,24.4429022 29,23.8214475 C29,23.1999929 28.5857087,22.7857016 27.9642541,22.7857016 Z M16.5714033,2.48578306 L22.7857016,7.87146347 L22.7857016,8.28579014 L17.6071492,8.28579014 C16.9856946,8.28579014 16.5714033,7.87146347 16.5714033,7.25004425 L16.5714033,2.48578306 Z M2.07149179,25.8929393 L2.07149179,3.10709608 C2.07149179,2.48578306 2.48578306,2.07149179 3.10709608,2.07149179 L14.5000885,2.07149179 L14.5000885,7.25004425 C14.5000885,8.90720936 15.9499841,10.3571049 17.6071492,10.3571049 L22.7857016,10.3571049 L22.7857016,12.4285967 L24.8571934,12.4285967 L24.8571934,6.83575297 L16.9856946,0 L3.10709608,0 C1.45003717,0 0,1.45003717 0,3.10709608 L0,25.8929393 C0,27.5499628 1.45003717,29 3.10709608,29 L10.3571049,29 L10.3571049,26.9286498 L3.10709608,26.9286498 C2.48578306,26.9286498 2.07149179,26.5143585 2.07149179,25.8929393 Z M24.2357388,15.9499841 C23.8214475,16.3642753 23.8214475,16.9856946 24.2357388,17.4000212 L25.478648,18.6428951 L15.5356574,18.6428951 C14.9143798,18.6428951 14.5000885,19.0571863 14.5000885,19.678641 C14.5000885,20.3000602 14.9143798,20.7143869 15.5356574,20.7143869 L27.9642541,20.7143869 C28.3785808,20.7143869 28.7928721,20.5072235 29,20.0929322 L29,19.678641 C29,19.4714776 29,19.0571863 28.7928721,18.850023 L25.8929393,15.9499841 C25.2714847,15.5356574 24.6500301,15.5356574 24.2357388,15.9499841 Z" id="Fill-1"></path>
                            <path d="M27.9642541,22.7857016 L15.5356574,22.7857016 C15.1213661,22.7857016 14.7072164,22.992865 14.5000885,23.4071563 L14.5000885,23.8214475 C14.5000885,24.0286109 14.5000885,24.4429022 14.7072164,24.6500301 L17.6071492,27.5499628 C18.0214405,27.9642541 18.6428951,27.9642541 19.0571863,27.5499628 C19.4714776,27.1358132 19.4714776,26.5143585 19.0571863,26.1000673 L18.0214405,24.8571934 L27.9642541,24.8571934 C28.5857087,24.8571934 29,24.4429022 29,23.8214475 C29,23.1999929 28.5857087,22.7857016 27.9642541,22.7857016 Z M16.5714033,2.48578306 L22.7857016,7.87146347 L22.7857016,8.28579014 L17.6071492,8.28579014 C16.9856946,8.28579014 16.5714033,7.87146347 16.5714033,7.25004425 L16.5714033,2.48578306 Z M2.07149179,25.8929393 L2.07149179,3.10709608 C2.07149179,2.48578306 2.48578306,2.07149179 3.10709608,2.07149179 L14.5000885,2.07149179 L14.5000885,7.25004425 C14.5000885,8.90720936 15.9499841,10.3571049 17.6071492,10.3571049 L22.7857016,10.3571049 L22.7857016,12.4285967 L24.8571934,12.4285967 L24.8571934,6.83575297 L16.9856946,0 L3.10709608,0 C1.45003717,0 0,1.45003717 0,3.10709608 L0,25.8929393 C0,27.5499628 1.45003717,29 3.10709608,29 L10.3571049,29 L10.3571049,26.9286498 L3.10709608,26.9286498 C2.48578306,26.9286498 2.07149179,26.5143585 2.07149179,25.8929393 Z M24.2357388,15.9499841 C23.8214475,16.3642753 23.8214475,16.9856946 24.2357388,17.4000212 L25.478648,18.6428951 L15.5356574,18.6428951 C14.9143798,18.6428951 14.5000885,19.0571863 14.5000885,19.678641 C14.5000885,20.3000602 14.9143798,20.7143869 15.5356574,20.7143869 L27.9642541,20.7143869 C28.3785808,20.7143869 28.7928721,20.5072235 29,20.0929322 L29,19.678641 C29,19.4714776 29,19.0571863 28.7928721,18.850023 L25.8929393,15.9499841 C25.2714847,15.5356574 24.6500301,15.5356574 24.2357388,15.9499841 Z" id="Fill-3"></path>
                        </g>
                    </g>
                </g>
            </g>
        </g>
    </g>
</svg>