<?xml version="1.0" encoding="UTF-8"?>
<svg width="50px" height="50px" viewBox="0 0 50 50" version="1.1" xmlns="http://www.w3.org/2000/svg" xmlns:xlink="http://www.w3.org/1999/xlink">
    <!-- Generator: Sketch 49.3 (51167) - http://www.bohemiancoding.com/sketch -->
    <title>Group 38</title>
    <desc>Created with Sketch.</desc>
    <defs></defs>
    <g id="Page-1" stroke="none" stroke-width="1" fill="none" fill-rule="evenodd">
        <g id="product" transform="translate(-1028.000000, -1941.000000)">
            <g id="section-1" transform="translate(-267.000000, 1573.000000)">
                <g id="Group-9" transform="translate(850.000000, 368.000000)">
                    <g id="Group-5" transform="translate(424.000000, 0.000000)">
                        <g id="Group-38" transform="translate(21.000000, 0.000000)">
                            <rect id="Rectangle-9-Copy-2" fill="#5E8DD4" x="0" y="0" width="50" height="50" rx="8"></rect>
                            <g id="Group-19" transform="translate(11.000000, 11.000000)" fill="#FFFFFF">
                                <path d="M28.997571,8.95945257 C28.9962902,8.91588781 28.995721,8.87391063 28.9913096,8.83342762 C28.9121886,7.60446261 27.9918137,6.25488906 26.7846489,5.63438313 L16.7425875,0.458395248 C16.3942273,0.27965368 16.0440172,0.171465536 15.6966057,0.133363885 C15.2937905,0.0439931009 14.8818679,-0.000692291215 14.4686645,8.10678007e-06 C14.0141455,8.10678007e-06 13.5705839,0.0534718204 13.1620291,0.153582041 C12.8601549,0.202843366 12.5570474,0.304447769 12.2568808,0.458395248 L2.21477204,5.63438313 C1.00779694,6.25582292 0.0869003102,7.60717081 0.00834850141,8.8356222 C0.00426912004,8.87573166 0.0038896427,8.91915634 0.00260890669,8.96090006 C0.00184995202,8.97476794 0,8.99008331 0,9.00451151 L0,19.9951102 C0,20.0096784 0.00184995202,20.0252273 0.00260890669,20.0401691 C0.0038896427,20.0826599 0.00445885871,20.1258978 0.00834850141,20.1663808 C0.0879913075,21.3940851 1.00964689,22.7451061 2.21477204,23.3657522 L12.2577821,28.540526 C12.6046718,28.7196411 12.9554037,28.8270355 13.3037639,28.8664445 C13.7067688,28.9560021 14.1188338,29.0008743 14.5320372,28.9999871 C14.9860344,28.9999871 15.428505,28.9465234 15.8385302,28.8465532 C16.1394557,28.7967783 16.4431325,28.6948003 16.7423978,28.5407128 L26.7844591,23.3659389 C27.9929521,22.7441723 28.9132796,21.3928244 28.9911198,20.1641862 C28.9955313,20.1233297 28.9961005,20.0812124 28.9973812,20.0383481 C28.9973812,20.0246669 28.9999901,20.0093516 28.9999901,19.9952969 L28.9999901,9.00469828 C29.0001799,8.98975646 28.997571,8.97332045 28.997571,8.95945257 Z M13.374157,16.5013382 L13.374157,26.8019047 L3.39859903,21.6633181 C3.38489041,21.6551001 3.36952158,21.6470689 3.35695139,21.6397847 C3.36933184,21.6326407 3.38341994,21.6257301 3.39859903,21.6180724 L9.13933218,18.6577702 L12.1267675,20.1977586 L12.1267675,19.14422 L9.44504861,17.7624281 L9.42484144,17.7514552 C9.43115025,17.7485602 9.43745907,17.7441711 9.44504861,17.7414162 L12.0122602,16.4172437 C11.7576784,16.2067508 11.5030965,15.9937364 11.2579542,15.7732044 L8.9217968,16.9781224 L8.9217968,13.7547975 C8.61608037,13.6386248 8.31757401,13.5047554 8.02793793,13.3540764 L7.89730286,13.3540764 L7.89730286,17.0023562 C7.89730286,17.0095003 7.89730286,17.0153369 7.89787207,17.0231814 L7.89787207,17.0299052 L2.24906731,19.9411328 L2.24906731,9.05848884 L12.2565013,14.2164531 L12.26651,14.2212159 C12.3984259,14.2905086 12.5281122,14.3866499 12.649877,14.5011883 C12.6459874,14.5038965 12.641908,14.5057175 12.6392991,14.5090327 C13.1149265,14.9296451 13.4093535,15.5037847 13.4093535,16.1390923 C13.4093535,16.261662 13.3962141,16.3836713 13.374157,16.5013382 Z M14.4974099,12.7620534 C14.0921755,12.7620534 13.7098995,12.675204 13.3739672,12.5223772 L13.3739672,12.5263928 L3.36582167,7.37062306 C3.35064258,7.36184474 3.3371237,7.35474737 3.32431634,7.34727646 C3.33693396,7.3401791 3.35064258,7.33266149 3.36582167,7.32500381 L13.374157,2.16521847 L13.374157,8.15857081 L10.1994021,9.74870772 C10.5112376,9.92852323 10.7967469,10.1247748 11.051898,10.3489488 L13.9863488,8.88287572 L13.9863488,11.3074201 L14.0178928,11.3074201 C14.3308193,11.3109221 14.6786103,11.3172724 15.0130721,11.3421132 L15.0130721,8.89725723 L17.7042305,10.2887613 L17.7533729,10.2887613 C18.0442422,10.0848521 18.3466382,9.8971454 18.6592327,9.72699538 L15.6258332,8.15945798 L15.6258332,2.19734339 L25.6000629,7.33635025 C25.616001,7.34382117 25.6291878,7.35329989 25.642517,7.35969685 C25.6293776,7.36716777 25.616001,7.37482545 25.6013911,7.38248314 L15.6260229,12.5251321 L15.6260229,12.5201826 C15.2721129,12.680527 14.8870857,12.7629405 14.4974099,12.7620534 Z M26.7509228,19.9411328 L21.1015488,17.030092 C21.1015488,17.0273371 21.1023078,17.0257028 21.1023078,17.0224343 C21.1023078,17.015477 21.1030667,17.00894 21.1030667,17.002543 L21.1030667,13.16679 L20.9042206,13.16679 C20.6298111,13.3064961 20.3544528,13.4443811 20.0780036,13.5800715 L20.0780036,16.9781224 L17.6038114,15.7024175 C17.3818645,15.92972 17.1656099,16.1622522 16.9549525,16.3997338 L19.5701206,17.7470661 C19.5769986,17.749821 19.5833074,17.7532763 19.589047,17.7576654 C19.584019,17.7607472 19.5777102,17.7636888 19.5701206,17.7677044 L16.9744008,19.1157838 L16.9744008,20.1557815 L19.8642155,18.6572566 L25.6335992,21.6299325 C25.6492052,21.6370298 25.6623446,21.6459482 25.6756738,21.6527187 C25.6625344,21.6596293 25.6493475,21.6676606 25.6335992,21.675505 L15.6258332,26.83473 L15.6258332,16.5137119 C15.6026851,16.3917025 15.5882175,16.2665648 15.5882175,16.1390923 C15.5882175,15.5030843 15.882265,14.9281509 16.3588411,14.5080989 C16.3564219,14.5053907 16.352722,14.5031961 16.3501605,14.5011883 C16.4744868,14.3850156 16.6065923,14.2866797 16.7423978,14.2164531 L26.7509228,9.05848884 L26.7509228,19.9411328 Z" id="三维"></path>
                            </g>
                        </g>
                    </g>
                </g>
            </g>
        </g>
    </g>
</svg>