<?xml version="1.0" encoding="UTF-8"?>
<svg width="50px" height="50px" viewBox="0 0 50 50" version="1.1" xmlns="http://www.w3.org/2000/svg" xmlns:xlink="http://www.w3.org/1999/xlink">
    <!-- Generator: Sketch 49.3 (51167) - http://www.bohemiancoding.com/sketch -->
    <title>Group 55</title>
    <desc>Created with Sketch.</desc>
    <defs></defs>
    <g id="Page-1" stroke="none" stroke-width="1" fill="none" fill-rule="evenodd">
        <g id="product" transform="translate(-953.000000, -4799.000000)">
            <g id="section-5" transform="translate(545.000000, 4655.000000)">
                <g id="Group-10" transform="translate(0.000000, 144.000000)">
                    <g id="Group-55" transform="translate(408.000000, 0.000000)">
                        <rect id="Rectangle-9-Copy-4" fill="#5E8DD4" x="0" y="0" width="50" height="50" rx="8"></rect>
                        <g id="Group-29" transform="translate(8.000000, 8.000000)" fill="#FFFFFF">
                            <path d="M27.8709677,16.2580645 L30.1935484,16.2580645 L30.1935484,13.9354839 L27.8709677,13.9354839 L27.8709677,16.2580645 Z M19.7419355,16.2580645 L25.5483871,16.2580645 L25.5483871,13.9354839 L19.7419355,13.9354839 L19.7419355,16.2580645 Z M12.7741935,31.3548387 L24.3870968,31.3548387 L24.3870968,29.0322581 L12.7741935,29.0322581 L12.7741935,31.3548387 Z M12.7741935,25.5483871 L24.3870968,25.5483871 L24.3870968,23.2258065 L12.7741935,23.2258065 L12.7741935,25.5483871 Z M5.68107642,25.5483871 L7.92062535,25.5483871 L7.92062535,21.2348574 L5.68107642,21.2348574 L5.68107642,19.0783341 L30.3181712,19.0783341 L30.3181712,21.2348574 L28.0782711,21.2348574 L28.0782711,25.5483871 L30.3181712,25.5483871 C32.7667327,25.5483871 33.6774194,24.6712686 33.6774194,22.3136746 L33.6774194,13.6867118 C33.6774194,11.9026741 32.1704927,10.4516129 30.3181712,10.4516129 L5.68107642,10.4516129 C3.82835365,10.4516129 2.32258065,11.9026741 2.32258065,13.6867118 L2.32258065,22.3136746 C2.32258065,24.0562231 4.88284619,25.5483871 5.68107642,25.5483871 Z M36,13.5001134 L36,22.5002897 C36,27.1496301 32.9413378,28.1251606 30.3750346,28.1251606 L28.1248268,28.1251606 L28.1248268,36 L7.87441737,36 L7.87441737,28.1251606 L5.62456224,28.1251606 C3.74930504,28.1251606 0,25.6938926 0,22.5002897 L0,13.5001134 C0,10.3984704 2.52281679,7.8752425 5.62456224,7.8752425 L8.99987403,7.8752425 L8.99987403,0 L26.999874,0 L26.999874,7.8752425 L30.3750346,7.8752425 C33.476377,7.8752425 36,10.3984704 36,13.5001134 Z M10.4516129,33.6774194 L26,33.6774194 L26,21 L10.4516129,21 L10.4516129,33.6774194 Z M11.6129032,8.12903226 L25,8.12903226 L25,2.32258065 L11.6129032,2.32258065 L11.6129032,8.12903226 Z" id="打印-(1)"></path>
                        </g>
                    </g>
                </g>
            </g>
        </g>
    </g>
</svg>