<?xml version="1.0" encoding="UTF-8"?>
<svg width="50px" height="50px" viewBox="0 0 50 50" version="1.1" xmlns="http://www.w3.org/2000/svg" xmlns:xlink="http://www.w3.org/1999/xlink">
    <!-- Generator: Sketch 49.3 (51167) - http://www.bohemiancoding.com/sketch -->
    <title>Group 36</title>
    <desc>Created with Sketch.</desc>
    <defs></defs>
    <g id="Page-1" stroke="none" stroke-width="1" fill="none" fill-rule="evenodd">
        <g id="product" transform="translate(-647.000000, -1941.000000)">
            <g id="section-1" transform="translate(-267.000000, 1573.000000)">
                <g id="Group-9" transform="translate(850.000000, 368.000000)">
                    <g id="Group-3">
                        <g id="Group-36" transform="translate(64.000000, 0.000000)">
                            <rect id="Rectangle-9" fill="#5E8DD4" x="0" y="0" width="50" height="50" rx="8"></rect>
                            <g id="层级" transform="translate(9.000000, 10.000000)" fill="#FFFFFF">
                                <path d="M0.727690244,9.22693467 L15.9655207,16.193005 C16.1297963,16.2669749 16.306789,16.3054472 16.4839829,16.3054472 C16.6609756,16.3054472 16.8381293,16.2669749 17.0022439,16.193005 L32.2369354,9.22693467 C32.6877878,9.02106533 32.9677646,8.58371859 32.9646256,8.08844221 C32.9613256,7.59312563 32.6813488,7.15895477 32.2273573,6.95634171 L16.9958049,0.109306533 C16.66995,-0.0352964824 16.2979756,-0.0352964824 15.9719598,0.109306533 L0.737268293,6.95634171 C0.283276829,7.15895477 0.0033,7.59312563 3.38813179e-21,8.08844221 C-0.00313902439,8.58371859 0.276837805,9.01792965 0.727690244,9.22693467 Z M16.4839829,1.64337688 L30.8430073,8.09487437 L16.4839829,14.6620704 L2.12491829,8.09487437 L16.4839829,1.64337688 Z" id="Fill-1"></path>
                                <path d="M32.2304963,14.8035779 L28.1836098,12.9864925 C27.7780317,12.8032563 27.3015439,12.9864925 27.1179512,13.3885025 C26.9344793,13.7938492 27.1179512,14.2697889 27.5203902,14.4530653 L30.8430073,15.9420704 L16.4839829,22.5092663 L2.12491829,15.9420704 L5.44093537,14.4499296 C5.84667439,14.2664925 6.02700732,13.7905126 5.84337439,13.3853668 C5.65994268,12.9800603 5.18345488,12.7999598 4.77771585,12.9833568 L0.737268293,14.8035779 C0.283276829,15.0063116 0.0033,15.4403618 3.38813179e-21,15.9356382 C-0.00313902439,16.4309146 0.276837805,16.8682613 0.727690244,17.0741307 L15.9655207,24.040201 C16.1297963,24.1141709 16.306789,24.152804 16.4839829,24.152804 C16.6609756,24.152804 16.8381293,24.1141709 17.0022439,24.040201 L32.2369354,17.0741307 C32.6877878,16.8682613 32.9677646,16.4309146 32.9646256,15.9356382 C32.9613256,15.4403618 32.6844878,15.0063116 32.2304963,14.8035779 Z" id="Fill-3"></path>
                                <path d="M32.2304963,22.6509347 L28.1836098,20.8337286 C27.7780317,20.6504523 27.3015439,20.8337286 27.1179512,21.2357387 C26.9344793,21.6410452 27.1179512,22.1170251 27.5203902,22.3002613 L30.8430073,23.7892663 L16.4839829,30.3566633 L2.12491829,23.7892663 L5.44093537,22.2971256 C5.84667439,22.1137286 6.02700732,21.6377487 5.84337439,21.232603 C5.65994268,20.8272965 5.18345488,20.6471558 4.77771585,20.830593 L0.737268293,22.6509347 C0.283276829,22.8535075 0.0033,23.2877186 3.38813179e-21,23.7828342 C-0.00313902439,24.2781106 0.276837805,24.7156181 0.727690244,24.9213266 L15.9655207,31.8874372 C16.1297963,31.9613668 16.306789,32 16.4839829,32 C16.6609756,32 16.8381293,31.9613668 17.0022439,31.8874372 L32.2369354,24.9213266 C32.6877878,24.7156181 32.9677646,24.2781106 32.9646256,23.7828342 C32.9646256,23.2877186 32.6844878,22.8535075 32.2304963,22.6509347 Z" id="Fill-4"></path>
                            </g>
                        </g>
                    </g>
                </g>
            </g>
        </g>
    </g>
</svg>