<?xml version="1.0" encoding="UTF-8"?>
<svg width="50px" height="50px" viewBox="0 0 50 50" version="1.1" xmlns="http://www.w3.org/2000/svg" xmlns:xlink="http://www.w3.org/1999/xlink">
    <!-- Generator: Sketch 49.3 (51167) - http://www.bohemiancoding.com/sketch -->
    <title>Group 37</title>
    <desc>Created with Sketch.</desc>
    <defs></defs>
    <g id="Page-1" stroke="none" stroke-width="1" fill="none" fill-rule="evenodd">
        <g id="product" transform="translate(-846.000000, -1941.000000)">
            <g id="section-1" transform="translate(-267.000000, 1573.000000)">
                <g id="Group-9" transform="translate(850.000000, 368.000000)">
                    <g id="Group-4" transform="translate(215.000000, 0.000000)">
                        <g id="Group-37" transform="translate(48.000000, 0.000000)">
                            <rect id="Rectangle-9-Copy" fill="#5E8DD4" x="0" y="0" width="50" height="50" rx="8"></rect>
                            <g id="Group-18" transform="translate(7.000000, 8.000000)" fill="#FFFFFF">
                                <path d="M30.2725145,30.2996682 C24.0555507,36.5074323 14.0201884,36.5642123 7.72221739,30.4819113 L8.87878986,29.3272152 C14.5356014,34.7690314 23.5362319,34.7164048 29.115942,29.1447695 C34.6956522,23.5731342 34.7483551,14.5855293 29.2986522,8.93690409 L30.454971,7.78205605 C36.546087,14.0709128 36.4892246,24.0917521 30.2725145,30.2996682 Z M15.4242464,5.84520366 L21.2110145,0.070963429 L26.9936232,5.84520366 L21.2110145,11.6233947 L15.4242464,5.84520366 Z M21.2110145,2.38076082 L17.7415507,5.84520366 L21.2110145,9.30969715 L24.680529,5.84520366 L21.2110145,2.38076082 Z M26.5998986,11.6315495 C30.5605797,15.7930546 30.5037174,22.3656595 26.417442,26.4460213 C22.330913,30.5266364 15.7448261,30.5832138 11.5814493,26.628467 L12.7380217,25.4735683 C16.2643986,28.7882355 21.8115942,28.7356089 25.2608696,25.2913252 C28.7101449,21.8470416 28.7670072,16.3076711 25.4435797,12.7863976 L26.5998986,11.6315495 Z M17.7415507,8.15895185 L18.8979203,9.31385055 L17.7415507,10.4687492 L22.7529928,15.4728882 L19.669087,18.5525336 L20.8254565,19.7074323 L19.669087,20.862331 L18.5125145,19.7074323 L15.4284058,22.7870778 L3.85507246,11.2385973 L11.1837681,3.92045692 L16.5808188,9.30969715 L17.7415507,8.15895185 Z M6.17217391,11.2385973 L15.4284058,20.4814338 L20.4400507,15.4770922 L11.1837681,6.23420511 L6.17217391,11.2385973 Z M8.6758913,18.3621863 L8.09575362,17.7826856 L9.25207246,16.6277869 L10.4086449,17.7826856 L9.25207246,18.9375843 L11.5652174,21.2471284 L5.78656522,27.0255727 L0,21.2513325 L5.7826087,15.4770922 L8.6758913,18.3621863 Z M5.78656522,24.7157753 L9.25623188,21.2513325 L5.78656522,17.786839 L2.31710145,21.2513325 L5.78656522,24.7157753 Z" id="卫星"></path>
                            </g>
                        </g>
                    </g>
                </g>
            </g>
        </g>
    </g>
</svg>