<?xml version="1.0" encoding="UTF-8"?>
<svg width="50px" height="50px" viewBox="0 0 50 50" version="1.1" xmlns="http://www.w3.org/2000/svg" xmlns:xlink="http://www.w3.org/1999/xlink">
    <!-- Generator: Sketch 49.3 (51167) - http://www.bohemiancoding.com/sketch -->
    <title>Group 57</title>
    <desc>Created with Sketch.</desc>
    <defs></defs>
    <g id="Page-1" stroke="none" stroke-width="1" fill="none" fill-rule="evenodd">
        <g id="product" transform="translate(-627.000000, -4946.000000)">
            <g id="section-5" transform="translate(545.000000, 4655.000000)">
                <g id="Group-10-Copy" transform="translate(56.000000, 291.000000)">
                    <g id="Group-57" transform="translate(26.000000, 0.000000)">
                        <rect id="Rectangle-9" fill="#5E8DD4" x="0" y="0" width="50" height="50" rx="8"></rect>
                        <g id="用户组-(1)" transform="translate(9.000000, 11.000000)" fill="#FFFFFF">
                            <path d="M6.8878177,2.77463666 C6.26082882,3.07190822 5.6928583,3.47082156 5.21131526,3.9572063 C4.15820777,5.01731597 3.51039143,6.47988158 3.51039143,8.09639685 C3.51039143,9.71632351 4.15820777,11.1789328 5.21131526,12.2389988 C5.56464601,12.5992935 6.32660203,13.1207105 6.3093685,13.1103014 C2.79342446,14.2088111 1.15493971,17.1898365 0.455206273,19.5935944 C0.261177464,20.2619197 0.136515795,20.8986677 0.0707425834,21.4304939 C-0.00217518365,21.9797706 -0.0124806638,22.4241253 0.0117242244,22.7041212 C0.0532925477,23.2499865 0.306166514,23.5542558 0.704529612,23.5542558 L2.14915875,23.5612535 C2.57861149,23.5612535 2.66521216,22.3192033 2.16639228,22.3192033 L1.23106171,22.315617 C1.23461233,22.119856 1.25184587,21.8678509 1.28652944,21.5809884 C1.3453746,21.1156406 1.45635336,20.5523685 1.63648276,19.9400686 C2.25299295,17.8161317 3.71489892,15.1709965 6.86010548,14.2578388 C7.25859848,14.1283374 10.3484672,13.0962623 8.37392855,12.6132889 C8.04493259,12.5468544 7.72966284,12.4383461 7.43517725,12.3020219 C6.92942932,12.0710537 6.47226436,11.7492027 6.08425005,11.3608734 C5.25985494,10.524603 4.74717895,9.37343561 4.74717895,8.09980824 C4.74717895,6.82976719 5.25985494,5.67523214 6.08425005,4.83896178 C6.24355199,4.67442807 6.41675333,4.52751985 6.60030346,4.39097699 C8.6372812,3.46741017 8.3669572,2.0712791 6.8878177,2.77463666 Z M15.3713063,0 C17.3145821,0 19.0777285,0.797651729 20.3525337,2.08531826 C21.6273822,3.37635244 22.4170938,5.1538151 22.4170938,7.11662966 C22.4170938,9.08303055 21.6273822,10.8638609 20.3525337,12.1515274 C19.9229078,12.585473 18.9946784,13.2221774 19.0154626,13.2115933 C23.2831005,14.5447013 25.2784666,18.1660174 26.1270666,21.0840196 C26.3660412,21.9028832 26.5115303,22.6725003 26.5947102,23.3164211 C26.6813109,23.9845714 26.6952103,24.5270253 26.6708322,24.8628718 C26.6189151,25.5276544 26.3107466,25.8985332 25.8292036,25.9019446 L4.92730835,25.9964137 L4.25870785,26 L4.18241266,25.324677 C4.13404618,24.8909063 4.10966809,24.4675447 4.10966809,24.054636 C4.10966809,21.1750774 5.18711037,18.5089053 6.977969,16.4830676 C8.26650042,15.0240883 9.92576932,13.8975441 11.817128,13.2642074 C11.297524,12.9527654 10.8126035,12.5784753 10.3899056,12.1515274 C9.11172299,10.8604495 8.32538887,9.08303055 8.32538887,7.11662966 C8.32538887,5.1538151 9.11172299,3.37294106 10.3899056,2.08531826 C11.6647541,0.797651729 13.4244798,0 15.3713063,0 Z M15.9255939,14.2158088 C15.7419138,14.2298042 15.5583637,14.2368456 15.3713063,14.2368456 C15.1876262,14.2368456 15.0074968,14.2298042 14.8309181,14.2158088 C14.6438173,14.2263928 14.4567599,14.2438434 14.2766305,14.2612502 C11.8102,14.5376598 9.64180571,15.7378549 8.08992164,17.487283 C6.53803758,19.2437088 5.60625763,21.556409 5.60625763,24.054636 C5.60625763,24.1981328 5.60963506,24.3414985 5.61656311,24.4849953 L25.1849379,24.3941125 C25.1780098,24.1525165 25.1571824,23.8482472 25.1120201,23.501773 C25.0358981,22.9349145 24.9076858,22.2491825 24.6894954,21.5075562 C23.7993271,18.4390593 21.4506302,14.4642276 15.9255939,14.2158088 Z M14.8512454,14.2249143 C14.8130907,14.217064 14.7844597,14.217064 14.7512454,14.2088111 C14.7844597,14.217064 14.8179716,14.217064 14.8512454,14.2249143 Z M14.8655583,12.6973489 C15.0352091,12.6903512 15.2014823,12.6867649 15.3713063,12.6867649 C15.547885,12.6867649 15.7210864,12.6903512 15.8909103,12.6973489 C17.2141253,12.5714339 18.4023298,11.9801709 19.289164,11.0808337 C20.2936885,10.0662091 20.9137494,8.66308034 20.9137494,7.11662966 C20.9137494,5.57013524 20.2936885,4.17059279 19.289164,3.15596824 C18.2844663,2.1413437 16.8988555,1.51504845 15.3677556,1.51504845 C13.836699,1.51504845 12.4510883,2.14475508 11.4430131,3.15596824 C10.4384453,4.17059279 9.82193511,5.57013524 9.82193511,7.11662966 C9.82193511,8.66308034 10.4384453,10.0696205 11.4430131,11.0808337 C12.3436601,11.9835823 13.5352854,12.5784753 14.8655583,12.6973489 Z M24.1110462,2.77463666 C24.7380351,3.07190822 25.3095996,3.47082156 25.7911426,3.9572063 C26.8406562,5.01731597 27.4884725,6.47988158 27.4884725,8.09639685 C27.4884725,9.71632351 26.8406562,11.1789328 25.7911426,12.2389988 C25.4342612,12.5992935 24.6722619,13.1207105 24.6894954,13.1103014 C28.202062,14.2088111 29.8474748,17.1898365 30.543701,19.5935944 C30.7410639,20.2619197 30.8623481,20.8986677 30.9281646,21.4304939 C31.0008659,21.9797706 31.0113446,22.4241253 30.9905604,22.7041212 C30.9455714,23.2499865 30.6960748,23.5542558 30.2943776,23.5542558 L28.8497485,23.5612535 C28.4202957,23.5612535 28.3336951,22.3192033 28.8324716,22.3192033 L29.7678455,22.315617 C29.7642949,22.119856 29.7503955,21.8678509 29.7123345,21.5809884 C29.6534893,21.1156406 29.5425539,20.5523685 29.3623812,19.9400686 C28.745871,17.8161317 27.283965,15.1709965 24.1388017,14.2578388 C23.7403087,14.1283374 20.6503967,13.0962623 22.6249787,12.6132889 C22.9539313,12.5468544 23.2692444,12.4383461 23.5671074,12.3020219 C24.072812,12.0710537 24.5301935,11.7492027 24.9146572,11.3608734 C25.7390523,10.524603 26.2517283,9.37343561 26.2517283,8.09980824 C26.2517283,6.82976719 25.7390523,5.67523214 24.9146572,4.83896178 C24.7553119,4.67442807 24.5821106,4.52751985 24.3986038,4.39097699 C22.361626,3.46741017 22.6319067,2.0712791 24.1110462,2.77463666 Z" id="Fill-1"></path>
                        </g>
                    </g>
                </g>
            </g>
        </g>
    </g>
</svg>