<?xml version="1.0" encoding="UTF-8"?>
<svg width="40px" height="40px" viewBox="0 0 40 40" version="1.1" xmlns="http://www.w3.org/2000/svg" xmlns:xlink="http://www.w3.org/1999/xlink">
    <!-- Generator: Sketch 49.3 (51167) - http://www.bohemiancoding.com/sketch -->
    <title>Group 49</title>
    <desc>Created with Sketch.</desc>
    <defs></defs>
    <g id="Page-1" stroke="none" stroke-width="1" fill="none" fill-rule="evenodd">
        <g id="product" transform="translate(-1050.000000, -4048.000000)">
            <g id="section-4" transform="translate(-3.000000, 219.000000)">
                <g id="Group-49" transform="translate(1053.000000, 3829.000000)">
                    <circle id="Oval-Copy-7" fill="#5E8DD4" cx="20" cy="20" r="20"></circle>
                    <g id="坐标" transform="translate(9.000000, 9.000000)" fill="#FFFFFF">
                        <path d="M0,1.37478674 L5.39288448,1.37478674 L5.39288448,0 L0,0 L0,1.37478674 Z M1.34492442,12.1940668 L5.39288448,12.1940668 L5.39288448,10.81928 L1.34492442,10.81928 L1.34492442,12.1940668 Z M17.6070835,12.1940668 L21.6550756,12.1940668 L21.6550756,10.81928 L17.6070835,10.81928 L17.6070835,12.1940668 Z M17.6070835,1.37478674 L23,1.37478674 L23,0 L17.6070835,0 L17.6070835,1.37478674 Z M0,23 L5.39288448,23 L5.39288448,21.6250852 L0,21.6250852 L0,23 Z M17.6070835,23 L23,23 L23,21.6250852 L17.6070835,21.6250852 L17.6070835,23 Z" id="Fill-1"></path>
                        <path d="M0,4.99795792 L1.34492442,4.99795792 L1.34492442,1 L0,1 L0,4.99795792 Z M10.8275378,4.99795792 L12.1724622,4.99795792 L12.1724622,1 L10.8275378,1 L10.8275378,4.99795792 Z M21.6550756,4.99795792 L23,4.99795792 L23,1 L21.6550756,1 L21.6550756,4.99795792 Z M0,21 L1.34492442,21 L1.34492442,17.0020421 L0,17.0020421 L0,21 Z M21.6550756,21 L23,21 L23,17.0020421 L21.6550756,17.0020421 L21.6550756,21 Z M10.8275378,21 L12.1724622,21 L12.1724622,17.0020421 L10.8275378,17.0020421 L10.8275378,21 Z M14.9037918,9.75938851 C14.9037918,11.6160382 12.1724622,15.6312875 11.499936,15.6312875 C10.8275378,15.6312875 8.09620817,11.6160382 8.09620817,9.75938851 C8.09620817,7.90273879 9.62014645,6.39760514 11.499936,6.39760514 C13.3798215,6.39760514 14.9037918,7.90273879 14.9037918,9.75938851 Z" id="Fill-2"></path>
                    </g>
                </g>
            </g>
        </g>
    </g>
</svg>