<?xml version="1.0" encoding="UTF-8"?>
<svg width="177px" height="21px" viewBox="0 0 177 21" version="1.1" xmlns="http://www.w3.org/2000/svg" xmlns:xlink="http://www.w3.org/1999/xlink">
    <!-- Generator: Sketch 49.3 (51167) - http://www.bohemiancoding.com/sketch -->
    <title>Group 32</title>
    <desc>Created with Sketch.</desc>
    <defs></defs>
    <g id="Page-1" stroke="none" stroke-width="1" fill="none" fill-rule="evenodd">
        <g id="product" transform="translate(-303.000000, -509.000000)">
            <g id="header" transform="translate(237.000000, 192.000000)">
                <g id="Group-32" transform="translate(66.000000, 317.000000)">
                    <g id="windows" transform="translate(0.000000, 2.000000)" fill="#405A6C">
                        <path d="M8.05120612,8.99782264 C7.11936904,8.51538433 6.21377712,8.27031482 5.35813642,8.27031482 C5.24187652,8.27031482 5.12505508,8.27415287 5.0074524,8.28424006 C3.91626455,8.37487716 2.91938833,8.66521601 2.27812778,8.89077542 C2.10810804,8.95370964 1.93376701,9.01984224 1.75437226,9.09355254 L0,15.2231442 C1.20495753,14.773354 2.27126742,14.5548064 3.24756256,14.5548064 C4.82627542,14.5548064 5.97249264,15.1494093 6.91939321,15.7616033 C7.36809981,14.2279568 8.44373589,10.5245557 8.76504976,9.41722832 C8.53128483,9.27433466 8.29439489,9.13075212 8.05120612,8.99782264 Z M10.3193485,10.5559737 L8.55313544,16.7391013 C9.07745249,17.0414463 10.8400523,18 12.1899807,18 C13.2800211,18 14.4994073,17.7184936 15.9174999,17.1377421 L17.6043672,11.1940253 C16.4593951,11.5662426 15.3606633,11.7551683 14.3337333,11.7551683 C12.458731,11.7558572 11.1468398,11.1436632 10.3193485,10.5559737 Z M5.71939175,6.18118397 C7.22561917,6.19695443 8.33941448,6.77578692 9.26248689,7.37221048 L11.0737928,1.12614865 C10.6918588,0.90568204 9.69068566,0.356446849 8.96683223,0.169415585 C8.49065978,0.0572755566 7.98999999,0 7.45879817,0 C6.44683404,0.0189196319 5.34192547,0.27456839 4.08191416,0.78352863 L2.35434858,6.89668558 C3.61995071,6.41547741 4.71057704,6.18118397 5.71565639,6.18118397 L5.71939175,6.18118397 Z M20,2.82163306 C18.8512925,3.2713003 17.7306369,3.49993508 16.6593709,3.49993508 C14.8687437,3.49993508 13.5481122,2.87391423 12.6925692,2.27239787 L10.8968883,8.53614918 C12.1030909,9.31775878 13.4024822,9.714579 14.766229,9.714579 C15.8788036,9.714579 17.030636,9.44557086 18.1931619,8.91345929 L18.1893533,8.86991215 L18.2624979,8.85232108 L20,2.82163306 Z" id="Fill-1"></path>
                    </g>
                    <g id="苹果" transform="translate(40.000000, 2.000000)" fill="#4D6576">
                        <path d="M12.5278202,9.56504958 C12.553367,12.2870005 14.9718364,13.1927794 15,13.2053917 C14.9780354,13.2677061 14.6124658,14.4964611 13.7238204,15.7658875 C12.9558947,16.8628944 12.1605775,17.953727 10.9055045,17.976205 C9.67072307,17.9987929 9.27531673,17.2616762 7.86441065,17.2616762 C6.45431966,17.2616762 6.01309647,17.953727 4.84609651,17.9987929 C3.63602528,18.0439248 2.71299579,16.8150819 1.93880674,15.7225574 C0.355272352,13.4869273 -0.853104346,9.40627515 0.770948789,6.65187064 C1.5768407,5.28321575 3.01859165,4.41804234 4.58189884,4.39461948 C5.77178578,4.37385532 6.89556431,5.17860392 7.62125527,5.17860392 C8.34962747,5.17860392 9.7138587,4.21145541 11.1485741,4.35306919 C11.7484189,4.37745884 13.4349983,4.58945104 14.5173786,6.13586474 C14.4310645,6.19088427 12.5049332,7.28437557 12.5278202,9.56504958 Z M7.47595406,4.14828402 C7.3367875,3.11350366 7.85821165,2.03805192 8.45359484,1.36230479 C9.11853986,0.601765184 10.2405595,0.0360571317 11.1670853,0 C11.2859818,1.05374276 10.8509576,2.11203386 10.2088781,2.87437523 C9.56506116,3.63407987 8.50990067,4.2268143 7.47595406,4.14828402 Z" id="Fill-1"></path>
                    </g>
                    <g id="安卓" transform="translate(78.000000, 0.000000)" fill="#405A6C">
                        <path d="M16.7142878,6.56227883 C16.0071283,6.56227883 15.4286055,7.15289533 15.4286055,7.87483762 L15.4286055,13.1252551 C15.4286055,13.8471974 16.0071283,14.4378443 16.7142878,14.4378443 C17.4214474,14.4378443 18,13.8471974 18,13.1252551 L18,7.87483762 C18,7.15362475 17.4206436,6.56227883 16.7142878,6.56227883 Z M1.28571216,6.56227883 C0.57855261,6.56227883 0,7.15289533 0,7.87483762 L0,13.1252551 C0,13.8471974 0.57855261,14.4378443 1.28571216,14.4378443 C1.99284194,14.4378443 2.57139455,13.8471974 2.57139455,13.1252551 L2.57139455,7.87483762 C2.57139455,7.15362475 1.99284194,6.56227883 1.28571216,6.56227883 Z M3.2145781,15.0937742 C3.2145781,16.1814896 4.07814989,17.0621413 5.1427891,17.0621413 L5.78528793,17.0621413 L5.78528793,19.6874108 C5.78528793,20.4093531 6.36384054,21 7.07100009,21 C7.77812987,21 8.35668248,20.4093531 8.35668248,19.6874108 L8.35668248,17.0621413 L9.64239464,17.0621413 L9.64239464,19.6874108 C9.64239464,20.4093531 10.2209175,21 10.928077,21 C11.6352366,21 12.2137892,20.4093531 12.2137892,19.6874108 L12.2137892,17.0621413 L12.8561689,17.0621413 C13.921731,17.0621413 14.7843502,16.1806386 14.7843502,15.0937742 L14.7843502,7.87483762 L3.21448879,7.87483762 L3.21448879,15.0937742 L3.2145781,15.0937742 Z M11.3827562,1.83564483 L12.1965523,0.240162713 C12.2376053,0.160382529 12.207597,0.0605433268 12.1286466,0.0193615555 C12.0505001,-0.0225496347 11.9525861,0.00817713345 11.9123667,0.0886867365 L11.0860075,1.70827007 C10.438031,1.45291269 9.7347118,1.31268192 8.99998511,1.31268192 C8.26516912,1.31268192 7.56184992,1.45291269 6.91470694,1.70909066 L6.0891516,0.0878357479 C6.0480986,0.00817713345 5.95098845,-0.0232790535 5.87284187,0.0185105668 C5.79469529,0.0605433268 5.76388322,0.159683502 5.80493622,0.239342117 L6.61873235,1.83564483 C4.79787243,2.67678631 3.47985968,4.4527388 3.25170145,6.56309943 L14.7521389,6.56309943 C14.5208548,4.45188781 13.2028123,2.67678631 11.3827562,1.83564483 Z M6.42859057,5.54543859 C5.91401396,5.54543859 5.49642841,5.11909329 5.49642841,4.59375977 C5.49642841,4.06842625 5.91389488,3.64211134 6.42859057,3.64211134 C6.94319695,3.64211134 7.36066341,4.06842625 7.36066341,4.59375977 C7.36066341,5.11909329 6.94319695,5.54543859 6.42859057,5.54543859 Z M11.5713797,5.54543859 C11.0568031,5.54543859 10.6392175,5.11909329 10.6392175,4.59375977 C10.6392175,4.06842625 11.0568031,3.64211134 11.5713797,3.64211134 C12.085986,3.64211134 12.5035716,4.06842625 12.5035716,4.59375977 C12.5035716,5.11909329 12.085986,5.54543859 11.5713797,5.54543859 Z" id="andriod"></path>
                    </g>
                    <g id="手机" transform="translate(125.000000, 0.000000)" fill="#4D6576">
                        <path d="M0.00062917537,21 L0,0 L14,0 L13.9984134,21 L0.00062917537,21 Z M7.12940496,20.1561375 C7.85123324,20.1561375 8.43584658,19.5295286 8.43584658,18.7560221 C8.43584658,17.9824864 7.85123324,17.356112 7.12940496,17.356112 C6.40757668,17.356112 5.82307276,17.9824864 5.82307276,18.7560221 C5.82307276,19.5295286 6.40757668,20.1561375 7.12940496,20.1561375 Z M1.39939544,16.4939569 L12.5947231,16.4939569 L12.5947231,1.50078313 L1.39939544,1.50078313 L1.39939544,16.4939569 Z" id="Fill-1"></path>
                        <g id="Group-6" transform="translate(3.733333, 5.727273)">
                            <path d="M2.6776515,4.02937738 L2.6776515,7.01696518 L0,6.58551502 L0,4.02937738 L2.6776515,4.02937738 Z M2.6776515,0.619430585 L2.6776515,3.64371499 L0,3.64371499 L0,1.05084862 L2.6776515,0.619430585 Z M6.53333333,4.02937738 L6.53333333,7.63636364 L2.9721797,7.06277436 L2.9721797,4.02937738 L6.53333333,4.02937738 Z M6.53333333,6.48370246e-14 L6.53333333,3.64371499 L2.9721797,3.64371499 L2.9721797,0.573589274 L6.53333333,6.48370246e-14 Z" id="windows-(1)"></path>
                        </g>
                    </g>
                    <g id="Group-7" transform="translate(161.000000, 3.000000)" fill="#4D6576">
                        <path d="M15.9985939,8.39837838 C15.9985939,8.69357838 15.9985939,9.02566486 15.9622264,9.32084324 L5.6358988,9.32084324 C5.6358988,11.1290378 7.19940346,12.4575135 8.90829294,12.4575135 C10.0718189,12.4575135 11.1989774,11.8670486 11.7807936,10.8338595 L15.5622477,10.8338595 C14.5441917,13.748973 11.8535286,15.7047135 8.79919041,15.7047135 C7.70837816,15.7047135 6.61758722,15.4464432 5.6358988,14.9297946 C4.61775766,15.4464432 3.23611185,16 2.10893209,16 C0.581816245,16 0,15.0774486 0,13.601427 C0,12.7526919 0.18183755,11.9408649 0.4363249,11.1290378 C0.545448735,10.6124108 1.16352597,9.54231351 1.41803462,9.02566486 C2.50891079,7.03301622 3.9269241,5.04036757 5.67218109,3.52743784 C4.3269028,4.1179027 2.79976565,5.63081081 1.85435952,6.73783784 C2.58156059,3.45362162 5.49042876,1.09195676 8.79919041,1.09195676 L9.23551531,1.09195676 C10.3263063,0.575416216 11.8898109,0.0218594595 13.1260719,0.0218594595 C14.5441917,0.0218594595 15.816735,0.575416216 15.816735,2.23589189 C15.816735,3.08462703 15.4895126,4.04408649 15.1259228,4.85591351 C15.7077177,5.92601081 15.9985939,7.18064865 15.9985939,8.39837838 Z M15.3804953,2.60488649 C15.3804953,1.5716973 14.6532091,0.981318919 13.7078881,0.981318919 C12.9443196,0.981318919 12.108016,1.27651892 11.4172037,1.60860541 C12.9079521,2.19898378 14.1078668,3.23225946 14.9077816,4.56071351 C15.1622903,3.97027027 15.3804953,3.23225946 15.3804953,2.60488649 Z M1.12715846,13.7858811 C1.12715846,14.8559784 1.74534221,15.4095351 2.76339814,15.4095351 C3.56333422,15.4095351 4.43600533,15.0774486 5.12683888,14.6346162 C3.63606924,13.748973 2.54519308,12.3836973 1.99982956,10.7600432 C1.59987217,11.6456865 1.12715846,12.8265081 1.12715846,13.7858811 Z M5.6358988,7.32828108 L12.108016,7.32828108 C12.0716485,5.5939027 10.5081651,4.33926486 8.87192543,4.33926486 C7.19940346,4.33926486 5.67218109,5.5939027 5.6358988,7.32828108 Z" id="浏览器-IE"></path>
                    </g>
                </g>
            </g>
        </g>
    </g>
</svg>